<svg width="50" height="50" viewBox="0 0 50 50" fill="none" xmlns="http://www.w3.org/2000/svg">
<g clip-path="url(#clip0_28_83)">
<path d="M21.83 2.645L2.64251 21.8325C0.940148 23.5143 -0.0243923 25.8035 -0.0389264 28.1965C-0.0534604 30.5894 0.883202 32.8901 2.56501 34.5925C4.24681 36.2949 6.53599 37.2594 8.92896 37.2739C11.3219 37.2885 13.6226 36.3518 15.325 34.67V15.61H34.42V34.7075H15.325V34.68C13.6738 36.3889 12.7634 38.6803 12.7916 41.0565C12.8198 43.4327 13.7843 45.7018 15.4756 47.371C17.1669 49.0403 19.4485 49.9749 21.8248 49.9719C24.2012 49.9689 26.4804 49.0285 28.1675 47.355L47.3575 28.17L21.83 2.645Z" fill="#9C27B0"/>
<path d="M34.5925 15.4075C33.3304 16.6698 31.7223 17.5294 29.9716 17.8777C28.2209 18.2261 26.4062 18.0474 24.757 17.3644C23.1078 16.6813 21.6983 15.5246 20.7065 14.0404C19.7148 12.5562 19.1855 10.8113 19.1855 9.02624C19.1855 7.24122 19.7148 5.49628 20.7065 4.0121C21.6983 2.52793 23.1078 1.37117 24.757 0.688122C26.4062 0.00507349 28.2209 -0.173587 29.9716 0.174733C31.7223 0.523054 33.3304 1.38271 34.5925 2.64499C36.2842 4.3378 37.2344 6.63305 37.2344 9.02624C37.2344 11.4194 36.2842 13.7147 34.5925 15.4075Z" fill="#DF78EF"/>
<path d="M47.3575 28.17C46.0954 29.4323 44.4873 30.2919 42.7366 30.6403C40.9859 30.9886 39.1712 30.8099 37.522 30.1269C35.8728 29.4438 34.4633 28.2871 33.4715 26.8029C32.4798 25.3187 31.9505 23.5738 31.9505 21.7888C31.9505 20.0037 32.4798 18.2588 33.4715 16.7746C34.4633 15.2904 35.8728 14.1337 37.522 13.4506C39.1712 12.7676 40.9859 12.5889 42.7366 12.9372C44.4873 13.2856 46.0954 14.1452 47.3575 15.4075C49.0498 17.1 50.0005 19.3954 50.0005 21.7888C50.0005 24.1821 49.0498 26.4775 47.3575 28.17Z" fill="#DF78EF"/>
</g>
<defs>
<clipPath id="clip0_28_83">
<rect width="50" height="50" fill="white"/>
</clipPath>
</defs>
</svg>
