<svg width="50" height="50" viewBox="0 0 50 50" fill="none" xmlns="http://www.w3.org/2000/svg">
<g clip-path="url(#clip0_28_77)">
<path d="M50.0551 30.0315V0H20.022L50.0551 30.0315Z" fill="#B085F5"/>
<path d="M50.055 30.0315L30.033 50.0525L25.6332 45.6554C27.0587 44.2683 28.1945 42.6117 28.9745 40.7819C29.7545 38.9522 30.1631 36.9857 30.1767 34.9967C30.1904 33.0077 29.8086 31.0358 29.0538 29.1956C28.2989 27.3553 27.1859 25.6834 25.7795 24.2768C24.373 22.8703 22.7011 21.7572 20.8609 21.0021C19.0206 20.2471 17.0487 19.8651 15.0596 19.8785C13.0705 19.8919 11.1038 20.3003 9.27391 21.0801C7.44397 21.8598 5.7872 22.9953 4.39979 24.4206L-4.81737e-05 20.021L20.022 0L50.055 30.0315ZM-4.81737e-05 35.0368C9.10429e-05 38.0064 0.880781 40.9092 2.53067 43.3784C4.18056 45.8475 6.52556 47.772 9.26918 48.9085C12.0128 50.0451 15.0318 50.3427 17.9446 49.7636C20.8573 49.1846 23.5329 47.7549 25.6332 45.6554L4.39979 24.4206C3.00284 25.8128 1.89495 27.4675 1.13986 29.2894C0.384762 31.1114 -0.00263414 33.0646 -4.81737e-05 35.0368Z" fill="#673AB7"/>
</g>
<defs>
<clipPath id="clip0_28_77">
<rect width="50" height="50" fill="white"/>
</clipPath>
</defs>
</svg>
