<svg id="Layer_1" data-name="Layer 1" xmlns="http://www.w3.org/2000/svg" viewBox="0 0 70.8661 70.8661"><path d="M56.64815,23.583V11.7351h1.1861L68.4982,23.583Zm11.85,33.178a2.37021,2.37021,0,0,1-2.37,2.3701H32.9502a2.37023,2.37023,0,0,1-2.37-2.3701V14.1051a2.37015,2.37015,0,0,1,2.37-2.37h21.328V23.583a2.37009,2.37009,0,0,0,2.37,2.37h11.85ZM59.01813,9.3651H32.9502a4.74029,4.74029,0,0,0-4.74,4.74V56.761a4.74032,4.74032,0,0,0,4.74,4.7401h33.178A4.73845,4.73845,0,0,0,70.8661,56.761V22.3991Z" style="fill:#1d1d1b"/><polygon points="21.943 33.824 12.51 33.824 12.51 24.292 9.447 24.292 9.447 33.824 0 33.824 0 37.102 9.447 37.102 9.447 46.662 12.51 46.662 12.51 37.102 21.943 37.102 21.943 33.824" style="fill:#1d1d1b"/></svg>