<!-- Optimised/Generated by IcoMoon.io -->
<svg version="1.1" xmlns="http://www.w3.org/2000/svg" width="32" height="32" viewBox="0 0 32 32">
<title>add-existing-collection</title>
<path d="M3.5 11.948v3.532h-3.5v1.214h3.5v3.542h1.135v-3.542h3.495v-1.214h-3.495v-3.532h-1.135z"></path>
<path d="M31.236 14.711l-1.309 10.063c-0.017 0.105-0.091 0.189-0.188 0.222l-0.002 0.001-0.027 0.008h-16.919c-0.105-0.031-0.183-0.119-0.2-0.226l-0-0.002-1.299-10.068c-0.001-0.008-0.002-0.018-0.002-0.027 0-0.064 0.025-0.122 0.065-0.166l-0 0c0.065-0.069 0.156-0.112 0.258-0.112h19.292c0.002-0 0.004-0 0.006-0 0.103 0 0.195 0.043 0.261 0.113l0 0c0.040 0.044 0.064 0.102 0.064 0.166 0 0.010-0.001 0.020-0.002 0.029l0-0.001zM15.481 10.989c0-0.078 0.064-0.141 0.142-0.141 0 0 0 0 0 0h9.333v1.536c0 0.307 0.249 0.555 0.555 0.555h1.537v0.706h-11.567zM25.718 12.176v-1.19l1.072 1.19zM27.771 12.086l-0.015-0.016-1.804-1.985h-10.329c-0.499 0.001-0.904 0.405-0.904 0.904v2.656h-2.045v-6.435c0-0.119 0.096-0.215 0.215-0.216h5.059c0 0 0.001 0 0.001 0 0.077 0 0.145 0.040 0.184 0.099l0 0.001 1.149 1.797c0.174 0.272 0.473 0.45 0.814 0.453h9.537c0 0 0.001 0 0.001 0 0.12 0 0.218 0.097 0.22 0.217v4.089h-1.686l-0.149-0.005h-0.209v-1.516zM31.747 14.013c-0.204-0.226-0.498-0.367-0.824-0.368h-0.309v-4.078c-0.001-0.538-0.436-0.975-0.974-0.977h-9.539c-0.077-0-0.145-0.040-0.184-0.101l-0.001-0.001-1.15-1.798c-0.175-0.27-0.474-0.447-0.814-0.451h-5.062c-0.536 0.001-0.971 0.434-0.975 0.969v6.437h-0.311c-0.002 0-0.004-0-0.006-0-0.328 0-0.622 0.141-0.826 0.366l-0.001 0.001c-0.152 0.176-0.244 0.406-0.244 0.658 0 0.048 0.003 0.095 0.010 0.141l-0.001-0.005 1.311 10.068c0.063 0.417 0.364 0.75 0.757 0.859l0.007 0.002 0.019 0.005h0.027c0.026 0.008 0.057 0.014 0.088 0.017l0.002 0 0.008 0.001h16.878c0.011 0.001 0.024 0.002 0.037 0.002 0.002 0 0.004-0 0.006-0h-0c0.018 0 0.037-0.001 0.055-0.002l0.029 0h0.011l0.011-0.002c0.042-0.006 0.077-0.014 0.112-0.023l-0.007 0.002 0.105-0.035c0.362-0.131 0.628-0.446 0.687-0.829l0.001-0.006 1.311-10.061c0.005-0.037 0.008-0.080 0.008-0.124 0-0.257-0.096-0.491-0.254-0.669l0.001 0.001z"></path>
</svg>
