<!-- Optimised/Generated by IcoMoon.io -->
<svg version="1.1" xmlns="http://www.w3.org/2000/svg" width="32" height="32" viewBox="0 0 32 32">
<title>add-new-object</title>
<path d="M20.626 8.712v-7.26h0.727l6.534 7.26zM27.888 29.042c-0 0.802-0.65 1.452-1.452 1.452h-20.33c-0.802-0-1.452-0.65-1.452-1.452v0-26.137c0-0.802 0.65-1.452 1.452-1.452h13.069v7.26c0 0.802 0.65 1.452 1.452 1.452h7.261zM22.079 0h-15.973c-1.604 0-2.904 1.3-2.904 2.904v0 26.137c0 1.604 1.3 2.904 2.904 2.904h20.33c1.603-0 2.903-1.3 2.903-2.903 0-0 0-0.001 0-0.001v0-21.055z"></path>
<path d="M9.503 18.529h13.446v2.008h-13.446v-2.008z"></path>
<path d="M15.291 12.688h1.877v13.708h-1.877v-13.708z"></path>
</svg>
