<svg id="Layer_1" data-name="Layer 1" xmlns="http://www.w3.org/2000/svg" viewBox="0 0 70.8661 70.8661"><path d="M45.6787,19.2933V3.21605h1.6095L61.75887,19.2933ZM61.75887,64.3149a3.21628,3.21628,0,0,1-3.216,3.2161H13.5212a3.21627,3.21627,0,0,1-3.216-3.2161V6.43208a3.2162,3.2162,0,0,1,3.216-3.216H42.4627V19.2933a3.21612,3.21612,0,0,0,3.216,3.216H61.75887ZM48.89466,0H13.5212a6.4324,6.4324,0,0,0-6.432,6.43208V64.3149a6.4324,6.4324,0,0,0,6.432,6.4321H58.54287A6.42986,6.42986,0,0,0,64.972,64.3149V17.6867Z" style="fill:#1d1d1b"/><rect x="21.0448" y="41.0341" width="29.77646" height="4.4471" style="fill:#1d1d1b"/><rect x="33.8639" y="28.0982" width="4.1571" height="30.3566" style="fill:#1d1d1b"/></svg>