<!-- Optimised/Generated by IcoMoon.io -->
<svg version="1.1" xmlns="http://www.w3.org/2000/svg" width="32" height="32" viewBox="0 0 32 32">
<title>add-new-collection</title>
<path d="M15.089 14.471v5.21h-5.163v1.79h5.163v5.225h1.674v-5.225h5.155v-1.79h-5.155v-5.21h-1.674z"></path>
<path d="M30.745 13.522l-1.931 14.845c-0.026 0.155-0.134 0.279-0.277 0.328l-0.003 0.001-0.040 0.012h-24.96c-0.155-0.046-0.27-0.175-0.296-0.334l-0-0.002-1.916-14.852c-0.001-0.012-0.002-0.026-0.002-0.040 0-0.095 0.036-0.181 0.096-0.245l-0 0c0.095-0.102 0.231-0.166 0.381-0.166h28.461c0.003-0 0.006-0 0.009-0 0.152 0 0.288 0.064 0.385 0.166l0 0c0.059 0.065 0.095 0.151 0.095 0.245 0 0.015-0.001 0.029-0.003 0.043l0-0.002zM7.502 8.031c0-0.115 0.094-0.209 0.209-0.209 0 0 0 0 0 0h13.769v2.266c0.001 0.452 0.367 0.819 0.819 0.819h2.267v1.042h-17.064zM22.605 9.783v-1.756l1.581 1.756zM25.633 9.65l-0.023-0.024-2.662-2.929h-15.238c-0.736 0.001-1.333 0.598-1.334 1.334v3.919h-3.017v-9.494c0.001-0.175 0.142-0.317 0.317-0.319h7.463c0 0 0.001 0 0.001 0 0.114 0 0.214 0.058 0.272 0.147l0.001 0.001 1.695 2.652c0.256 0.401 0.698 0.664 1.201 0.668h14.070c0.001 0 0.001 0 0.002 0 0.178 0 0.322 0.143 0.324 0.32v6.032h-2.487l-0.22-0.007h-0.309v-2.237zM31.498 12.492c-0.301-0.333-0.734-0.542-1.216-0.543h-0.456v-6.016c-0.001-0.794-0.643-1.438-1.437-1.442h-14.072c-0.114-0-0.214-0.059-0.272-0.148l-0.001-0.001-1.696-2.653c-0.258-0.398-0.699-0.659-1.2-0.665h-7.468c-0.791 0.002-1.432 0.64-1.439 1.429v9.496h-0.459c-0.003 0-0.006-0-0.009-0-0.483 0-0.918 0.208-1.219 0.54l-0.001 0.001c-0.224 0.259-0.36 0.599-0.36 0.971 0 0.071 0.005 0.14 0.014 0.208l-0.001-0.008 1.934 14.853c0.093 0.615 0.536 1.106 1.117 1.267l0.011 0.003 0.028 0.008h0.039c0.038 0.012 0.084 0.021 0.13 0.026l0.003 0 0.011 0.001h24.899c0.016 0.002 0.035 0.003 0.055 0.003 0.003 0 0.006-0 0.009-0h-0c0.027 0 0.054-0.001 0.080-0.003l0.043 0.001h0.017l0.016-0.002c0.061-0.009 0.114-0.021 0.165-0.034l-0.010 0.002 0.155-0.052c0.535-0.193 0.927-0.657 1.014-1.222l0.001-0.009 1.935-14.842c0.007-0.055 0.011-0.118 0.011-0.183 0-0.379-0.142-0.725-0.375-0.988l0.001 0.002z"></path>
</svg>
