<svg id="Layer_1" data-name="Layer 1" xmlns="http://www.w3.org/2000/svg" xmlns:xlink="http://www.w3.org/1999/xlink" viewBox="0 0 70.8661 70.8661"><defs><clipPath id="clip-path"><rect x="-33.96389" y="2.26772" width="104.54653" height="63.77778" style="fill:none"/></clipPath></defs><polygon points="33.416 32.048 33.416 43.587 21.983 43.587 21.983 47.552 33.416 47.552 33.416 59.123 37.124 59.123 37.124 47.552 48.541 47.552 48.541 43.587 37.124 43.587 37.124 32.048 33.416 32.048" style="fill:#1d1d1b"/><g style="clip-path:url(#clip-path)"><path d="M68.086,29.94641,63.81056,62.82174a.92256.92256,0,0,1-.619.7273l-.08837.0273H7.82781a.92291.92291,0,0,1-.65517-.74472L2.92948,29.94021A.79912.79912,0,0,1,3.13631,29.31a1.15176,1.15176,0,0,1,.84312-.36734H67.0088a1.16967,1.16967,0,0,1,.87291.36867.8077.8077,0,0,1,.20433.6351M16.61422,17.78489a.463.463,0,0,1,.46323-.46206H47.569v5.01783a1.81724,1.81724,0,0,0,1.81458,1.81458h5.02019V26.463H16.61422ZM50.05988,21.6644V17.775L53.562,21.6644Zm6.70657-.29387-.04986-.05356-5.69277-6.26458-.05606-.06092-.14575-.16066H17.07745a2.95728,2.95728,0,0,0-2.95408,2.95408V26.463H7.44173V5.43777a.708.708,0,0,1,.70238-.70606H24.672a.72062.72062,0,0,1,.60663.32751l3.75367,5.87216a3.175,3.175,0,0,0,2.66138,1.47955H62.85149a.718.718,0,0,1,.72244.70989V26.47791h-5.5085l-.48817-.0149h-.68379V21.50994Zm12.98841,6.29423A3.62867,3.62867,0,0,0,67.061,26.463H66.05223V13.14074A3.19762,3.19762,0,0,0,62.8689,9.94752H31.70621a.7201.7201,0,0,1-.60412-.33134L27.34591,3.74033a3.20241,3.20241,0,0,0-2.6602-1.472H8.14913a3.19279,3.19279,0,0,0-3.18585,3.1671V26.463H3.94712a3.64235,3.64235,0,0,0-2.72128,1.19924A3.30181,3.30181,0,0,0,.4587,30.25651l4.283,32.89392a3.427,3.427,0,0,0,2.49822,2.81215l.06225.01741h.08719a1.71329,1.71329,0,0,0,.29638.05739l.02494.00251H62.85149a1.15634,1.15634,0,0,0,.13956.00619c.05975,0,.1195-.0025.17806-.00752l.0959.00133h.03732l.03615-.005a3.23748,3.23748,0,0,0,.34255-.071l.34374-.11581a3.4286,3.4286,0,0,0,2.24787-2.72629l4.28432-32.869a3.296,3.296,0,0,0-.8021-2.58806" style="fill:#010101"/></g></svg>