<!-- Optimised/Generated by IcoMoon.io -->
<svg version="1.1" xmlns="http://www.w3.org/2000/svg" width="32" height="32" viewBox="0 0 32 32">
<title>add-existing-object</title>
<path d="M25.58 10.649v-5.35h0.536l4.815 5.35zM30.931 25.631c-0 0.591-0.479 1.070-1.070 1.070h-14.982c-0.591-0-1.070-0.479-1.070-1.070v0-19.262c0-0.591 0.479-1.070 1.070-1.070h9.631v5.35c0 0.591 0.479 1.070 1.070 1.070h5.351zM26.65 4.229h-11.771c-1.182 0-2.14 0.958-2.14 2.14v0 19.262c0 1.182 0.958 2.14 2.14 2.14h14.982c1.182-0 2.139-0.958 2.139-2.14 0-0 0-0.001 0-0.001v0-15.516z"></path>
<path d="M9.909 15.273h-4.26v-4.304h-1.383v4.304h-4.266v1.48h4.266v4.317h1.383v-4.317h4.26v-1.48z"></path>
</svg>
