<svg id="Layer_1" data-name="Layer 1" xmlns="http://www.w3.org/2000/svg" xmlns:xlink="http://www.w3.org/1999/xlink" viewBox="0 0 70.8661 70.8661"><defs><clipPath id="clip-path"><rect y="13.8174" width="70.8661" height="43.2313" style="fill:none"/></clipPath></defs><polygon points="7.75 26.46 7.75 34.282 0 34.282 0 36.97 7.75 36.97 7.75 44.813 10.263 44.813 10.263 36.97 18.002 36.97 18.002 34.282 10.263 34.282 10.263 26.46 7.75 26.46" style="fill:#1d1d1b"/><g style="clip-path:url(#clip-path)"><path d="M69.1738,32.5792,66.2757,54.8635a.62536.62536,0,0,1-.4196.493l-.0599.0185H28.3282a.62558.62558,0,0,1-.4441-.5048L25.0079,32.575a.54167.54167,0,0,1,.1402-.4272.78072.78072,0,0,1,.5715-.249h42.724a.79287.79287,0,0,1,.5917.2499.54749.54749,0,0,1,.1385.4305M34.284,24.3356a.31385.31385,0,0,1,.314-.3132H55.2665v3.4013a1.23181,1.23181,0,0,0,1.23,1.23h3.4029V30.218H34.284Zm22.6709,2.6297V24.3289l2.3739,2.6364Zm4.546-.1992-.0338-.0363-3.8588-4.2464-.038-.0413-.0988-.1089H34.598a2.00457,2.00457,0,0,0-2.0024,2.0024V30.218H28.0665V15.9662a.47991.47991,0,0,1,.4761-.4786H39.7459a.48847.48847,0,0,1,.4112.222L42.7015,19.69a2.1521,2.1521,0,0,0,1.804,1.0029H65.6256a.48667.48667,0,0,1,.4897.4812v9.054H62.3814l-.3309-.0101H61.587V26.8606Zm8.8041,4.2665a2.45968,2.45968,0,0,0-1.826-.8146h-.6838V21.1876a2.16748,2.16748,0,0,0-2.1578-2.1645H44.514a.4881.4881,0,0,1-.4095-.2246l-2.5461-3.9829a2.17073,2.17073,0,0,0-1.8032-.9978H28.546a2.16421,2.16421,0,0,0-2.1595,2.1468V30.218h-.6888a2.469,2.469,0,0,0-1.8446.8129,2.23811,2.23811,0,0,0-.52,1.7585l2.9032,22.2969a2.323,2.323,0,0,0,1.6934,1.9062l.0422.0118h.0591a1.16146,1.16146,0,0,0,.2009.0389l.0169.0017H65.6256a.78389.78389,0,0,0,.0946.0042c.0405,0,.081-.0017.1207-.0051l.065.0009h.0253l.0245-.0034a2.19384,2.19384,0,0,0,.2322-.0481l.233-.0785a2.32405,2.32405,0,0,0,1.5237-1.848l2.9041-22.28a2.2342,2.2342,0,0,0-.5437-1.7543" style="fill:#010101"/></g></svg>