<svg id="Layer_1" data-name="Layer 1" xmlns="http://www.w3.org/2000/svg" xmlns:xlink="http://www.w3.org/1999/xlink" width="70.87" height="59.95" viewBox="0 0 70.87 59.95"><defs><style>.cls-1{fill:none;}.cls-2{clip-path:url(#clip-path);}.cls-3{fill:#000000;}</style><clipPath id="clip-path" transform="translate(0 -3.04)"><rect class="cls-1" x="19.45" y="3.05" width="31.97" height="36.77"/></clipPath></defs><g id="archive-empty"><path d="M10,7.88A2.34,2.34,0,0,0,8,9.67L.07,41.17a2.78,2.78,0,0,0-.07.57V60.63A2.37,2.37,0,0,0,2.36,63H68.51a2.37,2.37,0,0,0,2.36-2.37V41.74a2.78,2.78,0,0,0-.07-.57L62.92,9.67a2.35,2.35,0,0,0-2.29-1.79H10Zm2.09,4.72H58.79l6.69,26.77H48.82a2.46,2.46,0,0,0-2.36,2.37v3.93h-22V41.74a2.46,2.46,0,0,0-2.36-2.37H5.39ZM4.72,44.1h15V48a2.45,2.45,0,0,0,2.36,2.36H48.82A2.45,2.45,0,0,0,51.18,48V44.1h15V58.27H4.72Z" transform="translate(0 -3.04)"/></g><g class="cls-2"><path class="cls-3" d="M35.44,39.82a2.64,2.64,0,0,0,1.65-.65L50.68,26.38a2.74,2.74,0,0,0,.2-3.49,2.49,2.49,0,0,0-3.5,0l-9.54,9V5.44a2.4,2.4,0,0,0-4.8,0V31.9l-9.54-9a2.62,2.62,0,0,0-3.5,0,2.71,2.71,0,0,0,.2,3.5L33.79,39.17a2.31,2.31,0,0,0,1.65.65" transform="translate(0 -3.04)"/></g></svg>