<svg id="Layer_1" data-name="Layer 1" xmlns="http://www.w3.org/2000/svg" width="70.87" height="55.12" viewBox="0 0 70.87 55.12"><g id="archive-empty"><path d="M10,7.88A2.34,2.34,0,0,0,8,9.67L.07,41.17a2.78,2.78,0,0,0-.07.57V60.63A2.37,2.37,0,0,0,2.36,63H68.51a2.37,2.37,0,0,0,2.36-2.37V41.74a2.78,2.78,0,0,0-.07-.57L62.92,9.67a2.35,2.35,0,0,0-2.29-1.79H10Zm2.09,4.72H58.79l6.69,26.77H48.82a2.46,2.46,0,0,0-2.36,2.37v3.93h-22V41.74a2.46,2.46,0,0,0-2.36-2.37H5.39ZM4.72,44.1h15V48a2.45,2.45,0,0,0,2.36,2.36H48.82A2.45,2.45,0,0,0,51.18,48V44.1h15V58.27H4.72Z" transform="translate(0 -7.87)"/></g></svg>