<svg id="Layer_1" data-name="Layer 1" xmlns="http://www.w3.org/2000/svg" width="70.87" height="56.7" viewBox="0 0 70.87 56.7"><g id="archive-sheets"><path d="M17.87,6.3a2.44,2.44,0,0,0-2,1.58H10A2.36,2.36,0,0,0,8,9.65L.07,41.15a2.32,2.32,0,0,0-.07.59V60.63A2.37,2.37,0,0,0,2.36,63H68.51a2.37,2.37,0,0,0,2.36-2.37V41.74a2.32,2.32,0,0,0-.07-.59L62.92,9.65a2.35,2.35,0,0,0-2.29-1.77H55A2.46,2.46,0,0,0,52.76,6.3H17.87ZM20.47,11H50.4v6.3H20.47ZM12.08,12.6h3.67v4.73H13.93a2.45,2.45,0,0,0-2.12,2.36v8.66H9.2A2.25,2.25,0,0,0,8,28.84Zm43,0h3.67l4.08,16.29a2.28,2.28,0,0,0-1.45-.54H59.06V19.69a2.45,2.45,0,0,0-2.36-2.36H55.12ZM16.54,22.05H54.33v6.3H16.54ZM7.09,32.58v6.79H5.39Zm56.69,0,1.7,6.79h-1.7Zm-52,.49H59.06v6.3H48.82a2.46,2.46,0,0,0-2.36,2.37v3.93h-22V41.74a2.46,2.46,0,0,0-2.36-2.37H11.81Zm-7.09,11h15V48a2.45,2.45,0,0,0,2.36,2.36H48.82A2.45,2.45,0,0,0,51.18,48V44.1h15V58.27H4.72Z" transform="translate(0 -6.3)"/></g></svg>