<!-- Optimised/Generated by IcoMoon.io -->
<svg version="1.1" xmlns="http://www.w3.org/2000/svg" width="32" height="32" viewBox="0 0 32 32">
<title>archive-empty</title>
<path d="M4.507 3.61c-0.443 0.055-0.798 0.378-0.9 0.8l-0.001 0.007-3.574 14.197c-0.018 0.077-0.030 0.165-0.032 0.256l-0 0.001v8.514c0 0 0 0 0 0 0 0.588 0.476 1.066 1.063 1.068h29.814c0.588-0.003 1.064-0.48 1.064-1.068 0 0 0 0 0 0v0-8.514c-0.002-0.092-0.013-0.18-0.033-0.265l0.002 0.009-3.552-14.197c-0.117-0.467-0.533-0.807-1.029-0.807-0.001 0-0.002 0-0.004 0h-22.819zM5.449 5.737h21.048l3.015 12.065h-7.509c-0.579 0.024-1.042 0.489-1.064 1.066l-0 0.002v1.771h-9.915v-1.771c-0.021-0.58-0.485-1.044-1.061-1.068l-0.002-0h-7.531zM2.127 19.935h6.761v1.758c0.022 0.579 0.485 1.042 1.062 1.064l0.002 0h12.052c0.579-0.022 1.042-0.485 1.064-1.062l0-0.002v-1.758h6.761v6.386h-27.7z"></path>
</svg>
