<!-- Optimised/Generated by IcoMoon.io -->
<svg version="1.1" xmlns="http://www.w3.org/2000/svg" width="32" height="32" viewBox="0 0 32 32">
<title>archive-sheets</title>
<path d="M8.054 3.155c-0.417 0.051-0.758 0.329-0.899 0.705l-0.003 0.008h-2.646c-0.44 0.056-0.793 0.374-0.9 0.79l-0.002 0.007-3.574 14.197c-0.020 0.077-0.032 0.165-0.032 0.255 0 0.004 0 0.008 0 0.011v-0.001 8.514c0 0 0 0 0 0 0 0.588 0.476 1.066 1.063 1.068h29.814c0.588-0.003 1.064-0.48 1.064-1.068 0 0 0 0 0 0v0-8.514c0-0.003 0-0.007 0-0.011 0-0.091-0.012-0.179-0.033-0.262l0.002 0.007-3.552-14.197c-0.121-0.462-0.534-0.798-1.026-0.798-0.002 0-0.004 0-0.006 0h-2.537c-0.161-0.412-0.55-0.701-1.008-0.712l-0.001-0h-15.725zM9.226 5.273h13.49v2.839h-13.49zM5.444 5.994h1.654v2.132h-0.82c-0.532 0.074-0.94 0.519-0.955 1.062l-0 0.002v3.903h-1.176c-0.207 0.020-0.393 0.1-0.543 0.222l0.002-0.001zM24.825 5.994h1.654l1.839 7.342c-0.175-0.149-0.403-0.241-0.653-0.243h-1.046v-3.903c-0.022-0.579-0.485-1.042-1.062-1.064l-0.002-0h-0.712zM7.455 10.254h17.032v2.839h-17.032zM3.196 14.999v3.060h-0.766zM28.746 14.999l0.766 3.060h-0.766zM5.309 15.22h21.309v2.839h-4.615c-0.579 0.024-1.042 0.489-1.064 1.066l-0 0.002v1.771h-9.915v-1.771c-0.021-0.58-0.485-1.044-1.061-1.068l-0.002-0h-4.638zM2.114 20.178h6.761v1.771c0.022 0.579 0.485 1.042 1.062 1.064l0.002 0h12.065c0.579-0.022 1.042-0.485 1.064-1.062l0-0.002v-1.758h6.761v6.386h-27.7z"></path>
</svg>
