<?xml version="1.0" encoding="UTF-8" standalone="no"?>
<!-- Optimised/Generated by IcoMoon.io -->

<svg
   version="1.1"
   width="32"
   height="32"
   viewBox="0 0 32 32"
   id="svg6"
   xmlns="http://www.w3.org/2000/svg"
   xmlns:svg="http://www.w3.org/2000/svg"
   xmlns:rdf="http://www.w3.org/1999/02/22-rdf-syntax-ns#"
   xmlns:cc="http://creativecommons.org/ns#"
   xmlns:dc="http://purl.org/dc/elements/1.1/">
  <defs
     id="defs10" />
  <title
     id="title2">arrow-left</title>
  <path
     d="m 32.003,15.992198 c -0.021,-0.551 -0.231,-1.048 -0.567,-1.434 l 0.002,0.003 -11.13,-11.8299998 c -0.754,-0.677 -2.199,-0.957 -3.043,-0.172 -0.385,0.392 -0.622,0.929 -0.622,1.522 0,0.593 0.237,1.13 0.622,1.522 v 0 l 7.848,8.3039998 H 2.085 c -1.15200001,0 -2.08600001,0.934 -2.08600001,2.086 0,1.152 0.934,2.086 2.08600001,2.086 v 0 h 23.028 l -7.825,8.304 c -0.713,0.713 -0.844,2.258 0,3.043 0.844,0.785 2.321,0.533 3.043,-0.172 l 11.108,-11.826 c 0.349,-0.361 0.565,-0.854 0.565,-1.397 0,-0.014 0,-0.028 0,-0.041 v 0.002 z"
     id="path4" />
  <metadata
     id="metadata28">
    <rdf:RDF>
      <cc:Work
         rdf:about="">
        <dc:title>arrow-left</dc:title>
      </cc:Work>
    </rdf:RDF>
  </metadata>
</svg>
