<!-- Optimised/Generated by IcoMoon.io -->
<svg version="1.1" xmlns="http://www.w3.org/2000/svg" width="32" height="32" viewBox="0 0 32 32">
<title>arrow-left</title>
<path d="M0 16.002c0.021 0.551 0.231 1.048 0.567 1.434l-0.002-0.003 11.13 11.83c0.754 0.677 2.199 0.957 3.043 0.172 0.385-0.392 0.622-0.929 0.622-1.522s-0.237-1.13-0.622-1.522l0 0-7.848-8.304h23.028c1.152 0 2.086-0.934 2.086-2.086s-0.934-2.086-2.086-2.086v0h-23.028l7.825-8.304c0.713-0.713 0.844-2.258 0-3.043s-2.321-0.533-3.043 0.172l-11.108 11.826c-0.349 0.361-0.565 0.854-0.565 1.397 0 0.014 0 0.028 0 0.041l-0-0.002z"></path>
</svg>
