<?xml version="1.0" encoding="UTF-8" standalone="no"?>
<svg
   xmlns:dc="http://purl.org/dc/elements/1.1/"
   xmlns:cc="http://creativecommons.org/ns#"
   xmlns:rdf="http://www.w3.org/1999/02/22-rdf-syntax-ns#"
   xmlns:svg="http://www.w3.org/2000/svg"
   xmlns="http://www.w3.org/2000/svg"
   height="95.016769"
   width="81.400513"
   id="svg10"
   version="1.1"
   y="0px"
   x="0px"
   viewBox="0 0 81.400513 95.016769"
   data-name="Layer 1">
  <metadata
     id="metadata16">
    <rdf:RDF>
      <cc:Work
         rdf:about="">
        <dc:format>image/svg+xml</dc:format>
        <dc:type
           rdf:resource="http://purl.org/dc/dcmitype/StillImage" />
        <dc:title>Artboard 69</dc:title>
      </cc:Work>
    </rdf:RDF>
  </metadata>
  <defs
     id="defs14" />
  <title
     id="title2">Artboard 69</title>
  <path
     id="path4"
     d="m 73.680514,5.4367525 c 9.88,7.9300005 7.4,14.0900005 1.81,20.8500005 l -32,38.53 c -6.1,7.39 -9.81,11.11 -17.81,4.37 -6,-5 -4,-12.5 2.58,-20.45 l 25.93,-31.24 5.19,4.33 -25.92,31.25 c -4.12,5.6 -6.67,9.32 -2.72,11.78 3.95,2.46 3.87,0.12 7.6,-4.38 l 32,-38.54 c 3,-3.58 4.9,-6.63 -1,-11.29 -10.29,-8.2200005 -18.43,0.1 -21.17,3.4 l -38,45.83 c -6.4300001,7.75 -3.2500001,21 2.33,25.77 4.28,3.62 19.25,5.4 25.68,-2.35 l 38.02,-45.8 5.2,4.35 -38,45.81 c -8.8,10.64 -27.81,8.19 -34.3900001,2.39 -9.07000001,-8 -12.81,-23.87 -4,-34.5 L 43.010514,9.7267525 c 9.72,-11.73 20.92,-12.46 30.67,-4.29 z" />
</svg>
