<!-- Optimised/Generated by IcoMoon.io -->
<svg version="1.1" xmlns="http://www.w3.org/2000/svg" width="32" height="32" viewBox="0 0 32 32">
<title>attachment</title>
<path d="M27.178 1.831c3.328 2.671 2.493 4.746 0.61 7.023l-10.779 12.979c-2.055 2.489-3.304 3.742-5.999 1.472-2.021-1.684-1.347-4.211 0.869-6.889l8.734-10.523 1.748 1.459-8.731 10.526c-1.388 1.886-2.247 3.139-0.916 3.968s1.304 0.040 2.56-1.475l10.779-12.982c1.011-1.206 1.651-2.233-0.337-3.803-3.466-2.769-6.208 0.034-7.131 1.145l-12.8 15.438c-2.166 2.611-1.095 7.074 0.785 8.681 1.442 1.219 6.484 1.819 8.65-0.792l12.807-15.428 1.752 1.465-12.8 15.431c-2.964 3.584-9.368 2.759-11.584 0.805-3.055-2.695-4.315-8.041-1.347-11.621l12.8-15.434c3.274-3.951 7.047-4.197 10.331-1.445z"></path>
</svg>
