<svg data-name="Layer 1" xmlns="http://www.w3.org/2000/svg" viewBox="0 0 70.87 70.87"><defs><clipPath id="a"><path fill="none" d="M.22.22h70.43v70.43H.22z"/></clipPath></defs><g clip-path="url(#a)"><path d="M55.78 15a28.83 28.83 0 108.43 20.41A29 29 0 0055.78 15M35.43 39.42a3.35 3.35 0 01-3.22-3.22L30.6 21.85C30.34 19.34 33 17 35.43 17s5.09 2.32 4.77 4.83l-1.55 14.38a3.35 3.35 0 01-3.22 3.22m0 4.83A4.75 4.75 0 0140.2 49a4.81 4.81 0 01-4.77 4.83A4.86 4.86 0 0130.6 49a4.81 4.81 0 014.83-4.76m0-44a35.17 35.17 0 11-24.91 10.3A35.13 35.13 0 0135.43.22"/></g></svg>