<!-- Optimised/Generated by IcoMoon.io -->
<svg version="1.1" xmlns="http://www.w3.org/2000/svg" width="32" height="32" viewBox="0 0 32 32">
<title>attention</title>
<path d="M25.186 6.773c-2.356-2.36-5.613-3.819-9.211-3.819-7.189 0-13.018 5.828-13.018 13.018s5.828 13.018 13.018 13.018c7.183 0 13.008-5.818 13.018-12.999v-0.001c-0.004-3.596-1.457-6.852-3.807-9.216l0.001 0.001zM15.998 17.799c-0.79-0.031-1.423-0.664-1.454-1.451l-0-0.003-0.727-6.479c-0.117-1.133 1.084-2.19 2.181-2.19s2.298 1.048 2.154 2.181l-0.7 6.493c-0.031 0.79-0.664 1.423-1.451 1.454l-0.003 0zM15.998 19.985c0.003 0 0.006-0 0.009-0 1.183 0 2.142 0.958 2.145 2.14v0c0 0.003 0 0.006 0 0.009 0 1.193-0.962 2.162-2.153 2.172h-0.001c-1.201-0.008-2.173-0.98-2.181-2.18v-0.001c0.013-1.19 0.98-2.149 2.172-2.149 0.003 0 0.006 0 0.010 0h-0.001zM15.998 0.108c8.762 0.011 15.861 7.117 15.861 15.88 0 8.77-7.11 15.88-15.88 15.88s-15.88-7.11-15.88-15.88c0-4.385 1.778-8.356 4.652-11.23v0c2.872-2.879 6.843-4.66 11.23-4.66 0.006 0 0.012 0 0.018 0h-0.001z"></path>
</svg>
