<svg id="Layer_1" data-name="Layer 1" xmlns="http://www.w3.org/2000/svg" viewBox="0 0 70.8661 70.8661"><path d="M45.0924,19.3185V3.22h1.6117L61.1939,19.3185ZM61.1939,64.3996a3.22046,3.22046,0,0,1-3.2203,3.2203H12.8925a3.22046,3.22046,0,0,1-3.2203-3.2203V6.4403A3.22046,3.22046,0,0,1,12.8925,3.22H41.8722V19.3185a3.22037,3.22037,0,0,0,3.2202,3.2203H61.1939ZM48.3127-.0003H12.8925A6.44091,6.44091,0,0,0,6.4519,6.4403V64.3996a6.44091,6.44091,0,0,0,6.4406,6.4406H57.9736a6.43835,6.43835,0,0,0,6.4376-6.4406V17.7098Z" style="fill:#1d1d1b"/><path d="M35.9493,27.4358a1.3388,1.3388,0,0,0-1.4625.2912l-4.9735,4.9735H22.0187a1.34138,1.34138,0,0,0-1.3417,1.3417V44.7756a1.3413,1.3413,0,0,0,1.3417,1.3416h7.4946l4.9735,4.9736a1.34217,1.34217,0,0,0,.9486.3931,1.32441,1.32441,0,0,0,.5139-.102,1.34242,1.34242,0,0,0,.8278-1.2397V28.6755A1.344,1.344,0,0,0,35.9493,27.4358ZM34.0937,46.9034,31.0173,43.827a1.33826,1.33826,0,0,0-.9486-.3931H23.3604v-8.05h6.7083a1.33826,1.33826,0,0,0,.9486-.3931l3.0764-3.0765Z" style="fill:#010101"/><path d="M44.76,30.8705a1.34013,1.34013,0,0,0,0,1.8971,9.404,9.404,0,0,1,0,13.2826,1.34145,1.34145,0,1,0,1.8971,1.8971,12.08817,12.08817,0,0,0,0-17.0781A1.34131,1.34131,0,0,0,44.76,30.8705Z" style="fill:#010101"/></svg>