<!-- Optimised/Generated by IcoMoon.io -->
<svg version="1.1" xmlns="http://www.w3.org/2000/svg" width="32" height="32" viewBox="0 0 32 32">
<title>audio-object</title>
<path d="M20.362 8.723v-7.269h0.728l6.543 7.269zM27.632 29.080c-0 0.803-0.651 1.454-1.454 1.454h-20.357c-0.803-0-1.454-0.651-1.454-1.454v0-26.172c0-0.803 0.651-1.454 1.454-1.454h13.086v7.269c0 0.803 0.651 1.454 1.454 1.454h7.271zM21.816-0h-15.994c-1.606 0-2.908 1.302-2.908 2.908v0 26.172c0 1.606 1.302 2.908 2.908 2.908h20.357c1.605-0 2.907-1.302 2.907-2.907 0-0 0-0.001 0-0.001v0-21.083z"></path>
<path d="M16.233 12.389c-0.069-0.029-0.148-0.046-0.232-0.046-0.167 0-0.319 0.068-0.428 0.178l-2.246 2.246h-3.384c-0 0-0 0-0 0-0.335 0-0.606 0.271-0.606 0.606 0 0 0 0 0 0v0 4.847c0 0 0 0 0 0 0 0.334 0.271 0.606 0.606 0.606 0 0 0 0 0 0h3.384l2.246 2.246c0.11 0.11 0.261 0.177 0.428 0.177v0c0.001 0 0.001 0 0.002 0 0.083 0 0.162-0.017 0.234-0.048l-0.004 0.001c0.221-0.094 0.374-0.309 0.374-0.56v0-9.693c-0-0.251-0.153-0.466-0.37-0.558l-0.004-0.002zM15.395 21.18l-1.389-1.389c-0.109-0.11-0.261-0.177-0.428-0.177-0 0-0 0-0.001 0h-3.029v-3.635h3.029c0 0 0 0 0.001 0 0.167 0 0.318-0.068 0.428-0.178v0l1.389-1.389z"></path>
<path d="M20.212 13.94c-0.11 0.11-0.178 0.261-0.178 0.428s0.068 0.319 0.178 0.428v0c0.766 0.768 1.24 1.828 1.24 2.999s-0.474 2.231-1.24 2.999l0-0c-0.11 0.11-0.177 0.261-0.177 0.428 0 0.335 0.271 0.606 0.606 0.606 0.167 0 0.319-0.068 0.428-0.177v0c0.985-0.987 1.595-2.35 1.595-3.856s-0.609-2.868-1.595-3.856l0 0c-0.11-0.109-0.261-0.177-0.428-0.177s-0.319 0.068-0.429 0.178v0z"></path>
</svg>
