<svg data-name="Layer 1" xmlns="http://www.w3.org/2000/svg" viewBox="0 0 70.87 70.87"><defs><clipPath id="a"><path fill="none" d="M4.01 0h62.85v70.91H4.01z"/></clipPath></defs><g clip-path="url(#a)"><path d="M31.88 54.44a4.68 4.68 0 01-1.54.87 5.53 5.53 0 01-1.85.31A4.32 4.32 0 0125 54.21a5.7 5.7 0 01-1.26-3.64h-2.67a8.6 8.6 0 00.49 3.17 6.34 6.34 0 001.49 2.35 6.25 6.25 0 002.36 1.44 9.19 9.19 0 003.08.49 10 10 0 003-.44 7 7 0 002.43-1.31 6.24 6.24 0 001.65-2.19 7 7 0 00.61-3 6.43 6.43 0 00-1-3.59 4.63 4.63 0 00-3-2v-.07a5.66 5.66 0 002.2-1.81 4.51 4.51 0 00.88-2.75 6.72 6.72 0 00-.52-2.75 5.1 5.1 0 00-1.43-1.91 6.22 6.22 0 00-2.15-1.12 9.34 9.34 0 00-2.69-.37 7.31 7.31 0 00-2.94.55 5.81 5.81 0 00-2.12 1.52 6.79 6.79 0 00-1.3 2.33 10.7 10.7 0 00-.52 3h2.67a7 7 0 01.25-1.91 4.61 4.61 0 01.77-1.59 3.8 3.8 0 011.32-1.08 4.1 4.1 0 011.87-.4 4.33 4.33 0 012.83.92 3.37 3.37 0 011.13 2.77 3.66 3.66 0 01-.43 1.63 3.47 3.47 0 01-.93 1.18 4.1 4.1 0 01-1.35.71 5.44 5.44 0 01-1.62.24H26.94v2.33a12.5 12.5 0 011.6-.1 6.15 6.15 0 011.87.27 4 4 0 011.49.84 4.19 4.19 0 011 1.39 4.51 4.51 0 01.38 1.89 4.3 4.3 0 01-.35 1.8 4.19 4.19 0 01-1.05 1.39m13.61 3.22h2.67v-22.9h-2a5.16 5.16 0 01-.82 2.14 4.46 4.46 0 01-1.46 1.33 5.91 5.91 0 01-1.93.66 13.15 13.15 0 01-2.2.18v2.2h5.78zM64 20H6.86v-8.57a2.86 2.86 0 012.86-2.86h5.71v4.28a1.43 1.43 0 102.86 0V8.57h34.28v4.28a1.43 1.43 0 102.86 0V8.57h5.71A2.86 2.86 0 0164 11.43zm0 45.2a2.86 2.86 0 01-2.86 2.86H9.72a2.86 2.86 0 01-2.86-2.86V22.86H64zM61.14 5.71h-5.71V1.43a1.43 1.43 0 10-2.86 0v4.28H18.29V1.43a1.43 1.43 0 10-2.86 0v4.28H9.72A5.71 5.71 0 004 11.43V65.2a5.71 5.71 0 005.71 5.71h51.43a5.71 5.71 0 005.71-5.71V11.43a5.71 5.71 0 00-5.71-5.71"/></g></svg>