<?xml version="1.0" encoding="UTF-8" standalone="no"?>
<svg
   xmlns:dc="http://purl.org/dc/elements/1.1/"
   xmlns:cc="http://creativecommons.org/ns#"
   xmlns:rdf="http://www.w3.org/1999/02/22-rdf-syntax-ns#"
   xmlns:svg="http://www.w3.org/2000/svg"
   xmlns="http://www.w3.org/2000/svg"
   version="1.1"
   viewBox="0 0 70.87 70.87"
   data-name="Layer 1"
   id="Layer_1">
  <metadata
     id="metadata36">
    <rdf:RDF>
      <cc:Work
         rdf:about="">
        <dc:format>image/svg+xml</dc:format>
        <dc:type
           rdf:resource="http://purl.org/dc/dcmitype/StillImage" />
        <dc:title>icons-collected</dc:title>
      </cc:Work>
    </rdf:RDF>
  </metadata>
  <defs
     id="defs7">
    <style
       id="style2">.cls-1{fill:none;}.cls-2{clip-path:url(#clip-path);}.cls-3{fill:#1d1d1b;}</style>
    <clipPath
       id="clip-path">
      <rect
         id="rect4"
         height="69.99"
         width="62.04"
         y="0.44"
         x="4.41"
         class="cls-1" />
    </clipPath>
  </defs>
  <title
     id="title9">icons-collected</title>
  <g
     id="g13"
     clip-path="url(#clip-path)"
     class="cls-2">
    <path
       id="path11"
       d="M63.63,20.18H7.23V11.72A2.82,2.82,0,0,1,10.05,8.9h5.64v4.23a1.41,1.41,0,1,0,2.82,0V8.9H52.35v4.23a1.41,1.41,0,1,0,2.82,0V8.9h5.64a2.82,2.82,0,0,1,2.82,2.82Zm0,44.61a2.82,2.82,0,0,1-2.82,2.82H10.05a2.82,2.82,0,0,1-2.82-2.82V23h56.4ZM60.81,6.08H55.17V1.85a1.41,1.41,0,1,0-2.82,0V6.08H18.51V1.85a1.41,1.41,0,1,0-2.82,0V6.08H10.05a5.64,5.64,0,0,0-5.64,5.64V64.79a5.64,5.64,0,0,0,5.64,5.64H60.81a5.64,5.64,0,0,0,5.64-5.64V11.72a5.64,5.64,0,0,0-5.64-5.64"
       class="cls-3" />
  </g>
  <rect
     id="rect15"
     height="8.4"
     width="8.4"
     y="27.44"
     x="13.96"
     class="cls-3" />
  <rect
     id="rect17"
     height="8.4"
     width="8.4"
     y="40.04"
     x="13.96"
     class="cls-3" />
  <rect
     id="rect19"
     height="8.4"
     width="8.4"
     y="52.64"
     x="13.96"
     class="cls-3" />
  <rect
     id="rect21"
     height="8.4"
     width="8.4"
     y="27.44"
     x="47.55"
     class="cls-3" />
  <rect
     id="rect23"
     height="8.4"
     width="8.4"
     y="40.04"
     x="47.55"
     class="cls-3" />
  <rect
     id="rect25"
     height="8.4"
     width="8.4"
     y="52.64"
     x="47.55"
     class="cls-3" />
  <rect
     id="rect27"
     height="8.4"
     width="8.4"
     y="27.44"
     x="30.76"
     class="cls-3" />
  <rect
     id="rect29"
     height="8.4"
     width="8.4"
     y="40.04"
     x="30.76"
     class="cls-3" />
  <rect
     id="rect31"
     height="8.4"
     width="8.4"
     y="52.64"
     x="30.76"
     class="cls-3" />
  <path
     id="path4548"
     d="m 7.3872969,15.331507 c 0,-4.556015 0.017721,-4.685968 0.7370917,-5.4053387 C 8.818003,9.2325539 9.0571281,9.1890766 12.178393,9.1890766 h 3.316913 v 2.1218184 c 0,2.55106 0.323897,3.283521 1.451989,3.283521 1.301252,0 1.550977,-0.493182 1.550977,-3.063026 V 9.1890766 h 16.816611 16.816611 v 2.2307754 c 0,2.444408 0.380896,3.174564 1.656051,3.174564 1.128941,0 1.647211,-1.060344 1.647211,-3.370081 V 9.1890766 h 3.27657 3.276566 l 0.777438,0.9239304 c 0.760378,0.903658 0.777435,1.022255 0.777435,5.405339 v 4.481409 H 35.465031 7.3872969 Z"
     style="fill:#ffffff;fill-opacity:1;stroke:#218e5d;stroke-width:0;stroke-miterlimit:4;stroke-dasharray:none;stroke-opacity:1" />
  <path
     id="path4550"
     d="M 8.265087,66.56883 7.3872969,65.691042 V 44.346881 23.002721 h 28.0835791 28.08358 l -0.08092,21.497301 -0.08092,21.497299 -0.84256,0.724651 -0.842564,0.724649 H 35.425186 9.1428771 Z M 22.402128,56.777845 V 52.4153 l -4.279227,0.08332 -4.279227,0.08332 -0.08332,4.279227 -0.08332,4.279227 h 4.362546 4.362546 z m 16.816611,0.0082 V 52.43179 h -4.354301 -4.354301 v 4.354301 4.354301 h 4.354301 4.354301 z m 16.816611,0 V 52.43179 h -4.354301 -4.354301 v 4.354301 4.354301 h 4.354301 4.354301 z M 22.402128,44.165388 v -4.362546 l -4.279227,0.08332 -4.279227,0.08332 -0.08332,4.279227 -0.08332,4.279227 h 4.362546 4.362546 z m 16.816611,0.0082 v -4.354301 h -4.354301 -4.354301 v 4.354301 4.354301 h 4.354301 4.354301 z m 16.816611,0 v -4.354301 h -4.354301 -4.354301 v 4.354301 4.354301 h 4.354301 4.354301 z M 22.402128,31.55293 v -4.362546 l -4.279227,0.08332 -4.279227,0.08332 -0.08332,4.279227 -0.08332,4.279227 h 4.362546 4.362546 z m 16.816611,0 v -4.362546 l -4.279227,0.08332 -4.279227,0.08332 -0.08332,4.279227 -0.08332,4.279227 h 4.362546 4.362546 z m 16.816611,0.0082 v -4.354301 h -4.354301 -4.354301 v 4.354301 4.354301 h 4.354301 4.354301 z"
     style="fill:#ffffff;fill-opacity:1;stroke:#218e5d;stroke-width:0;stroke-miterlimit:4;stroke-dasharray:none;stroke-opacity:1" />
</svg>
