<!-- Optimised/Generated by IcoMoon.io -->
<svg version="1.1" xmlns="http://www.w3.org/2000/svg" width="32" height="32" viewBox="0 0 32 32">
<title>calendar-number</title>
<path d="M14.395 24.581c-0.196 0.168-0.428 0.301-0.681 0.388l-0.015 0.004c-0.246 0.089-0.529 0.14-0.824 0.14-0.004 0-0.008 0-0.012-0h0.001c-0.039 0.003-0.084 0.004-0.13 0.004-0.572 0-1.087-0.247-1.444-0.639l-0.001-0.002c-0.354-0.437-0.569-1.001-0.569-1.614 0-0.010 0-0.021 0-0.031v0.002h-1.206c-0.001 0.040-0.002 0.086-0.002 0.133 0 0.465 0.082 0.912 0.232 1.325l-0.009-0.027c0.151 0.415 0.381 0.769 0.673 1.061l0 0c0.293 0.285 0.65 0.508 1.046 0.644l0.020 0.006c0.399 0.14 0.859 0.222 1.338 0.222 0.019 0 0.037-0 0.056-0l-0.003 0c0.009 0 0.019 0 0.030 0 0.473 0 0.929-0.073 1.357-0.207l-0.032 0.009c0.422-0.131 0.788-0.333 1.102-0.596l-0.005 0.004c0.314-0.267 0.566-0.597 0.738-0.971l0.007-0.017c0.174-0.38 0.276-0.824 0.276-1.292 0-0.022-0-0.044-0.001-0.066l0 0.003c0-0.019 0.001-0.042 0.001-0.065 0-0.577-0.169-1.116-0.459-1.568l0.007 0.012c-0.308-0.463-0.785-0.792-1.341-0.901l-0.013-0.002v-0.032c0.403-0.19 0.737-0.468 0.988-0.81l0.005-0.007c0.248-0.334 0.398-0.754 0.398-1.209 0-0.012-0-0.023-0-0.035l0 0.002c0.001-0.021 0.001-0.045 0.001-0.069 0-0.423-0.087-0.826-0.243-1.192l0.008 0.020c-0.15-0.344-0.37-0.632-0.642-0.859l-0.004-0.003c-0.274-0.222-0.598-0.395-0.951-0.501l-0.020-0.005c-0.352-0.106-0.757-0.167-1.176-0.167-0.014 0-0.027 0-0.041 0h0.002c-0.021-0-0.045-0.001-0.070-0.001-0.454 0-0.886 0.092-1.28 0.257l0.022-0.008c-0.379 0.161-0.698 0.393-0.955 0.684l-0.002 0.003c-0.254 0.296-0.454 0.646-0.581 1.030l-0.006 0.022c-0.135 0.402-0.22 0.866-0.235 1.347l-0 0.007h1.206c-0-0.007-0-0.016-0-0.025 0-0.298 0.041-0.586 0.118-0.86l-0.005 0.022c0.074-0.274 0.193-0.514 0.351-0.723l-0.004 0.005c0.159-0.204 0.358-0.368 0.586-0.483l0.010-0.005c0.234-0.114 0.508-0.181 0.799-0.181 0.016 0 0.032 0 0.048 0.001l-0.002-0c0.021-0.001 0.046-0.001 0.071-0.001 0.457 0 0.878 0.157 1.211 0.42l-0.004-0.003c0.316 0.28 0.514 0.687 0.514 1.14 0 0.039-0.001 0.077-0.004 0.115l0-0.005c-0.007 0.271-0.078 0.523-0.198 0.745l0.004-0.009c-0.103 0.211-0.245 0.389-0.417 0.531l-0.003 0.002c-0.173 0.138-0.376 0.248-0.596 0.317l-0.013 0.004c-0.216 0.069-0.464 0.108-0.722 0.108-0.003 0-0.007 0-0.010-0h-0.523v1.052c0.214-0.029 0.461-0.045 0.713-0.045 0.003 0 0.007 0 0.010 0h-0.001c0.009-0 0.020-0 0.030-0 0.291 0 0.571 0.045 0.834 0.127l-0.020-0.005c0.261 0.081 0.486 0.212 0.675 0.381l-0.002-0.002c0.188 0.173 0.341 0.382 0.447 0.616l0.005 0.012c0.109 0.241 0.172 0.523 0.172 0.819 0 0.012-0 0.024-0 0.036l0-0.002c0 0.013 0.001 0.029 0.001 0.044 0 0.278-0.058 0.542-0.163 0.781l0.005-0.012c-0.117 0.247-0.277 0.456-0.472 0.626l-0.002 0.002zM20.54 26.013h1.206v-10.34h-0.903c-0.053 0.365-0.184 0.692-0.375 0.975l0.005-0.008c-0.173 0.247-0.394 0.448-0.649 0.595l-0.010 0.005c-0.252 0.141-0.545 0.246-0.856 0.296l-0.015 0.002c-0.294 0.052-0.633 0.081-0.979 0.081-0.005 0-0.010 0-0.015-0h0.001v0.993h2.61zM28.898 9.031h-25.8v-3.87c0-0.713 0.578-1.291 1.291-1.291v0h2.578v1.933c0 0.357 0.289 0.646 0.646 0.646s0.646-0.289 0.646-0.646v-1.933h15.478v1.933c0 0.357 0.289 0.646 0.646 0.646s0.646-0.289 0.646-0.646v-1.933h2.578c0.713 0 1.291 0.578 1.291 1.291v0zM28.898 29.44c0 0.713-0.578 1.291-1.291 1.291v0h-23.218c-0.713 0-1.291-0.578-1.291-1.291v0-19.118h25.8zM27.607 2.578h-2.578v-1.933c0-0.357-0.289-0.646-0.646-0.646s-0.646 0.289-0.646 0.646v1.933h-15.478v-1.933c0-0.357-0.289-0.646-0.646-0.646s-0.646 0.289-0.646 0.646v1.933h-2.578c-0.001 0-0.003 0-0.005 0-1.424 0-2.578 1.154-2.578 2.578 0 0.002 0 0.003 0 0.005v-0 24.279c0 1.424 1.154 2.578 2.578 2.578v0h23.222c1.424 0 2.578-1.154 2.578-2.578v0-24.279c0-1.424-1.154-2.578-2.578-2.578v0z"></path>
</svg>
