<!-- Optimised/Generated by IcoMoon.io -->
<svg version="1.1" xmlns="http://www.w3.org/2000/svg" width="32" height="32" viewBox="0 0 32 32">
<title>calendar-many</title>
<path d="M28.731 9.112h-25.466v-3.82c0-0.703 0.57-1.273 1.273-1.273v0h2.547v1.91c0 0.352 0.285 0.637 0.637 0.637s0.637-0.285 0.637-0.637v0-1.91h15.28v1.91c0 0.352 0.285 0.637 0.637 0.637s0.637-0.285 0.637-0.637v0-1.91h2.547c0.703 0 1.273 0.57 1.273 1.273v0zM28.731 29.255c0 0.703-0.57 1.273-1.273 1.273v0h-22.92c-0.703 0-1.273-0.57-1.273-1.273v0-18.869h25.466zM27.458 2.745h-2.547v-1.91c0-0.352-0.285-0.637-0.637-0.637s-0.637 0.285-0.637 0.637v0 1.91h-15.28v-1.91c0-0.352-0.285-0.637-0.637-0.637s-0.637 0.285-0.637 0.637v0 1.91h-2.547c-1.406 0-2.547 1.14-2.547 2.547v0 23.963c0 1.406 1.14 2.547 2.547 2.547v0h22.92c1.406 0 2.547-1.14 2.547-2.547v-23.963c0-1.406-1.14-2.547-2.547-2.547v0z"></path>
<path d="M6.303 12.39h3.793v3.793h-3.793v-3.793z"></path>
<path d="M6.303 18.079h3.793v3.793h-3.793v-3.793z"></path>
<path d="M6.303 23.769h3.793v3.793h-3.793v-3.793z"></path>
<path d="M21.47 12.39h3.793v3.793h-3.793v-3.793z"></path>
<path d="M21.47 18.079h3.793v3.793h-3.793v-3.793z"></path>
<path d="M21.47 23.769h3.793v3.793h-3.793v-3.793z"></path>
<path d="M13.889 12.39h3.793v3.793h-3.793v-3.793z"></path>
<path d="M13.889 18.079h3.793v3.793h-3.793v-3.793z"></path>
<path d="M13.889 23.769h3.793v3.793h-3.793v-3.793z"></path>
</svg>
