<svg id="Layer_1" data-name="Layer 1" xmlns="http://www.w3.org/2000/svg" viewBox="0 0 70.87 70.87"><defs><clipPath id="clip-path"><path fill="none" d="M4.41.44h62.04v69.99H4.41z"/></clipPath></defs><g clip-path="url(#clip-path)"><path class="cls-3" d="M63.63 20.18H7.23v-8.46a2.82 2.82 0 012.82-2.82h5.64v4.23a1.41 1.41 0 102.82 0V8.9h33.84v4.23a1.41 1.41 0 102.82 0V8.9h5.64a2.82 2.82 0 012.82 2.82zm0 44.61a2.82 2.82 0 01-2.82 2.82H10.05a2.82 2.82 0 01-2.82-2.82V23h56.4zM60.81 6.08h-5.64V1.85a1.41 1.41 0 10-2.82 0v4.23H18.51V1.85a1.41 1.41 0 10-2.82 0v4.23h-5.64a5.64 5.64 0 00-5.64 5.64v53.07a5.64 5.64 0 005.64 5.64h50.76a5.64 5.64 0 005.64-5.64V11.72a5.64 5.64 0 00-5.64-5.64"/></g><path class="cls-3" d="M13.96 27.44h8.4v8.4h-8.4zM13.96 40.04h8.4v8.4h-8.4zM13.96 52.64h8.4v8.4h-8.4zM47.55 27.44h8.4v8.4h-8.4zM47.55 40.04h8.4v8.4h-8.4zM47.55 52.64h8.4v8.4h-8.4zM30.76 27.44h8.4v8.4h-8.4zM30.76 40.04h8.4v8.4h-8.4zM30.76 52.64h8.4v8.4h-8.4z"/></svg>