<?xml version="1.0" encoding="UTF-8" standalone="no"?>
<svg
   xmlns:dc="http://purl.org/dc/elements/1.1/"
   xmlns:cc="http://creativecommons.org/ns#"
   xmlns:rdf="http://www.w3.org/1999/02/22-rdf-syntax-ns#"
   xmlns:svg="http://www.w3.org/2000/svg"
   xmlns="http://www.w3.org/2000/svg"
   version="1.1"
   viewBox="0 0 70.87 70.87"
   data-name="Layer 1"
   id="Layer_1">
  <metadata
     id="metadata18">
    <rdf:RDF>
      <cc:Work
         rdf:about="">
        <dc:format>image/svg+xml</dc:format>
        <dc:type
           rdf:resource="http://purl.org/dc/dcmitype/StillImage" />
        <dc:title>icons-collected</dc:title>
      </cc:Work>
    </rdf:RDF>
  </metadata>
  <defs
     id="defs7">
    <style
       id="style2">.cls-1{fill:none;}.cls-2{clip-path:url(#clip-path);}</style>
    <clipPath
       id="clip-path">
      <rect
         id="rect4"
         height="70.91"
         width="62.85"
         x="4.01"
         class="cls-1" />
    </clipPath>
  </defs>
  <title
     id="title9">icons-collected</title>
  <g
     id="g13"
     clip-path="url(#clip-path)"
     class="cls-2">
    <path
       id="path11"
       d="M31.88,54.44a4.68,4.68,0,0,1-1.54.87,5.53,5.53,0,0,1-1.85.31A4.32,4.32,0,0,1,25,54.21a5.7,5.7,0,0,1-1.26-3.64H21.07a8.6,8.6,0,0,0,.49,3.17,6.34,6.34,0,0,0,1.49,2.35,6.25,6.25,0,0,0,2.36,1.44,9.19,9.19,0,0,0,3.08.49,10,10,0,0,0,3-.44,7,7,0,0,0,2.43-1.31,6.24,6.24,0,0,0,1.65-2.19,7,7,0,0,0,.61-3,6.43,6.43,0,0,0-1-3.59,4.63,4.63,0,0,0-3-2v-.07a5.66,5.66,0,0,0,2.2-1.81,4.51,4.51,0,0,0,.88-2.75,6.72,6.72,0,0,0-.52-2.75,5.1,5.1,0,0,0-1.43-1.91,6.22,6.22,0,0,0-2.15-1.12,9.34,9.34,0,0,0-2.69-.37,7.31,7.31,0,0,0-2.94.55,5.81,5.81,0,0,0-2.12,1.52,6.79,6.79,0,0,0-1.3,2.33,10.7,10.7,0,0,0-.52,3h2.67a7,7,0,0,1,.25-1.91,4.61,4.61,0,0,1,.77-1.59,3.8,3.8,0,0,1,1.32-1.08,4.1,4.1,0,0,1,1.87-.4,4.33,4.33,0,0,1,2.83.92,3.37,3.37,0,0,1,1.13,2.77A3.66,3.66,0,0,1,32,42.45a3.47,3.47,0,0,1-.93,1.18,4.1,4.1,0,0,1-1.35.71,5.44,5.44,0,0,1-1.62.24h-.88l-.28,0v2.33a12.5,12.5,0,0,1,1.6-.1,6.15,6.15,0,0,1,1.87.27,4,4,0,0,1,1.49.84,4.19,4.19,0,0,1,1,1.39,4.51,4.51,0,0,1,.38,1.89A4.3,4.3,0,0,1,32.93,53a4.19,4.19,0,0,1-1.05,1.39m13.61,3.22h2.67V34.71h-2a5.16,5.16,0,0,1-.82,2.14,4.46,4.46,0,0,1-1.46,1.33,5.91,5.91,0,0,1-1.93.66,13.15,13.15,0,0,1-2.2.18v2.2h5.78ZM64,20H6.86V11.43A2.86,2.86,0,0,1,9.72,8.57h5.71v4.28a1.43,1.43,0,1,0,2.86,0V8.57H52.57v4.28a1.43,1.43,0,1,0,2.86,0V8.57h5.71A2.86,2.86,0,0,1,64,11.43Zm0,45.2a2.86,2.86,0,0,1-2.86,2.86H9.72A2.86,2.86,0,0,1,6.86,65.2V22.86H64ZM61.14,5.71H55.43V1.43a1.43,1.43,0,1,0-2.86,0V5.71H18.29V1.43a1.43,1.43,0,1,0-2.86,0V5.71H9.72A5.71,5.71,0,0,0,4,11.43V65.2a5.71,5.71,0,0,0,5.71,5.71H61.14a5.71,5.71,0,0,0,5.71-5.71V11.43a5.71,5.71,0,0,0-5.71-5.71" />
  </g>
  <path
     id="path4531"
     d="m 6.9668816,15.419347 c 0,-2.725378 0.1334794,-4.633127 0.35876,-5.127564 C 7.9113244,9.0063493 9.0069421,8.6485427 12.357308,8.6485427 h 3.017879 v 2.4924623 c 0,2.705193 0.237374,3.213174 1.501483,3.213174 1.264109,0 1.501483,-0.507981 1.501483,-3.213174 V 8.6485427 h 16.966759 16.96676 V 10.83395 c 0,2.465808 0.49339,3.520229 1.647211,3.520229 1.296725,0 1.656051,-0.721389 1.656051,-3.324713 V 8.6485427 h 3.130073 c 2.929289,0 3.189342,0.049871 4.054005,0.777436 l 0.923931,0.7774363 v 4.778051 4.778052 H 35.344912 6.9668816 Z"
     style="fill:#ffffff;fill-opacity:1;stroke:#218e5d;stroke-width:0;stroke-miterlimit:4;stroke-dasharray:none;stroke-opacity:1" />
  <path
     id="path4533"
     d="M 7.7443176,66.883046 6.9668816,65.959117 V 44.510949 23.062781 H 35.344912 63.722943 v 21.635006 21.635007 l -0.737093,0.73709 -0.73709,0.737093 H 35.385257 8.5217537 Z M 32.65917,57.151318 c 2.949092,-1.442856 4.299618,-4.687882 3.331933,-8.005925 -0.50366,-1.726974 -2.084264,-3.560366 -3.069462,-3.560366 -0.270951,0 -0.03523,-0.364564 0.59155,-0.914883 0.573097,-0.503186 1.273808,-1.521879 1.557136,-2.263763 1.003038,-2.626416 -0.401062,-5.906632 -3.018757,-7.052328 -2.794305,-1.222994 -6.223831,-0.902407 -8.208146,0.767283 -0.986413,0.830012 -1.991877,2.959146 -2.306503,4.884168 l -0.208592,1.27626 h 1.489498 c 1.488141,0 1.489666,-0.001 1.67433,-1.126112 0.591813,-3.605695 4.291111,-5.12023 6.794476,-2.781737 0.728433,0.680458 0.905165,1.091484 0.905165,2.105144 0,2.387654 -1.621907,3.904782 -4.174462,3.904782 h -1.230877 v 1.351335 1.351334 h 1.666544 c 0.917256,0 2.070855,0.209078 2.565801,0.465024 1.935093,1.000676 2.663741,3.819092 1.486504,5.749816 -0.796756,1.306717 -1.764218,1.879887 -3.52511,2.088437 -2.466581,0.292132 -4.276796,-1.063567 -4.940698,-3.70016 -0.323654,-1.285348 -0.341989,-1.299854 -1.642992,-1.299854 h -1.315685 v 1.292373 c 0,1.755103 1.231221,4.14429 2.638116,5.119269 2.326031,1.611942 6.061871,1.758153 8.940231,0.349903 z M 48.257667,46.18562 V 34.6242 l -1.089554,-0.09102 c -0.962069,-0.08037 -1.112989,0.0023 -1.289834,0.706946 -0.497003,1.980218 -2.094989,3.179607 -4.752657,3.567168 -1.425039,0.20781 -1.426409,0.209144 -1.426409,1.390796 v 1.182786 h 2.852818 2.852818 v 8.274611 8.27461 l 1.426409,-0.09153 1.426409,-0.09153 z"
     style="fill:#ffffff;fill-opacity:1;stroke:#218e5d;stroke-width:0;stroke-miterlimit:4;stroke-dasharray:none;stroke-opacity:1" />
</svg>
