<!-- Optimised/Generated by IcoMoon.io -->
<svg version="1.1" xmlns="http://www.w3.org/2000/svg" width="32" height="32" viewBox="0 0 32 32">
<title>camera</title>
<path d="M28.93 15.998h-1.436v1.436h1.436zM27.494 20.319h1.436v-1.445h-1.436zM30.365 0.199h-22.987c-0.793 0-1.436 0.643-1.436 1.436v0 7.184c0 0.396 0.321 0.718 0.718 0.718s0.718-0.321 0.718-0.718v0-5.748c0-0.793 0.643-1.436 1.436-1.436v0h2.872v6.466c0 0.396 0.321 0.718 0.718 0.718s0.718-0.321 0.718-0.718v-6.466h11.496v9.338c0 0.396 0.321 0.718 0.718 0.718s0.718-0.321 0.718-0.718v-9.338h2.872c0.001 0 0.003 0 0.005 0 0.793 0 1.436 0.643 1.436 1.436 0 0 0 0 0 0v0 9.338h-2.154c-0.396 0-0.718 0.321-0.718 0.718s0.321 0.718 0.718 0.718h2.154v9.338c0 0.793-0.643 1.436-1.436 1.436v0h-0.718c-0.396 0-0.718 0.321-0.718 0.718s0.321 0.718 0.718 0.718h2.154c0.793 0 1.436-0.643 1.436-1.436v0-22.983c0-0.793-0.643-1.436-1.436-1.436v0zM28.93 3.070h-1.436v1.445h1.436zM27.494 10.254h1.436v-1.44h-1.436zM10.254 3.070h-1.44v1.445h1.436zM27.494 23.182h1.436v-1.436h-1.436zM27.494 7.378h1.436v-1.436h-1.436zM21.746 20.319c-0.396 0-0.718 0.321-0.718 0.718s0.321 0.718 0.718 0.718c0.396 0 0.718-0.321 0.718-0.718v0c0-0.396-0.321-0.718-0.718-0.718v0zM13.126 26.053c-2.379 0-4.308-1.929-4.308-4.308s1.929-4.308 4.308-4.308c2.379 0 4.308 1.929 4.308 4.308v0c0 2.379-1.929 4.308-4.308 4.308v0zM13.126 15.998c-3.175 0-5.748 2.573-5.748 5.748s2.573 5.748 5.748 5.748c3.175 0 5.748-2.573 5.748-5.748v0c0-3.175-2.573-5.748-5.748-5.748v0zM8.818 7.378h1.436v-1.436h-1.436zM24.622 28.925c0 0.793-0.643 1.436-1.436 1.436h-20.116c-0.793 0-1.436-0.643-1.436-1.436v0-12.927c0-0.793 0.643-1.436 1.436-1.436v0h2.872c2.872 0 2.872-2.872 5.030-2.872h4.308c2.154 0 2.154 2.872 5.030 2.872h2.872c0.793 0 1.436 0.643 1.436 1.436v0zM23.186 13.121h-2.867c-2.154 0-2.154-2.872-5.030-2.872h-4.317c-2.872 0-2.872 2.872-5.030 2.872h-2.872c0 0 0 0 0 0-1.586 0-2.872 1.286-2.872 2.872 0 0.002 0 0.003 0 0.005v-0 12.932c0 1.586 1.286 2.872 2.872 2.872h20.111c1.586 0 2.872-1.286 2.872-2.872v0-12.932c0-1.586-1.286-2.872-2.872-2.872v0zM13.126 23.182c-0.793 0-1.436-0.643-1.436-1.436s0.643-1.436 1.436-1.436c0.793 0 1.436 0.643 1.436 1.436v0c0 0.793-0.643 1.436-1.436 1.436v0zM13.126 18.869c-1.586 0-2.872 1.286-2.872 2.872s1.286 2.872 2.872 2.872c1.586 0 2.872-1.286 2.872-2.872v0c0-1.586-1.286-2.872-2.872-2.872v0zM21.746 15.998c-0.793 0-1.436 0.643-1.436 1.436s0.643 1.436 1.436 1.436c0.793 0 1.436-0.643 1.436-1.436v0c0-0.793-0.643-1.436-1.436-1.436v0z"></path>
</svg>
