<svg data-name="Layer 1" xmlns="http://www.w3.org/2000/svg" xmlns:xlink="http://www.w3.org/1999/xlink" viewBox="0 0 70.87 70.87"><defs><style>.cls-1{fill:none;}.cls-2{clip-path:url(#clip-path);}.cls-3{fill:#f4971b;}.cls-4{fill:#1d1d1b;}</style><clipPath><rect class="cls-1" y="8.92" width="70.87" height="53.02"/></clipPath></defs><title>icons-collected</title><g class="cls-2"><path class="cls-3" d="M24.5,54.4,6.11,36a2,2,0,1,0-2.8,2.8L23.13,58.64a2,2,0,0,0,2.83,0h0l33.1-34.68h0l2.83-3h0l5.7-6h0a1.94,1.94,0,0,0,.56-1.36,2,2,0,0,0-3.41-1.36h0l-5.1,5.34v0l-2.76,2.9v0Z"/><path class="cls-4" d="M24.53,61.94a4.71,4.71,0,0,1-3.35-1.4L1.38,40.74A4.71,4.71,0,0,1,8,34.08L24.45,50.5,57.64,15.7l.26-.24,4.86-5.08a4.7,4.7,0,0,1,8.11,3.25,4.64,4.64,0,0,1-1.06,3,2.35,2.35,0,0,1-.23.28l-5.52,5.78-.18.2L27.93,60.49a2.12,2.12,0,0,1-.27.24A4.7,4.7,0,0,1,24.53,61.94Z"/></g></svg>