<svg data-name="Layer 1" xmlns="http://www.w3.org/2000/svg" viewBox="0 0 70.87 70.87"><defs><clipPath id="a"><path fill="none" d="M0 8.92h70.87v53.02H0z"/></clipPath></defs><g clip-path="url(#a)"><path d="M24.5 54.4L6.11 36a2 2 0 10-2.8 2.8l19.82 19.84a2 2 0 002.83 0l33.1-34.68 2.83-3 5.7-6a1.94 1.94 0 00.56-1.36 2 2 0 00-3.41-1.36l-5.1 5.34-2.76 2.9z"/><path d="M24.53 61.94a4.71 4.71 0 01-3.35-1.4l-19.8-19.8A4.71 4.71 0 018 34.08L24.45 50.5l33.19-34.8.26-.24 4.86-5.08a4.7 4.7 0 018.11 3.25 4.64 4.64 0 01-1.06 3 2.35 2.35 0 01-.23.28l-5.52 5.78-.18.2-35.95 37.6a2.12 2.12 0 01-.27.24 4.7 4.7 0 01-3.13 1.21z"/></g></svg>