<!-- Optimised/Generated by IcoMoon.io -->
<svg version="1.1" xmlns="http://www.w3.org/2000/svg" width="32" height="32" viewBox="0 0 32 32">
<title>check-mark</title>
<path fill="#f4971b" d="M11.063 24.563l-8.304-8.308c-0.167-0.22-0.428-0.361-0.722-0.361-0.499 0-0.903 0.404-0.903 0.903 0 0.294 0.141 0.556 0.359 0.721l0.002 0.002 8.949 8.958c0.163 0.164 0.389 0.265 0.639 0.265s0.475-0.101 0.639-0.265v0l18.797-19.723c0.156-0.158 0.252-0.375 0.253-0.614v-0c-0.014-0.487-0.413-0.877-0.903-0.877-0.249 0-0.474 0.1-0.637 0.263l0-0-2.303 2.411-1.246 1.309z"></path>
<path fill="#1d1d1b" d="M11.076 27.968c-0.592-0-1.127-0.242-1.512-0.632l-8.941-8.941c-0.319-0.37-0.513-0.855-0.513-1.385 0-1.175 0.952-2.127 2.127-2.127 0.526 0 1.007 0.191 1.378 0.507l-0.003-0.002 7.428 7.414 17.298-18.115c0.388-0.408 0.934-0.662 1.54-0.662 1.172 0 2.122 0.95 2.122 2.122 0 0.002 0 0.005 0 0.007v-0c0 0.006 0 0.014 0 0.022 0 0.508-0.181 0.974-0.482 1.336l0.003-0.003c-0.033 0.047-0.067 0.088-0.104 0.127l-2.492 2.61-0.081 0.090-16.233 16.978c-0.037 0.039-0.077 0.075-0.119 0.107l-0.002 0.002c-0.373 0.337-0.869 0.544-1.413 0.546h-0z"></path>
</svg>
