<svg data-name="Layer 1" xmlns="http://www.w3.org/2000/svg" viewBox="0 0 70.87 70.87"><defs><clipPath id="a"><path fill="none" d="M.43.44h70v69.99h-70z"/></clipPath></defs><g clip-path="url(#a)"><path d="M35.41 9.7a2.34 2.34 0 00-2.31 2.36v23.08a2.28 2.28 0 000 .54 1.78 1.78 0 000 .2v.22a1.38 1.38 0 000 .17 2.32 2.32 0 00.85 1l15.2 15.2a2.33 2.33 0 003.52-3.07l-.21-.21-14.69-14.73V12.08a2.33 2.33 0 00-2.29-2.38h-.07m0-4.64A30.37 30.37 0 1114 14a30.25 30.25 0 0121.43-8.94m0-4.62a35 35 0 1024.76 10.23A34.9 34.9 0 0035.43.44"/></g></svg>