<!-- Optimised/Generated by IcoMoon.io -->
<svg version="1.1" xmlns="http://www.w3.org/2000/svg" width="32" height="32" viewBox="0 0 32 32">
<title>clock</title>
<path d="M15.989 4.38c-0.578 0.008-1.043 0.478-1.043 1.056 0 0.003 0 0.006 0 0.010v-0 10.421c-0.005 0.037-0.007 0.079-0.007 0.122s0.003 0.085 0.008 0.127l-0.001-0.005c-0.001 0.014-0.001 0.029-0.001 0.045s0 0.032 0.001 0.047l-0-0.002v0.045s0 0.036 0 0.054v0c-0.001 0.011-0.001 0.025-0.001 0.038s0 0.027 0.001 0.040l-0-0.002c0.084 0.187 0.216 0.341 0.38 0.449l0.004 0.002 6.863 6.863c0.194 0.222 0.478 0.361 0.795 0.361 0.582 0 1.054-0.472 1.054-1.054 0-0.266-0.098-0.509-0.261-0.694l0.001 0.001-0.095-0.095-6.633-6.651v-10.105c0-0.007 0-0.015 0-0.023 0-0.575-0.461-1.042-1.033-1.052h-0.033zM15.989 2.285c0.015-0 0.032-0 0.050-0 7.573 0 13.713 6.14 13.713 13.713s-6.14 13.713-13.713 13.713c-7.573 0-13.713-6.14-13.713-13.713 0-3.777 1.527-7.197 3.997-9.677l-0 0c2.471-2.489 5.893-4.032 9.675-4.037h0.001zM15.998 0.199c-8.722 0.008-15.789 7.081-15.789 15.804 0 8.728 7.075 15.804 15.804 15.804s15.804-7.075 15.804-15.804c0-4.369-1.773-8.324-4.638-11.184l-0-0c-2.852-2.854-6.793-4.619-11.147-4.619-0.012 0-0.023 0-0.035 0h0.002z"></path>
</svg>
