<?xml version="1.0" encoding="UTF-8" standalone="no"?>
<svg
   xmlns:dc="http://purl.org/dc/elements/1.1/"
   xmlns:cc="http://creativecommons.org/ns#"
   xmlns:rdf="http://www.w3.org/1999/02/22-rdf-syntax-ns#"
   xmlns:svg="http://www.w3.org/2000/svg"
   xmlns="http://www.w3.org/2000/svg"
   height="31.987"
   width="32.002998"
   id="svg10"
   y="0px"
   x="0px"
   viewBox="0 0 32.002998 31.987"
   version="1.1">
  <metadata
     id="metadata16">
    <rdf:RDF>
      <cc:Work
         rdf:about="">
        <dc:format>image/svg+xml</dc:format>
        <dc:type
           rdf:resource="http://purl.org/dc/dcmitype/StillImage" />
        <dc:title>download</dc:title>
      </cc:Work>
    </rdf:RDF>
  </metadata>
  <defs
     id="defs14" />
  <title
     id="title2">download</title>
  <path
     id="path4"
     d="m 15.985,0 c -0.623,0.01 -1.125,0.517 -1.125,1.142 0,0.006 0,0.011 0,0.017 V 1.158 21.238 L 7.674,14.052 C 7.467,13.845 7.182,13.718 6.867,13.718 c -0.631,0 -1.142,0.512 -1.142,1.142 0,0.316 0.128,0.601 0.335,0.808 l 9.135,9.135 c 0.003,0.003 0.008,0.007 0.013,0.011 l 0.002,0.002 c 0.011,0.011 0.023,0.022 0.035,0.033 l 0.001,0.001 c 0.015,0.014 0.031,0.027 0.047,0.041 l 0.002,0.002 c 0.008,0.006 0.019,0.014 0.03,0.022 l 0.003,0.002 c 0.015,0.011 0.034,0.025 0.054,0.038 l 0.005,0.003 c 0.01,0.007 0.025,0.016 0.041,0.025 l 0.005,0.003 c 0.012,0.007 0.029,0.017 0.047,0.026 l 0.006,0.003 c 0.009,0.005 0.025,0.013 0.041,0.019 l 0.007,0.003 c 0.01,0.005 0.028,0.013 0.046,0.021 l 0.007,0.003 c 0.011,0.005 0.031,0.011 0.051,0.018 l 0.008,0.002 c 0.008,0.003 0.024,0.009 0.04,0.014 l 0.008,0.002 c 0.011,0.003 0.031,0.009 0.051,0.013 l 0.007,0.001 c 0.01,0.003 0.029,0.007 0.047,0.01 l 0.007,0.001 c 0.011,0.002 0.03,0.005 0.049,0.007 l 0.006,10e-4 c 0.014,0.002 0.034,0.004 0.054,0.005 h 0.003 c 0.018,10e-4 0.038,0.002 0.059,0.002 h 10e-4 c 0.008,0 0.018,0.001 0.027,0.001 0.009,0 0.019,0 0.029,-0.001 h -10e-4 c 0.035,-0.001 0.069,-0.003 0.102,-0.007 l -0.005,0.001 c 0.009,-0.001 0.011,-0.002 0.014,-0.002 l -0.007,10e-4 c 0.03,-0.004 0.054,-0.008 0.078,-0.013 l -0.007,10e-4 c 0.026,-0.005 0.044,-0.009 0.062,-0.013 l -0.008,0.002 c 0.022,-0.005 0.037,-0.009 0.051,-0.013 l -0.008,0.002 c 0.031,-0.009 0.054,-0.016 0.076,-0.023 l -0.008,0.002 c 0.022,-0.007 0.035,-0.013 0.049,-0.018 l -0.007,0.003 c 0.028,-0.011 0.048,-0.019 0.067,-0.029 l -0.007,0.003 c 0.037,-0.017 0.065,-0.031 0.093,-0.046 l -0.006,0.003 c 0.005,-0.003 0.006,-0.004 0.007,-0.005 l -0.004,0.003 c 0.027,-0.015 0.048,-0.029 0.069,-0.043 l -0.004,0.003 c 0.019,-0.013 0.034,-0.022 0.048,-0.033 l -0.003,0.002 c 0.028,-0.021 0.052,-0.04 0.075,-0.06 l -0.001,0.001 c 0.002,-0.002 0.005,-0.005 0.007,-0.007 v 0 c 0.019,-0.016 0.037,-0.031 0.053,-0.047 l 9.134,-9.134 c 0.214,-0.208 0.346,-0.498 0.346,-0.819 0,-0.631 -0.511,-1.142 -1.142,-1.142 -0.012,0 -0.023,0 -0.035,10e-4 h 0.002 c -0.308,0.009 -0.585,0.139 -0.785,0.344 v 0 l -7.185,7.186 V 1.161 c 0,-0.005 0,-0.01 0,-0.015 0,-0.631 -0.511,-1.142 -1.142,-1.142 -0.006,0 -0.012,0 -0.018,0 h 10e-4 z M 1.158,29.703 c -0.005,0 -0.01,0 -0.016,0 -0.631,0 -1.142,0.511 -1.142,1.142 0,0.631 0.512,1.142 1.142,1.142 0.006,0 0.011,0 0.017,0 h 29.686 c 0.005,0 0.01,0 0.016,0 0.631,0 1.142,-0.511 1.142,-1.142 0,-0.631 -0.511,-1.142 -1.142,-1.142 -0.006,0 -0.011,0 -0.017,0 z" />
</svg>
