<svg xmlns="http://www.w3.org/2000/svg" viewBox="0 0 32.003 31.987"><path d="M15.985 0a1.143 1.143 0 00-1.125 1.142v.017-.001 20.08l-7.186-7.186a1.142 1.142 0 00-1.614 1.616l9.135 9.135.013.011.002.002.035.033.001.001.047.041.002.002.03.022.003.002.054.038.005.003.041.025.005.003.047.026.006.003a.33.33 0 00.041.019l.007.003.046.021.007.003c.011.005.031.011.051.018l.008.002.04.014.008.002c.011.003.031.009.051.013l.007.001.047.01.007.001.049.007.006.001a.629.629 0 00.054.005h.003l.059.002h.001l.027.001.029-.001h-.001c.035-.001.069-.003.102-.007l-.005.001.014-.002-.007.001.078-.013-.007.001.062-.013-.008.002a.905.905 0 00.051-.013l-.008.002.076-.023-.008.002c.022-.007.035-.013.049-.018l-.007.003a.664.664 0 00.067-.029l-.007.003c.037-.017.065-.031.093-.046l-.006.003a.03.03 0 00.007-.005l-.004.003c.027-.015.048-.029.069-.043l-.004.003c.019-.013.034-.022.048-.033l-.003.002c.028-.021.052-.04.075-.06l-.001.001.007-.007c.019-.016.037-.031.053-.047l9.134-9.134a1.142 1.142 0 00-.796-1.961l-.035.001h.002a1.14 1.14 0 00-.785.344l-7.185 7.186V1.161v-.015c0-.631-.511-1.142-1.142-1.142h-.018.001zM1.158 29.703h-.016a1.142 1.142 0 100 2.284H30.861a1.142 1.142 0 100-2.284h-.017z"/></svg>