<?xml version="1.0" encoding="UTF-8" standalone="no"?>
<svg
   xmlns:dc="http://purl.org/dc/elements/1.1/"
   xmlns:cc="http://creativecommons.org/ns#"
   xmlns:rdf="http://www.w3.org/1999/02/22-rdf-syntax-ns#"
   xmlns:svg="http://www.w3.org/2000/svg"
   xmlns="http://www.w3.org/2000/svg"
   xmlns:sodipodi="http://sodipodi.sourceforge.net/DTD/sodipodi-0.dtd"
   xmlns:inkscape="http://www.inkscape.org/namespaces/inkscape"
   data-name="Layer 1"
   viewBox="0 0 95.484779 93.604782"
   x="0px"
   y="0px"
   version="1.1"
   id="svg10"
   sodipodi:docname="drag.svg"
   width="95.484779"
   height="93.604782"
   inkscape:version="0.92.3 (2405546, 2018-03-11)">
  <metadata
     id="metadata16">
    <rdf:RDF>
      <cc:Work
         rdf:about="">
        <dc:format>image/svg+xml</dc:format>
        <dc:type
           rdf:resource="http://purl.org/dc/dcmitype/StillImage" />
        <dc:title>08</dc:title>
      </cc:Work>
    </rdf:RDF>
  </metadata>
  <defs
     id="defs14" />
  <sodipodi:namedview
     pagecolor="#ffffff"
     bordercolor="#666666"
     borderopacity="1"
     objecttolerance="10"
     gridtolerance="10"
     guidetolerance="10"
     inkscape:pageopacity="0"
     inkscape:pageshadow="2"
     inkscape:window-width="640"
     inkscape:window-height="480"
     id="namedview12"
     showgrid="false"
     inkscape:zoom="1.888"
     inkscape:cx="47.74239"
     inkscape:cy="34.30239"
     inkscape:window-x="67"
     inkscape:window-y="0"
     inkscape:window-maximized="0"
     inkscape:current-layer="svg10" />
  <title
     id="title2">08</title>
  <path
     d="m 84.17239,31.87239 a 3.5134207,3.5134207 0 0 0 -5.43,4.46 l 5.77,7 h -33.27 v -32.39 l 7,5.77 a 3.5,3.5 0 1 0 4.46,-5.39 l -12.73,-10.52000005 a 3.5,3.5 0 0 0 -4.46,0 l -12.7,10.51000005 a 3.5,3.5 0 1 0 4.46,5.39 l 7,-5.77 v 32.37 h -33.34 l 5.77,-7 a 3.5,3.5 0 0 0 -5.39,-4.46 l -10.51000005,12.73 a 3.5,3.5 0 0 0 0,4.46 l 10.51000005,12.7 a 3.5134207,3.5134207 0 0 0 5.43,-4.46 l -5.77,-7 h 33.27 v 32.39 l -7,-5.77 a 3.5,3.5 0 1 0 -4.46,5.39 l 12.73,10.52 a 3.5,3.5 0 0 0 4.46,0 l 12.7,-10.51 a 3.5,3.5 0 1 0 -4.46,-5.39 l -7,5.77 v -32.37 h 33.34 l -5.77,7 a 3.5,3.5 0 0 0 5.39,4.46 l 10.51,-12.7 a 3.5,3.5 0 0 0 0,-4.46 z"
     id="path4"
     inkscape:connector-curvature="0" />
</svg>
