<!-- Optimised/Generated by IcoMoon.io -->
<svg version="1.1" xmlns="http://www.w3.org/2000/svg" width="32" height="32" viewBox="0 0 32 32">
<title>drag-n-drop</title>
<path d="M31.812 15.562l-5.122-4.17c-0.116-0.116-0.276-0.188-0.452-0.188-0.352 0-0.638 0.286-0.638 0.638 0 0.002 0 0.003 0 0.005v-0 2.564h-8v-8.002h2.564c0.353-0.001 0.638-0.288 0.638-0.641 0-0.175-0.070-0.334-0.184-0.449l0 0-4.158-5.126c-0.114-0.117-0.274-0.189-0.45-0.189s-0.336 0.072-0.45 0.189l-0 0-4.172 5.12c-0.116 0.116-0.187 0.275-0.187 0.452 0 0.353 0.286 0.638 0.638 0.638 0.001 0 0.002 0 0.003 0h2.564v8h-8v-2.564c-0.002-0.352-0.288-0.637-0.64-0.637-0.175 0-0.334 0.071-0.45 0.185l0-0-5.128 4.158c-0.117 0.114-0.189 0.274-0.189 0.45s0.072 0.336 0.189 0.45l0 0 5.122 4.17c0.116 0.116 0.276 0.188 0.452 0.188 0.352 0 0.638-0.285 0.638-0.638 0-0.002 0-0.003-0-0.005v0-2.564h8v8.002h-2.564c-0.352 0.002-0.637 0.287-0.637 0.64 0 0.175 0.070 0.333 0.183 0.448l-0-0 4.152 5.122c0.114 0.117 0.274 0.189 0.45 0.189s0.336-0.072 0.45-0.189l0-0 4.172-5.122c0.115-0.115 0.187-0.275 0.187-0.451 0-0.352-0.285-0.637-0.637-0.637-0.001 0-0.003 0-0.004 0h-2.564v-8.002h8v2.564c0.001 0.353 0.287 0.639 0.64 0.639 0.175 0 0.334-0.071 0.45-0.185l-0 0 5.122-4.152c0.123-0.114 0.2-0.276 0.2-0.456 0-0.174-0.072-0.332-0.187-0.444l-0-0z"></path>
</svg>
