<?xml version="1.0" encoding="UTF-8" standalone="no"?>
<svg
   xmlns:dc="http://purl.org/dc/elements/1.1/"
   xmlns:cc="http://creativecommons.org/ns#"
   xmlns:rdf="http://www.w3.org/1999/02/22-rdf-syntax-ns#"
   xmlns:svg="http://www.w3.org/2000/svg"
   xmlns="http://www.w3.org/2000/svg"
   xmlns:sodipodi="http://sodipodi.sourceforge.net/DTD/sodipodi-0.dtd"
   xmlns:inkscape="http://www.inkscape.org/namespaces/inkscape"
   version="1.1"
   x="0px"
   y="0px"
   viewBox="0 0 25.98732 70.553139"
   enable-background="new 0 0 100 100"
   xml:space="preserve"
   id="svg40"
   sodipodi:docname="drag-dots.svg"
   width="25.98732"
   height="70.553139"
   inkscape:version="0.92.3 (2405546, 2018-03-11)"><metadata
     id="metadata46"><rdf:RDF><cc:Work
         rdf:about=""><dc:format>image/svg+xml</dc:format><dc:type
           rdf:resource="http://purl.org/dc/dcmitype/StillImage" /><dc:title></dc:title></cc:Work></rdf:RDF></metadata><defs
     id="defs44" /><sodipodi:namedview
     pagecolor="#ffffff"
     bordercolor="#666666"
     borderopacity="1"
     objecttolerance="10"
     gridtolerance="10"
     guidetolerance="10"
     inkscape:pageopacity="0"
     inkscape:pageshadow="2"
     inkscape:window-width="640"
     inkscape:window-height="480"
     id="namedview42"
     showgrid="false"
     inkscape:zoom="1.888"
     inkscape:cx="12.99409"
     inkscape:cy="25.553885"
     inkscape:window-x="67"
     inkscape:window-y="0"
     inkscape:window-maximized="0"
     inkscape:current-layer="svg40" /><g
     id="g34"
     transform="translate(-37.00591,-17.500749)"><g
       id="g32"><g
         id="g6"><path
           d="m 48.381,23.425 c -0.061,0.498 -0.123,1.012 -0.167,1.519 -0.02,0.238 -0.03,0.538 -0.039,0.857 -0.026,0.868 -0.08,2.673 -0.653,2.839 -0.299,0.087 -0.795,0.034 -1.204,-0.025 -0.347,-0.05 -0.675,-0.06 -1.03,-0.069 -0.171,-0.004 -0.345,-0.007 -0.527,-0.021 -0.663,-0.047 -1.338,-0.054 -1.851,-0.054 l -1.563,0.007 c -1.206,0 -2.598,-0.031 -3.909,-0.45 -0.351,-0.907 -0.349,-1.893 -0.346,-2.934 0.001,-0.368 0.002,-0.747 -0.012,-1.123 l -0.014,-0.373 c -0.045,-1.242 -0.092,-2.526 -0.031,-3.771 0.047,-0.955 0.143,-1.577 0.493,-1.933 0.28,-0.286 0.966,-0.428 1.71,-0.386 0.79,0.047 1.6,0.071 2.476,0.095 0.529,0.015 1.059,0.031 1.587,0.054 0.666,0.029 1.32,0.005 1.985,-0.02 0.409,-0.016 0.832,-0.032 1.251,-0.032 l 0.358,-0.001 c 1.317,0 1.414,0.177 1.47,0.492 0.035,0.192 0.028,0.441 0.02,0.723 -0.006,0.225 -0.01,0.457 0.003,0.677 0.018,0.295 0.058,0.605 0.099,0.904 l 0.114,-0.015 c 0,10e-4 0,10e-4 0,10e-4 l -0.114,0.016 c 0.054,0.405 0.106,0.788 0.087,1.116 -0.036,0.638 -0.116,1.283 -0.193,1.907 z"
           id="path2"
           inkscape:connector-curvature="0" /><path
           d="m 62.943,20.406 c 0.042,1 0.1,1.978 -0.028,3.019 -0.061,0.498 -0.123,1.012 -0.167,1.519 -0.02,0.238 -0.03,0.538 -0.039,0.857 -0.026,0.868 -0.08,2.673 -0.653,2.839 -0.299,0.087 -0.795,0.034 -1.204,-0.025 -0.347,-0.05 -0.675,-0.06 -1.03,-0.069 -0.171,-0.004 -0.345,-0.007 -0.527,-0.021 -0.663,-0.047 -1.338,-0.054 -1.851,-0.054 l -1.563,0.007 c -1.206,0 -2.598,-0.031 -3.909,-0.45 -0.351,-0.907 -0.349,-1.893 -0.346,-2.934 0.001,-0.368 0.002,-0.747 -0.012,-1.123 L 51.6,23.598 c -0.045,-1.242 -0.092,-2.526 -0.031,-3.771 0.047,-0.955 0.143,-1.577 0.493,-1.933 0.098,-0.1 0.257,-0.175 0.438,-0.238 1.179,0.211 2.343,0.235 3.381,0.235 l 1.563,-0.007 c 0.468,0 1.082,0.005 1.684,0.048 0.219,0.016 0.43,0.021 0.645,0.027 0.254,0.006 0.494,0.009 0.748,0.046 0.329,0.047 0.715,0.098 1.119,0.098 0.385,0 0.731,-0.046 1.057,-0.14 0.052,-0.015 0.089,-0.045 0.139,-0.063 0.032,0.058 0.049,0.123 0.062,0.196 0.035,0.191 0.028,0.441 0.02,0.723 -0.014,0.543 0.003,1.068 0.025,1.587 z"
           id="path4"
           inkscape:connector-curvature="0" /></g><g
         id="g12"><path
           d="m 48.381,38.226 c -0.061,0.498 -0.123,1.012 -0.167,1.519 -0.02,0.238 -0.03,0.538 -0.039,0.857 -0.026,0.868 -0.08,2.673 -0.653,2.839 -0.299,0.087 -0.795,0.034 -1.204,-0.025 -0.347,-0.05 -0.675,-0.06 -1.03,-0.069 -0.171,-0.004 -0.345,-0.007 -0.527,-0.021 -0.663,-0.047 -1.338,-0.054 -1.851,-0.054 l -1.563,0.007 c -1.206,0 -2.598,-0.031 -3.909,-0.45 -0.351,-0.907 -0.349,-1.893 -0.346,-2.934 0.001,-0.368 0.002,-0.747 -0.012,-1.123 l -0.014,-0.373 c -0.045,-1.242 -0.092,-2.526 -0.031,-3.771 0.047,-0.955 0.143,-1.577 0.493,-1.933 0.28,-0.286 0.966,-0.428 1.71,-0.386 0.79,0.047 1.6,0.071 2.476,0.095 0.529,0.015 1.059,0.031 1.587,0.054 0.666,0.029 1.32,0.005 1.985,-0.02 0.409,-0.016 0.832,-0.032 1.251,-0.032 l 0.358,-10e-4 c 1.317,0 1.414,0.177 1.47,0.492 0.035,0.192 0.028,0.441 0.02,0.723 -0.006,0.225 -0.01,0.457 0.003,0.677 0.018,0.295 0.058,0.605 0.099,0.904 l 0.114,-0.015 c 0,10e-4 0,10e-4 0,10e-4 l -0.114,0.016 c 0.054,0.405 0.106,0.788 0.087,1.116 -0.036,0.637 -0.116,1.282 -0.193,1.907 z"
           id="path8"
           inkscape:connector-curvature="0" /><path
           d="m 62.943,35.206 c 0.042,1 0.1,1.978 -0.028,3.019 -0.061,0.498 -0.123,1.012 -0.167,1.519 -0.02,0.238 -0.03,0.538 -0.039,0.857 -0.026,0.868 -0.08,2.673 -0.653,2.839 -0.299,0.087 -0.795,0.034 -1.204,-0.025 -0.347,-0.05 -0.675,-0.06 -1.03,-0.069 -0.171,-0.004 -0.345,-0.007 -0.527,-0.021 -0.663,-0.047 -1.338,-0.054 -1.851,-0.054 l -1.563,0.007 c -1.206,0 -2.598,-0.031 -3.909,-0.45 -0.351,-0.907 -0.349,-1.893 -0.346,-2.934 0.001,-0.368 0.002,-0.747 -0.012,-1.123 L 51.6,38.398 c -0.045,-1.242 -0.092,-2.526 -0.031,-3.771 0.047,-0.955 0.143,-1.577 0.493,-1.933 0.098,-0.1 0.257,-0.175 0.438,-0.238 1.179,0.211 2.343,0.235 3.381,0.235 l 1.563,-0.007 c 0.468,0 1.082,0.005 1.684,0.048 0.219,0.016 0.43,0.021 0.645,0.027 0.254,0.006 0.494,0.009 0.748,0.046 0.329,0.047 0.715,0.098 1.119,0.098 0.385,0 0.731,-0.046 1.057,-0.14 0.052,-0.015 0.089,-0.045 0.139,-0.063 0.032,0.058 0.049,0.123 0.062,0.196 0.035,0.191 0.028,0.441 0.02,0.723 -0.014,0.543 0.003,1.068 0.025,1.587 z"
           id="path10"
           inkscape:connector-curvature="0" /></g><g
         id="g18"><path
           d="m 48.381,53.026 c -0.061,0.498 -0.123,1.012 -0.167,1.519 -0.02,0.238 -0.03,0.538 -0.039,0.857 -0.026,0.868 -0.08,2.673 -0.653,2.839 -0.299,0.087 -0.795,0.034 -1.204,-0.025 -0.347,-0.05 -0.675,-0.06 -1.03,-0.069 -0.171,-0.004 -0.345,-0.007 -0.527,-0.021 -0.663,-0.047 -1.338,-0.054 -1.851,-0.054 l -1.563,0.007 c -1.206,0 -2.598,-0.031 -3.909,-0.45 -0.351,-0.907 -0.349,-1.893 -0.346,-2.934 0.001,-0.368 0.002,-0.747 -0.012,-1.123 l -0.014,-0.373 c -0.045,-1.242 -0.092,-2.526 -0.031,-3.771 0.047,-0.955 0.143,-1.577 0.493,-1.933 0.28,-0.286 0.966,-0.428 1.71,-0.386 0.79,0.047 1.6,0.071 2.476,0.095 0.529,0.015 1.059,0.031 1.587,0.054 0.666,0.029 1.32,0.005 1.985,-0.02 0.409,-0.016 0.832,-0.032 1.251,-0.032 l 0.358,-0.001 c 1.317,0 1.414,0.177 1.47,0.492 0.035,0.192 0.028,0.441 0.02,0.723 -0.006,0.225 -0.01,0.457 0.003,0.677 0.018,0.295 0.058,0.605 0.099,0.904 l 0.114,-0.015 v 0.001 l -0.114,0.016 c 0.054,0.405 0.106,0.788 0.087,1.116 -0.036,0.638 -0.116,1.283 -0.193,1.907 z"
           id="path14"
           inkscape:connector-curvature="0" /><path
           d="m 62.943,50.007 c 0.042,1 0.1,1.978 -0.028,3.019 -0.061,0.498 -0.123,1.012 -0.167,1.519 -0.02,0.238 -0.03,0.538 -0.039,0.857 -0.026,0.868 -0.08,2.673 -0.653,2.839 -0.299,0.087 -0.795,0.034 -1.204,-0.025 -0.347,-0.05 -0.675,-0.06 -1.03,-0.069 -0.171,-0.004 -0.345,-0.007 -0.527,-0.021 -0.663,-0.047 -1.338,-0.054 -1.851,-0.054 l -1.563,0.007 c -1.206,0 -2.598,-0.031 -3.909,-0.45 -0.351,-0.907 -0.349,-1.893 -0.346,-2.934 0.001,-0.368 0.002,-0.747 -0.012,-1.123 L 51.6,53.199 c -0.045,-1.242 -0.092,-2.526 -0.031,-3.771 0.047,-0.955 0.143,-1.577 0.493,-1.933 0.098,-0.1 0.257,-0.175 0.438,-0.238 1.179,0.211 2.343,0.235 3.381,0.235 l 1.563,-0.007 c 0.468,0 1.082,0.005 1.684,0.048 0.219,0.016 0.43,0.021 0.645,0.027 0.254,0.006 0.494,0.009 0.748,0.046 0.329,0.047 0.715,0.098 1.119,0.098 0.385,0 0.731,-0.046 1.057,-0.14 0.052,-0.015 0.089,-0.045 0.139,-0.063 0.032,0.058 0.049,0.123 0.062,0.196 0.035,0.191 0.028,0.441 0.02,0.723 -0.014,0.543 0.003,1.068 0.025,1.587 z"
           id="path16"
           inkscape:connector-curvature="0" /></g><g
         id="g24"><path
           d="m 48.381,67.827 c -0.061,0.498 -0.123,1.012 -0.167,1.519 -0.02,0.238 -0.03,0.538 -0.039,0.857 -0.026,0.868 -0.08,2.673 -0.653,2.839 -0.299,0.087 -0.795,0.034 -1.204,-0.025 -0.347,-0.05 -0.675,-0.06 -1.03,-0.069 -0.171,-0.004 -0.345,-0.007 -0.527,-0.021 -0.663,-0.047 -1.338,-0.054 -1.851,-0.054 l -1.563,0.007 c -1.206,0 -2.598,-0.031 -3.909,-0.45 -0.351,-0.907 -0.349,-1.893 -0.346,-2.934 0.001,-0.368 0.002,-0.747 -0.012,-1.123 L 37.066,68 c -0.045,-1.242 -0.092,-2.526 -0.031,-3.771 0.047,-0.955 0.143,-1.577 0.493,-1.933 0.28,-0.286 0.966,-0.428 1.71,-0.386 0.79,0.047 1.6,0.071 2.476,0.095 0.529,0.015 1.059,0.031 1.587,0.054 0.666,0.029 1.32,0.005 1.985,-0.02 0.409,-0.016 0.832,-0.032 1.251,-0.032 l 0.358,-10e-4 c 1.317,0 1.414,0.177 1.47,0.492 0.035,0.192 0.028,0.441 0.02,0.723 -0.006,0.225 -0.01,0.457 0.003,0.677 0.018,0.295 0.058,0.605 0.099,0.904 l 0.114,-0.015 c 0,10e-4 0,10e-4 0,10e-4 l -0.114,0.016 c 0.054,0.405 0.106,0.788 0.087,1.116 -0.036,0.637 -0.116,1.282 -0.193,1.907 z"
           id="path20"
           inkscape:connector-curvature="0" /><path
           d="m 62.943,64.808 c 0.042,1 0.1,1.978 -0.028,3.019 -0.061,0.498 -0.123,1.012 -0.167,1.519 -0.02,0.238 -0.03,0.538 -0.039,0.857 -0.026,0.868 -0.08,2.673 -0.653,2.839 -0.299,0.087 -0.795,0.034 -1.204,-0.025 -0.347,-0.05 -0.675,-0.06 -1.03,-0.069 -0.171,-0.004 -0.345,-0.007 -0.527,-0.021 -0.663,-0.047 -1.338,-0.054 -1.851,-0.054 l -1.563,0.007 c -1.206,0 -2.598,-0.031 -3.909,-0.45 -0.351,-0.907 -0.349,-1.893 -0.346,-2.934 0.001,-0.368 0.002,-0.747 -0.012,-1.123 L 51.6,68 c -0.045,-1.242 -0.092,-2.526 -0.031,-3.771 0.047,-0.955 0.143,-1.577 0.493,-1.933 0.098,-0.1 0.257,-0.175 0.438,-0.238 1.179,0.211 2.343,0.235 3.381,0.235 l 1.563,-0.007 c 0.468,0 1.082,0.005 1.684,0.048 0.219,0.016 0.43,0.021 0.645,0.027 0.254,0.006 0.494,0.009 0.748,0.046 0.329,0.047 0.715,0.098 1.119,0.098 0.385,0 0.731,-0.046 1.057,-0.14 0.052,-0.015 0.089,-0.045 0.139,-0.063 0.032,0.058 0.049,0.123 0.062,0.196 0.035,0.191 0.028,0.441 0.02,0.723 -0.014,0.542 0.003,1.067 0.025,1.587 z"
           id="path22"
           inkscape:connector-curvature="0" /></g><g
         id="g30"><path
           d="m 48.381,82.793 c -0.061,0.498 -0.123,1.012 -0.167,1.519 -0.02,0.238 -0.03,0.538 -0.039,0.857 -0.026,0.868 -0.08,2.673 -0.653,2.839 -0.299,0.087 -0.795,0.034 -1.204,-0.025 -0.347,-0.05 -0.675,-0.06 -1.03,-0.069 -0.171,-0.004 -0.345,-0.007 -0.527,-0.021 -0.663,-0.047 -1.338,-0.054 -1.851,-0.054 l -1.563,0.007 c -1.206,0 -2.598,-0.031 -3.909,-0.45 -0.351,-0.907 -0.349,-1.893 -0.346,-2.934 0.001,-0.368 0.002,-0.747 -0.012,-1.123 l -0.014,-0.373 c -0.045,-1.242 -0.092,-2.526 -0.031,-3.771 0.047,-0.955 0.143,-1.577 0.493,-1.933 0.28,-0.286 0.966,-0.428 1.71,-0.386 0.79,0.047 1.6,0.071 2.476,0.095 0.529,0.015 1.059,0.031 1.587,0.054 0.666,0.029 1.32,0.005 1.985,-0.02 0.409,-0.016 0.832,-0.032 1.251,-0.032 l 0.358,-0.001 c 1.317,0 1.414,0.177 1.47,0.492 0.035,0.192 0.028,0.441 0.02,0.723 -0.006,0.225 -0.01,0.457 0.003,0.677 0.018,0.295 0.058,0.605 0.099,0.904 l 0.114,-0.015 c 0,0.001 0,0.001 0,0.001 l -0.114,0.016 c 0.054,0.405 0.106,0.788 0.087,1.116 -0.036,0.637 -0.116,1.282 -0.193,1.907 z"
           id="path26"
           inkscape:connector-curvature="0" /><path
           d="m 62.943,79.773 c 0.042,1 0.1,1.978 -0.028,3.019 -0.061,0.498 -0.123,1.012 -0.167,1.519 -0.02,0.238 -0.03,0.538 -0.039,0.857 -0.026,0.868 -0.08,2.673 -0.653,2.839 -0.299,0.087 -0.795,0.034 -1.204,-0.025 -0.347,-0.05 -0.675,-0.06 -1.03,-0.069 -0.171,-0.004 -0.345,-0.007 -0.527,-0.021 -0.663,-0.047 -1.338,-0.054 -1.851,-0.054 l -1.563,0.007 c -1.206,0 -2.598,-0.031 -3.909,-0.45 -0.351,-0.907 -0.349,-1.893 -0.346,-2.934 0.001,-0.368 0.002,-0.747 -0.012,-1.123 L 51.6,82.965 c -0.045,-1.242 -0.092,-2.526 -0.031,-3.771 0.047,-0.955 0.143,-1.577 0.493,-1.933 0.098,-0.1 0.257,-0.175 0.438,-0.238 1.179,0.211 2.343,0.235 3.381,0.235 l 1.563,-0.007 c 0.468,0 1.082,0.005 1.684,0.048 0.219,0.016 0.43,0.021 0.645,0.027 0.254,0.006 0.494,0.009 0.748,0.046 0.329,0.047 0.715,0.098 1.119,0.098 0.385,0 0.731,-0.046 1.057,-0.14 0.052,-0.015 0.089,-0.045 0.139,-0.063 0.032,0.058 0.049,0.123 0.062,0.196 0.035,0.191 0.028,0.441 0.02,0.723 -0.014,0.543 0.003,1.068 0.025,1.587 z"
           id="path28"
           inkscape:connector-curvature="0" /></g></g></g></svg>