<!-- Optimised/Generated by IcoMoon.io -->
<svg version="1.1" xmlns="http://www.w3.org/2000/svg" width="32" height="32" viewBox="0 0 32 32">
<title>drop-down</title>
<path d="M16.002 25.155c-0.638-0.002-1.216-0.26-1.635-0.677l-13.695-13.686c-0.418-0.418-0.676-0.996-0.676-1.635 0-1.278 1.036-2.313 2.313-2.313 0.639 0 1.218 0.259 1.637 0.679l12.056 12.056 12.047-12.056c0.419-0.419 0.997-0.679 1.637-0.679 1.278 0 2.313 1.036 2.313 2.313 0 0.638-0.258 1.216-0.676 1.635l-13.686 13.686c-0.418 0.418-0.996 0.677-1.635 0.677h-0z"></path>
</svg>
