<!-- Optimised/Generated by IcoMoon.io -->
<svg version="1.1" xmlns="http://www.w3.org/2000/svg" width="32" height="32" viewBox="0 0 32 32">
<title>duplicate</title>
<path d="M30.080 7.074c0-0.236-0.101-0.472-0.269-0.64l-6.131-6.164c-0.168-0.168-0.404-0.269-0.64-0.269v0h-12.025c-1.213 0-2.223 1.011-2.223 2.223v4.547h-4.547c-1.213 0-2.223 0.977-2.223 2.223v20.817c0 1.213 0.977 2.223 2.223 2.223h16.876c1.213 0 2.223-0.977 2.223-2.223v-4.547h4.547c1.213 0 2.223-1.011 2.223-2.223zM23.949 3.133l2.998 2.998h-2.998zM21.12 30.147h-16.876c-0.202 0-0.371-0.168-0.371-0.371v-20.817c0-0.202 0.168-0.371 0.371-0.371h11.116v5.221c0 0.505 0.404 0.909 0.909 0.909h5.221v15.057c0 0.202-0.168 0.371-0.371 0.371zM17.213 12.867v-2.998l2.998 2.998zM27.891 23.411h-4.547v-9.6c0-0.236-0.101-0.472-0.269-0.64l-6.131-6.164c-0.168-0.168-0.404-0.269-0.64-0.269v0h-5.659v-4.514c0-0.202 0.168-0.371 0.371-0.371h11.116v5.221c0 0.505 0.404 0.909 0.909 0.909h5.221v15.057c0 0.202-0.168 0.371-0.371 0.371z"></path>
</svg>
