<svg id="Layer_1" data-name="Layer 1" xmlns="http://www.w3.org/2000/svg" viewBox="0 0 70.8662 70.8662"><path d="M9.3097,52.338l9.2637,9.2636L6.6049,64.3064ZM44.2056,15.5325l11.147,11.1732L23.2183,58.84,12.0713,47.693Zm8.7437-8.74361L64.0962,17.962l-5.0251,5.0295L47.9198,11.8402ZM52.6478.47477a2.63562,2.63562,0,0,0-1.5556.76469L5.6218,46.7099a2.61864,2.61864,0,0,0-.7123,1.2541L.5399,67.2035a2.67149,2.67149,0,0,0,.7035,2.4382,2.66814,2.66814,0,0,0,2.4382.7035l19.2352-4.374a2.65047,2.65047,0,0,0,1.2846-.7079L69.6718,19.7929a2.72749,2.72749,0,0,0,0-3.6879L54.8064,1.23946A2.65934,2.65934,0,0,0,52.6478.47477"/></svg>