<!-- Optimised/Generated by IcoMoon.io -->
<svg version="1.1" xmlns="http://www.w3.org/2000/svg" width="32" height="32" viewBox="0 0 32 32">
<title>edit</title>
<path d="M4.204 23.634l4.183 4.183-5.404 1.221zM19.961 7.014l5.034 5.045-14.51 14.51-5.034-5.034zM23.91 3.066l5.033 5.045-2.269 2.271-5.035-5.035zM23.773 0.214c-0.277 0.035-0.52 0.16-0.702 0.345l-20.533 20.533c-0.154 0.151-0.266 0.343-0.32 0.558l-0.002 0.008-1.973 8.688c-0.018 0.077-0.028 0.165-0.028 0.256 0 0.329 0.132 0.627 0.345 0.845l-0-0c0.217 0.213 0.515 0.345 0.844 0.345 0.091 0 0.18-0.010 0.265-0.029l-0.008 0.002 8.686-1.975c0.228-0.053 0.425-0.165 0.58-0.32l20.532-20.532c0.201-0.218 0.324-0.511 0.324-0.833s-0.123-0.614-0.325-0.834l0.001 0.001-6.713-6.713c-0.217-0.217-0.518-0.352-0.849-0.352-0.044 0-0.088 0.002-0.131 0.007l0.005-0z"></path>
</svg>
