<!-- Optimised/Generated by IcoMoon.io -->
<svg version="1.1" xmlns="http://www.w3.org/2000/svg" width="32" height="32" viewBox="0 0 32 32">
<title>eye-hide</title>
<path d="M16 5.157c-8.71 0-15.772 4.854-15.772 10.843s7.062 10.844 15.772 10.844c8.71 0 15.772-4.854 15.772-10.844s-7.062-10.844-15.772-10.844zM16 24.872c-7.622 0-13.801-3.973-13.801-8.872s6.179-8.872 13.801-8.872c7.622 0 13.801 3.973 13.801 8.872s-6.179 8.872-13.801 8.872z"></path>
<path d="M16 10.085c-3.267 0-5.915 2.648-5.915 5.915s2.648 5.915 5.915 5.915c3.267 0 5.915-2.648 5.915-5.915v0c0-0 0-0 0-0.001 0-3.266-2.648-5.914-5.914-5.914-0 0-0 0-0.001 0h0zM16 19.943c-2.178 0-3.943-1.765-3.943-3.943s1.765-3.943 3.943-3.943c2.178 0 3.943 1.765 3.943 3.943 0 0 0 0 0 0v0c0 0 0 0.001 0 0.001 0 2.177-1.765 3.942-3.942 3.942-0 0-0.001 0-0.001 0h0z"></path>
<path d="M2.488 28.118l25.63-25.63 1.394 1.394-25.63 25.63-1.394-1.394z"></path>
</svg>
