<svg data-name="Layer 1" xmlns="http://www.w3.org/2000/svg" viewBox="0 0 70.87 70.87"><defs><clipPath id="a"><path fill="none" d="M0 11.07h70.87v48.72H0z"/></clipPath></defs><g clip-path="url(#a)"><path class="cls-3" d="M35.43 11.07C15.86 11.07 0 22 0 35.43s15.86 24.36 35.43 24.36 35.44-10.9 35.44-24.36S55 11.07 35.43 11.07zm0 44.29c-17.13 0-31-8.92-31-19.93s13.88-19.93 31-19.93 31 8.92 31 19.93-13.87 19.93-31 19.93z"/><path class="cls-3" d="M35.43 22.14a13.29 13.29 0 1013.29 13.29 13.29 13.29 0 00-13.29-13.29zm0 22.15a8.86 8.86 0 118.86-8.86 8.86 8.86 0 01-8.86 8.86z"/></g></svg>