<!-- Optimised/Generated by IcoMoon.io -->
<svg version="1.1" xmlns="http://www.w3.org/2000/svg" width="32" height="32" viewBox="0 0 32 32">
<title>eye</title>
<path d="M15.998 4.998c-8.836 0-15.998 4.935-15.998 10.999s7.161 10.999 15.998 10.999 16.002-4.922 16.002-10.999-7.166-10.999-16.002-10.999zM15.998 24.997c-7.735 0-13.997-4.028-13.997-8.999s6.267-8.999 13.997-8.999 13.997 4.028 13.997 8.999-6.263 8.999-13.997 8.999z"></path>
<path d="M15.998 9.997c-3.314 0-6.001 2.687-6.001 6.001s2.687 6.001 6.001 6.001c3.314 0 6.001-2.687 6.001-6.001v0c0-3.314-2.687-6.001-6.001-6.001v0zM15.998 19.998c-2.209 0-4.001-1.791-4.001-4.001s1.791-4.001 4.001-4.001c2.209 0 4.001 1.791 4.001 4.001v0c0 2.209-1.791 4.001-4.001 4.001v0z"></path>
</svg>
