<!-- Optimised/Generated by IcoMoon.io -->
<svg version="1.1" xmlns="http://www.w3.org/2000/svg" width="32" height="32" viewBox="0 0 32 32">
<title>file-object</title>
<path d="M20.362 8.723v-7.269h0.728l6.543 7.269zM27.632 29.080c-0 0.803-0.651 1.454-1.454 1.454h-20.357c-0.803-0-1.454-0.651-1.454-1.454v0-26.172c0-0.803 0.651-1.454 1.454-1.454h13.086v7.269c0 0.803 0.651 1.454 1.454 1.454h7.271zM21.816-0h-15.994c-1.606 0-2.908 1.302-2.908 2.908v0 26.172c0 1.606 1.302 2.908 2.908 2.908h20.357c1.605-0 2.907-1.302 2.907-2.907 0-0 0-0.001 0-0.001v0-21.083z"></path>
</svg>
