<svg id="Layer_1" data-name="Layer 1" xmlns="http://www.w3.org/2000/svg" xmlns:xlink="http://www.w3.org/1999/xlink" viewBox="0 0 70.8661 70.8661"><defs><clipPath id="clip-path"><rect x="6.4534" width="57.9593" height="70.8405" style="fill:none"/></clipPath></defs><g style="clip-path:url(#clip-path)"><path d="M45.0924,19.3185V3.22h1.6117L61.1939,19.3185ZM61.1939,64.3996a3.22046,3.22046,0,0,1-3.2203,3.2203H12.8925a3.22046,3.22046,0,0,1-3.2203-3.2203V6.44029A3.22047,3.22047,0,0,1,12.8925,3.22H41.8722V19.3185a3.22037,3.22037,0,0,0,3.2202,3.2203H61.1939ZM48.3127-.00029H12.8925A6.44091,6.44091,0,0,0,6.4519,6.44029V64.3996a6.44091,6.44091,0,0,0,6.4406,6.4406H57.9736a6.43835,6.43835,0,0,0,6.4376-6.4406V17.7098Z" style="fill:#1d1d1b"/></g></svg>