<!-- Optimised/Generated by IcoMoon.io -->
<svg version="1.1" xmlns="http://www.w3.org/2000/svg" width="32" height="32" viewBox="0 0 32 32">
<title>forbidden</title>
<path d="M24.627 4.173c-2.304-2.304-5.376-3.558-8.627-3.558-3.277 0-6.323 1.28-8.627 3.558-2.304 2.304-3.558 5.376-3.558 8.627s1.28 6.323 3.558 8.627c2.304 2.304 5.376 3.558 8.627 3.558 3.277 0 6.323-1.28 8.627-3.558 2.304-2.304 3.558-5.376 3.558-8.627 0.026-3.277-1.254-6.323-3.558-8.627zM16 2.765c2.278 0 4.506 0.794 6.272 2.227l-14.080 14.080c-3.174-3.942-2.893-9.754 0.717-13.363 1.894-1.894 4.403-2.944 7.091-2.944zM23.091 19.891c-3.61 3.61-9.421 3.891-13.389 0.717l14.106-14.106c3.2 3.968 2.893 9.779-0.717 13.389z"></path>
</svg>
