<!-- Generated by IcoMoon.io -->
<svg version="1.1" xmlns="http://www.w3.org/2000/svg" width="32" height="32" viewBox="0 0 32 32">
<title>fullscreen</title>
<path d="M10.746 0h-9.703c-0.134 0-0.268 0.031-0.392 0.083-0.258 0.103-0.465 0.31-0.568 0.557-0.052 0.124-0.083 0.258-0.083 0.392v9.703c0 0.578 0.465 1.043 1.043 1.043s1.043-0.465 1.043-1.043v-7.185l7.928 7.938c0.206 0.206 0.465 0.299 0.733 0.299s0.537-0.103 0.733-0.299c0.403-0.403 0.403-1.063 0-1.466l-7.928-7.948h7.195c0.578 0 1.043-0.465 1.043-1.043s-0.465-1.043-1.043-1.043z"></path>
<path d="M30.957 20.222c-0.578 0-1.043 0.465-1.043 1.043v7.195l-7.928-7.938c-0.403-0.403-1.063-0.403-1.466 0s-0.403 1.063 0 1.466l7.928 7.938h-7.195c-0.578 0-1.043 0.465-1.043 1.043s0.465 1.043 1.043 1.043h9.703c0.134 0 0.268-0.031 0.392-0.083 0.258-0.103 0.454-0.31 0.568-0.568 0.052-0.124 0.083-0.258 0.083-0.392v-9.714c0-0.568-0.465-1.032-1.043-1.032z"></path>
<path d="M31.917 0.65c-0.103-0.258-0.31-0.465-0.568-0.568-0.124-0.052-0.258-0.083-0.392-0.083h-9.703c-0.578 0-1.043 0.465-1.043 1.043s0.465 1.043 1.043 1.043h7.195l-7.938 7.928c-0.403 0.403-0.403 1.063 0 1.466 0.206 0.206 0.465 0.299 0.733 0.299s0.537-0.103 0.733-0.299l7.928-7.928v7.195c0 0.578 0.465 1.043 1.043 1.043s1.043-0.465 1.043-1.043v-9.703c0-0.134-0.031-0.268-0.083-0.392z"></path>
<path d="M10.746 29.925h-7.195l7.928-7.928c0.403-0.403 0.403-1.063 0-1.466s-1.063-0.403-1.466 0l-7.938 7.928v-7.195c0-0.578-0.465-1.043-1.043-1.043s-1.032 0.465-1.032 1.043v9.703c0 0.134 0.031 0.268 0.083 0.392 0.103 0.258 0.31 0.465 0.568 0.568 0.124 0.052 0.258 0.083 0.392 0.083h9.703c0.578 0 1.043-0.465 1.043-1.043s-0.465-1.043-1.043-1.043z"></path>
</svg>
