<!-- Generated by IcoMoon.io -->
<svg version="1.1" xmlns="http://www.w3.org/2000/svg" width="32" height="32" viewBox="0 0 32 32">
<title>fullscreenExit</title>
<path d="M32 20.759c0-0.568-0.465-1.032-1.043-1.032h-10.261c-0.134 0-0.268 0.031-0.392 0.083-0.258 0.103-0.454 0.31-0.568 0.568-0.052 0.124-0.083 0.258-0.083 0.392v10.199c0 0.578 0.465 1.043 1.043 1.043s1.043-0.465 1.043-1.043v-7.69l8.32 8.32c0.206 0.206 0.465 0.299 0.733 0.299s0.537-0.103 0.733-0.299c0.403-0.403 0.403-1.063 0-1.466l-8.33-8.33h7.752c0.578 0 1.043-0.465 1.043-1.043z"></path>
<path d="M11.138 0c-0.578 0-1.043 0.465-1.043 1.043v7.69l-8.32-8.341c-0.403-0.413-1.063-0.403-1.476-0.010-0.403 0.413-0.403 1.063 0 1.476l8.31 8.32h-7.566c-0.578 0-1.043 0.475-1.043 1.043s0.465 1.043 1.043 1.043h10.095c0.578 0 1.043-0.465 1.043-1.043v-10.178c0-0.578-0.465-1.043-1.043-1.043z"></path>
<path d="M11.541 19.799c-0.124-0.052-0.258-0.083-0.392-0.083h-10.106c-0.578 0-1.043 0.465-1.043 1.043s0.465 1.043 1.043 1.043h7.587l-8.33 8.32c-0.403 0.413-0.403 1.063 0 1.476 0.206 0.206 0.465 0.299 0.733 0.299s0.537-0.103 0.733-0.299l8.32-8.32v7.69c0 0.578 0.465 1.043 1.043 1.043s1.043-0.465 1.043-1.043v-10.199c0-0.134-0.031-0.268-0.083-0.392-0.103-0.258-0.31-0.454-0.568-0.568z"></path>
<path d="M20.697 12.263h10.261c0.578 0 1.043-0.465 1.043-1.043s-0.465-1.043-1.043-1.043h-7.742l8.31-8.32c0.403-0.403 0.403-1.063 0-1.466s-1.063-0.403-1.466 0l-8.32 8.341v-7.69c0-0.578-0.465-1.043-1.043-1.043s-1.043 0.465-1.043 1.043v10.178c0 0.578 0.465 1.043 1.043 1.043z"></path>
</svg>
