<!-- Generated by IcoMoon.io -->
<svg version="1.1" xmlns="http://www.w3.org/2000/svg" width="32" height="32" viewBox="0 0 32 32">
<title>grid</title>
<path d="M12.609 13.323h-9.638c-0.473 0-1.058 0.088-1.29-0.417-0.152-0.336-0.064-0.881-0.064-1.242v-8.484c0-0.393-0.096-1.010 0.176-1.322 0.288-0.336 0.849-0.248 1.266-0.248h8.46c0.384 0 0.817-0.048 1.194 0.008 0.649 0.096 0.617 0.721 0.617 1.234v5.536c0 1.394 0.072 2.812 0 4.214-0.016 0.401-0.296 0.705-0.721 0.721-1.026 0.040-1.034 1.643 0 1.602 1.402-0.048 2.332-1.146 2.332-2.508v-8.493c0-0.521 0.016-1.050 0-1.57-0.032-1.338-1.066-2.332-2.396-2.348-1.674-0.016-3.349 0-5.023 0-1.691 0-3.389-0.016-5.080 0-1.346 0.008-2.388 0.994-2.428 2.34-0.016 0.505 0 1.010 0 1.514v8.533c0 1.29 0.817 2.404 2.163 2.524 0.465 0.040 0.945 0.008 1.41 0.008h9.013c1.034 0 1.042-1.603 0.008-1.603l-0-0z"></path>
<path d="M12.593 30.037h-9.638c-0.473 0-1.058 0.088-1.29-0.417-0.152-0.336-0.064-0.881-0.064-1.242v-8.485c0-0.393-0.096-1.010 0.176-1.322 0.288-0.336 0.849-0.248 1.266-0.248h8.461c0.384 0 0.817-0.048 1.194 0.008 0.649 0.096 0.617 0.721 0.617 1.234v5.536c0 1.394 0.072 2.812 0 4.214-0.016 0.401-0.297 0.705-0.721 0.721-1.026 0.040-1.034 1.643 0 1.602 1.402-0.048 2.332-1.146 2.332-2.508v-8.493c0-0.521 0.016-1.050 0-1.57-0.032-1.338-1.066-2.332-2.396-2.348-1.674-0.016-3.349 0-5.023 0-1.691 0-3.389-0.016-5.080 0-1.338 0.008-2.38 0.993-2.42 2.339-0.016 0.505 0 1.010 0 1.514v8.533c0 1.29 0.817 2.404 2.163 2.524 0.465 0.040 0.945 0.008 1.41 0.008h9.013c1.034 0 1.034-1.602 0-1.602l-0-0z"></path>
<path d="M29.602 13.323h-9.638c-0.473 0-1.058 0.088-1.29-0.417-0.152-0.336-0.064-0.881-0.064-1.242v-8.484c0-0.393-0.096-1.010 0.176-1.322 0.288-0.336 0.849-0.248 1.266-0.248h8.46c0.385 0 0.817-0.048 1.194 0.008 0.649 0.096 0.617 0.721 0.617 1.234v5.536c0 1.394 0.072 2.812 0 4.214-0.016 0.401-0.297 0.705-0.721 0.721-1.026 0.040-1.034 1.643 0 1.602 1.402-0.048 2.332-1.146 2.332-2.508v-8.493c0-0.521 0.016-1.050 0-1.57-0.032-1.338-1.066-2.332-2.396-2.348-1.674-0.016-3.349 0-5.023 0-1.691 0-3.389-0.016-5.080 0-1.346 0.008-2.388 0.994-2.428 2.34-0.016 0.505 0 1.010 0 1.514v8.533c0 1.29 0.817 2.404 2.163 2.524 0.465 0.040 0.945 0.008 1.41 0.008h9.013c1.034 0 1.034-1.603 0.009-1.603l-0-0z"></path>
<path d="M29.587 30.037h-9.638c-0.473 0-1.058 0.088-1.29-0.417-0.152-0.336-0.064-0.881-0.064-1.242v-8.485c0-0.393-0.096-1.010 0.176-1.322 0.288-0.336 0.849-0.248 1.266-0.248h8.46c0.384 0 0.817-0.048 1.194 0.008 0.649 0.096 0.617 0.721 0.617 1.234v5.536c0 1.394 0.072 2.812 0 4.214-0.016 0.401-0.296 0.705-0.721 0.721-1.026 0.040-1.034 1.643 0 1.602 1.402-0.048 2.332-1.146 2.332-2.508v-8.493c0-0.521 0.016-1.050 0-1.57-0.032-1.338-1.066-2.332-2.396-2.348-1.674-0.016-3.349 0-5.023 0-1.691 0-3.389-0.016-5.080 0-1.338 0.008-2.38 0.993-2.42 2.339-0.016 0.505 0 1.010 0 1.514v8.533c0 1.29 0.817 2.404 2.163 2.524 0.465 0.040 0.945 0.008 1.41 0.008h9.013c1.034 0 1.034-1.602 0-1.602l-0-0z"></path>
</svg>
