<svg id="Layer_1" data-name="Layer 1" xmlns="http://www.w3.org/2000/svg" viewBox="0 0 70.8662 70.8662"><path d="M35.4331,11.4194C16.1431,11.4194.504,22.169.504,35.4331c0,13.2645,15.6391,24.0138,34.9291,24.0138,19.2895,0,34.9291-10.7493,34.9291-24.0138C70.3622,22.169,54.7226,11.4194,35.4331,11.4194Zm0,43.6619c-16.8799,0-30.563-8.7978-30.563-19.6476S18.5532,15.786,35.4331,15.786c16.8793,0,30.563,8.7979,30.563,19.6477S52.3124,55.0813,35.4331,55.0813Z" style="fill:#1d1d1b"/><path d="M35.4331,22.3345A13.0984,13.0984,0,1,0,48.5315,35.4329,13.09712,13.09712,0,0,0,35.4331,22.3345Zm0,21.8301a8.73225,8.73225,0,1,1,8.7323-8.7322A8.72955,8.72955,0,0,1,35.4331,44.1646Z" style="fill:#1d1d1b"/><rect x="-4.70216" y="33.25033" width="80.27053" height="4.36568" transform="translate(-14.67692 35.43312) rotate(-45)" style="fill:#1d1d1b"/></svg>