<!-- Optimised/Generated by IcoMoon.io -->
<svg version="1.1" xmlns="http://www.w3.org/2000/svg" width="32" height="32" viewBox="0 0 32 32">
<title>home</title>
<path d="M16.022 3.2c0.168 0.004 0.324 0.059 0.475 0.163l15.2 12c0.186 0.153 0.303 0.383 0.303 0.641 0 0.187-0.062 0.36-0.167 0.499l0.002-0.002c-0.258 0.333-0.807 0.387-1.138 0.125l-14.7-11.6-14.7 11.6c-0.33 0.262-0.864 0.206-1.125-0.125-0.259-0.329-0.231-0.876 0.125-1.138l5.7-4.5v-6.863c0-0.442 0.358-0.8 0.8-0.8v0h3.2c0.442 0 0.8 0.358 0.8 0.8v0 3.075l4.7-3.712c0.178-0.118 0.357-0.166 0.525-0.163zM9.196 4.8h-1.6v4.8l1.6-1.262zM25.996 13.963l1.6 1.262v12.775c0 0.442-0.358 0.8-0.8 0.8v0h-6.8c-0.442 0-0.8-0.358-0.8-0.8v0-7.2h-6.4v7.2c0 0.442-0.358 0.8-0.8 0.8v0h-6.8c-0.442 0-0.8-0.358-0.8-0.8v0-12.775l1.6-1.262v13.237h5.2v-7.2c0-0.442 0.358-0.8 0.8-0.8v0h8c0.442 0 0.8 0.358 0.8 0.8v0 7.2h5.2z"></path>
</svg>
