<svg xmlns="http://www.w3.org/2000/svg" viewBox="0 0 80 64"><path style="text-indent:0;text-transform:none" d="M40.054 0c.42.01.811.148 1.187.407l38 30a2.07 2.07 0 01.344 2.844c-.645.833-2.017.967-2.844.312l-36.75-29-36.75 29c-.826.655-2.16.516-2.812-.312-.647-.823-.577-2.19.312-2.844l14.25-11.25V2a2 2 0 012-2h8a2 2 0 012 2v7.688L38.741.407c.445-.294.893-.415 1.313-.407zM22.99 4h-4v12l4-3.156zm42 22.907l4 3.156V62a2 2 0 01-2 2h-17a2 2 0 01-2-2V44h-16v18a2 2 0 01-2 2h-17a2 2 0 01-2-2V30.063l4-3.156V60h13V42a2 2 0 012-2h20a2 2 0 012 2v18h13z" overflow="visible" color="#000"/></svg>