<svg id="Layer_1" data-name="Layer 1" xmlns="http://www.w3.org/2000/svg" xmlns:xlink="http://www.w3.org/1999/xlink" viewBox="0 0 70.87 70.87"><defs><style>.cls-1{fill:none;}.cls-2{clip-path:url(#clip-path);}.cls-3{fill:#010101;}</style><clipPath id="clip-path"><rect class="cls-1" width="70.87" height="70.87"/></clipPath></defs><title>icons-collected</title><g class="cls-2"><path class="cls-3" d="M25.44,47.32a11.86,11.86,0,0,0,8.08-3.16,1.69,1.69,0,1,0-2.3-2.48,8.51,8.51,0,1,1,0-12.5,1.69,1.69,0,0,0,2.29-2.48,11.88,11.88,0,1,0-8.07,20.61"/><path class="cls-3" d="M48.22,47.32a11.86,11.86,0,0,0,8.08-3.16A1.69,1.69,0,1,0,54,41.68a8.51,8.51,0,1,1,0-12.5,1.69,1.69,0,0,0,2.29-2.48,11.88,11.88,0,1,0-8.07,20.61"/><path class="cls-3" d="M35.43,3.37A32.49,32.49,0,0,1,67.49,35.44,32.49,32.49,0,0,1,35.43,67.49,32.49,32.49,0,0,1,3.38,35.44,32.49,32.49,0,0,1,35.43,3.37m0,67.49c19.21,0,35.43-16.23,35.43-35.43S54.64,0,35.43,0,0,16.23,0,35.44,16.23,70.87,35.43,70.87"/></g></svg>