<!-- Optimised/Generated by IcoMoon.io -->
<svg version="1.1" xmlns="http://www.w3.org/2000/svg" width="32" height="32" viewBox="0 0 32 32">
<title>image-resized</title>
<path fill="#010101" d="M13.746 13.341c-0.18 0-0.406 0.090-0.541 0.225s-0.225 0.361-0.225 0.541c0 0.18 0.090 0.406 0.225 0.541s0.316 0.225 0.541 0.225 0.406-0.090 0.541-0.225c0.135-0.135 0.225-0.316 0.225-0.541 0-0.18-0.090-0.406-0.225-0.541s-0.316-0.225-0.541-0.225z"></path>
<path fill="#010101" d="M21.183 10.366h-10.456c-0.135 0-0.27 0.045-0.361 0.135s-0.135 0.225-0.135 0.361v10.456c0 0.135 0.045 0.27 0.135 0.361s0.225 0.135 0.361 0.135h10.456c0.135 0 0.27-0.045 0.361-0.135s0.135-0.225 0.135-0.361v-10.456c0-0.135-0.045-0.27-0.135-0.361s-0.225-0.135-0.361-0.135zM14.648 20.823h-3.425v-4.552l0.496 0.586 3.606 3.966h-0.676zM20.687 18.344v2.479h-4.056l-0.090-0.090-1.938-2.163-0.18-0.18 0.18-0.18 2.389-2.524 0.18-0.18 0.225 0.18 3.2 2.524 0.090 0.090v0.135zM20.687 11.628v5.318l-0.496-0.361-2.794-2.208c-0.090-0.090-0.225-0.135-0.361-0.090-0.135 0-0.225 0.045-0.316 0.135l-2.794 2.93-0.225 0.225-0.225-0.225-2.118-2.344c0 0-0.045-0.045-0.090-0.045l-0.135-0.090v-3.515h9.465v0.316z"></path>
<path fill="#000" d="M28.394 24.789h-25.239v-18.028h25.239v18.028zM4.056 23.887h23.437v-16.225h-23.437v16.225z"></path>
<path fill="#000" d="M29.972 32h-1.803v-0.451h1.803v0.451zM26.366 32h-1.803v-0.451h1.803v0.451zM22.761 32h-1.803v-0.451h1.803v0.451zM19.155 32h-1.803v-0.451h1.803v0.451zM15.549 32h-1.803v-0.451h1.803v0.451zM11.944 32h-1.803v-0.451h1.803v0.451zM8.338 32h-1.803v-0.451h1.803v0.451zM4.732 32h-1.803v-0.451h1.803v0.451zM1.127 32h-1.127v-1.127h0.451v0.676h0.676v0.451zM32 31.775h-0.451v-1.803h0.451v1.803zM0.451 29.070h-0.451v-1.803h0.451v1.803zM32 28.169h-0.451v-1.803h0.451v1.803zM0.451 25.465h-0.451v-1.803h0.451v1.803zM32 24.563h-0.451v-1.803h0.451v1.803zM0.451 21.859h-0.451v-1.803h0.451v1.803zM32 20.958h-0.451v-1.803h0.451v1.803zM0.451 18.254h-0.451v-1.803h0.451v1.803zM32 17.352h-0.451v-1.803h0.451v1.803zM0.451 14.648h-0.451v-1.803h0.451v1.803zM32 13.746h-0.451v-1.803h0.451v1.803zM0.451 11.042h-0.451v-1.803h0.451v1.803zM32 10.141h-0.451v-1.803h0.451v1.803zM0.451 7.437h-0.451v-1.803h0.451v1.803zM32 6.535h-0.451v-1.803h0.451v1.803zM0.451 3.831h-0.451v-1.803h0.451v1.803zM32 2.93h-0.451v-1.803h0.451v1.803zM30.873 0.451h-1.803v-0.451h1.803v0.451zM27.268 0.451h-1.803v-0.451h1.803v0.451zM23.662 0.451h-1.803v-0.451h1.803v0.451zM20.056 0.451h-1.803v-0.451h1.803v0.451zM16.451 0.451h-1.803v-0.451h1.803v0.451zM12.845 0.451h-1.803v-0.451h1.803v0.451zM9.239 0.451h-1.803v-0.451h1.803v0.451zM5.634 0.451h-1.803v-0.451h1.803v0.451zM2.028 0.451h-1.803v-0.451h1.803v0.451z"></path>
</svg>
