<!-- Optimised/Generated by IcoMoon.io -->
<svg version="1.1" xmlns="http://www.w3.org/2000/svg" width="32" height="32" viewBox="0 0 32 32">
<title>image-object</title>
<path d="M20.362 8.723v-7.269h0.728l6.543 7.269zM27.632 29.080c-0 0.803-0.651 1.454-1.454 1.454h-20.357c-0.803-0-1.454-0.651-1.454-1.454v0-26.172c0-0.803 0.651-1.454 1.454-1.454h13.086v7.269c0 0.803 0.651 1.454 1.454 1.454h7.271zM21.816-0h-15.994c-1.606 0-2.908 1.302-2.908 2.908v0 26.172c0 1.606 1.302 2.908 2.908 2.908h20.357c1.605-0 2.907-1.302 2.907-2.907 0-0 0-0.001 0-0.001v0-21.083z"></path>
<path d="M13.773 14.988c-0.423 0.001-0.765 0.344-0.765 0.766s0.343 0.766 0.766 0.766 0.766-0.343 0.766-0.766c0-0.423-0.342-0.766-0.765-0.766h-0z"></path>
<path d="M21.229 12.022h-10.459c-0.271 0-0.49 0.22-0.49 0.49v10.463c0 0.271 0.22 0.49 0.49 0.49h10.459c0.271-0 0.49-0.22 0.49-0.49v-10.463c-0-0.271-0.22-0.49-0.49-0.49h-0zM14.694 22.485h-3.433v-4.549l4.093 4.549zM20.739 20.021v2.464h-4.062l-2.232-2.477 2.778-2.91 3.515 2.781zM20.739 13.297v5.316l-3.258-2.578c-0.083-0.066-0.189-0.106-0.304-0.106-0.14 0-0.266 0.058-0.355 0.152l-0 0-3.037 3.18-2.323-2.591c-0.023-0.024-0.048-0.046-0.075-0.065l-0.002-0.001-0.124-0.088v-3.514h9.478z"></path>
</svg>
