<svg id="Layer_1" data-name="Layer 1" xmlns="http://www.w3.org/2000/svg" viewBox="0 0 70.8661 70.8661"><path d="M45.0924,19.3185V3.22h1.6117L61.1939,19.3185ZM61.1939,64.3996a3.22046,3.22046,0,0,1-3.2203,3.2203H12.8925a3.22046,3.22046,0,0,1-3.2203-3.2203V6.4403A3.22046,3.22046,0,0,1,12.8925,3.22H41.8722V19.3185a3.22037,3.22037,0,0,0,3.2202,3.2203H61.1939ZM48.3127-.0003H12.8925A6.44091,6.44091,0,0,0,6.4519,6.4403V64.3996a6.44091,6.44091,0,0,0,6.4406,6.4406H57.9736a6.43835,6.43835,0,0,0,6.4376-6.4406V17.7098Z" style="fill:#1d1d1b"/><path d="M30.5004,33.1917a1.69733,1.69733,0,1,0,.007,0" style="fill:#010101"/><path d="M47.0138,26.6238H23.8523a1.08709,1.08709,0,0,0-1.0859,1.0859V50.8799a1.08709,1.08709,0,0,0,1.0859,1.0859H47.0138a1.08709,1.08709,0,0,0,1.0859-1.0859V27.7097A1.08709,1.08709,0,0,0,47.0138,26.6238ZM32.5401,49.7939H24.9383V39.7208l1.1359,1.2623,6.9502,7.7234.9786,1.0874ZM45.9278,44.338v5.4559H36.9327l-.1941-.2154-4.3438-4.8218-.4045-.4489.4173-.4371,5.3256-5.5775.41-.4294.4655.3683,7.0718,5.5949.2473.1957Zm0-14.8907V41.219l-1.0558-.8355-6.1597-4.8738a1.08593,1.08593,0,0,0-1.4606.1032l-6.2386,6.534-.4862.5093-.4701-.5243-4.674-5.2126a1.13906,1.13906,0,0,0-.1693-.1464l-.2752-.1947V28.7957H45.9278Z" style="fill:#010101"/></svg>