<?xml version="1.0" encoding="utf-8"?>
<!-- Generator: Adobe Illustrator 25.3.1, SVG Export Plug-In . SVG Version: 6.00 Build 0)  -->
<svg version="1.1" id="Layer_1" xmlns="http://www.w3.org/2000/svg" xmlns:xlink="http://www.w3.org/1999/xlink" x="0px" y="0px"
	 viewBox="0 0 70 70" style="enable-background:new 0 0 70 70;" xml:space="preserve">
<path d="M35,70C15.7,70,0,54.3,0,35S15.7,0,35,0s35,15.7,35,35S54.3,70,35,70z M35,63.6c15.8,0,28.6-12.8,28.6-28.6S50.8,6.4,35,6.4
	S6.4,19.2,6.4,35S19.2,63.6,35,63.6z M31.8,28.6h6.4v25.5h-6.4V28.6z M35,24.2c-2.3,0-4.1-1.9-4.1-4.1s1.9-4.1,4.1-4.1
	s4.1,1.9,4.1,4.1S37.3,24.2,35,24.2z"/>
</svg>
