<!-- Optimised/Generated by IcoMoon.io -->
<svg version="1.1" xmlns="http://www.w3.org/2000/svg" width="32" height="32" viewBox="0 0 32 32">
<title>information</title>
<path d="M16 32c-8.823 0-16-7.177-16-16s7.177-16 16-16 16 7.177 16 16-7.177 16-16 16zM16 29.074c7.223 0 13.074-5.851 13.074-13.074s-5.851-13.074-13.074-13.074-13.074 5.851-13.074 13.074 5.851 13.074 13.074 13.074zM14.537 13.074h2.926v11.657h-2.926v-11.657zM16 11.063c-1.051 0-1.874-0.869-1.874-1.874s0.869-1.874 1.874-1.874 1.874 0.869 1.874 1.874-0.823 1.874-1.874 1.874z"></path>
</svg>
