<!-- Generated by IcoMoon.io -->
<svg version="1.1" xmlns="http://www.w3.org/2000/svg" width="32" height="32" viewBox="0 0 32 32">
<title>institution</title>
<path d="M21.169 29.374h5.908c0.328 0 0.492-0.164 0.492-0.492v-11.979c0-0.328-0.164-0.492-0.492-0.492h-5.908c-0.328 0-0.492 0.164-0.492 0.492v11.98c0 0.164 0.328 0.492 0.492 0.492zM24.779 23.467h1.969v1.969h-1.969zM23.631 25.272h-1.969v-1.969h1.969zM26.749 22.318h-1.969v-1.969h1.969zM23.631 22.318h-1.969v-1.969h1.969zM21.826 26.421h1.805v1.969h-1.969v-1.969zM24.779 28.39v-1.969h1.969v1.969zM26.749 19.364h-1.969v-1.969h1.969zM23.631 17.395v1.969h-1.969v-1.969zM10.503 16.41h-5.908c-0.328 0-0.492 0.164-0.492 0.492v11.98c0 0.328 0.164 0.492 0.492 0.492h5.908c0.328 0 0.492-0.164 0.492-0.492v-11.98c0-0.328-0.328-0.492-0.492-0.492zM6.892 22.318h-1.969v-1.969h1.969zM8.041 20.349h1.969v1.969h-1.969zM5.087 23.467h1.969v1.969h-1.969zM8.041 23.467h1.969v1.969h-1.969zM10.010 19.364h-1.969v-1.969h1.969zM6.892 17.395v1.969h-1.969v-1.969zM5.087 26.421h1.969v1.969h-1.969zM8.041 28.39v-1.969h1.969v1.969zM12.472 8.533h-2.954c-0.328 0-0.492 0.164-0.492 0.492v2.954c0 0.328 0.164 0.492 0.492 0.492h2.954c0.328 0 0.492-0.164 0.492-0.492v-2.954c0-0.164-0.164-0.492-0.492-0.492zM11.979 11.487h-1.969v-1.969h1.969zM17.559 8.533h-2.954c-0.328 0-0.492 0.164-0.492 0.492v2.954c0 0.328 0.164 0.492 0.492 0.492h2.954c0.328 0 0.492-0.164 0.492-0.492v-2.954c0-0.164-0.328-0.492-0.492-0.492zM16.903 11.487h-1.969v-1.969h1.969zM22.482 8.533h-2.954c-0.328 0-0.492 0.164-0.492 0.492v2.954c0 0.328 0.164 0.492 0.492 0.492h2.954c0.328 0 0.492-0.164 0.492-0.492v-2.954c0-0.164-0.164-0.492-0.492-0.492zM21.99 11.487h-1.969v-1.969h1.969zM31.344 31.18h-0.985v-17.067c0-0.328-0.164-0.492-0.492-0.492h-4.759v-6.4c0-0.328-0.164-0.492-0.492-0.492h-8.041v-2.133h4.431c0.164 0 0.328-0.164 0.492-0.328s0.164-0.328 0-0.492l-1.149-1.477 0.82-1.477c0.164-0.164 0.164-0.328 0-0.492s-0.328-0.328-0.492-0.328h-4.923c-0.328 0-0.492 0.164-0.492 0.492v6.072h-8.041c-0.328 0-0.492 0.164-0.492 0.492v6.4h-4.759c-0.328 0-0.492 0.164-0.492 0.492v17.067h-0.985c-0.328 0-0.492 0.164-0.492 0.492s0.164 0.492 0.492 0.492h1.477c0 0 0 0 0 0h29.21c0.328 0 0.492-0.164 0.492-0.492 0.164-0.164 0-0.328-0.328-0.328zM19.364 2.626l0.656 0.985h-3.446v-2.626h3.446l-0.656 0.985c-0.164 0.164-0.164 0.492 0 0.656zM8.041 7.549h16.082v5.908h-15.918zM2.626 14.605h10.338v5.087c0 0.328 0.164 0.492 0.492 0.492s0.492-0.164 0.492-0.492v-5.087h1.477v6.236c0 0.328 0.164 0.492 0.492 0.492s0.492-0.164 0.492-0.492v-6.236h1.313v5.087c0 0.328 0.164 0.492 0.492 0.492s0.492-0.164 0.492-0.492v-5.087h10.338v16.574h-9.682v-7.056c0-0.328-0.164-0.492-0.492-0.492h-6.236c-0.328 0-0.492 0.164-0.492 0.492v7.056h-9.682zM16.574 24.615h2.133v6.564h-2.133zM15.426 31.18h-2.133v-6.564h2.133z"></path>
</svg>
