<!-- Optimised/Generated by IcoMoon.io -->
<svg version="1.1" xmlns="http://www.w3.org/2000/svg" width="32" height="32" viewBox="0 0 32 32">
<title>licence</title>
<path d="M11.487 21.366c0.003 0 0.006 0 0.009 0 1.407 0 2.687-0.543 3.643-1.43l-0.003 0.003c0.15-0.14 0.244-0.339 0.244-0.56 0-0.422-0.342-0.764-0.764-0.764-0.201 0-0.383 0.077-0.52 0.204l0-0c-0.683 0.632-1.6 1.020-2.608 1.020-2.122 0-3.843-1.72-3.843-3.843s1.72-3.843 3.843-3.843c1.008 0 1.925 0.388 2.61 1.023l-0.002-0.002c0.131 0.11 0.302 0.177 0.488 0.177 0.421 0 0.763-0.342 0.763-0.763 0-0.208-0.083-0.396-0.218-0.534l0 0c-0.953-0.882-2.232-1.422-3.638-1.422-2.963 0-5.364 2.402-5.364 5.364 0 2.961 2.398 5.361 5.358 5.364h0z"></path>
<path d="M21.773 21.366c0.003 0 0.006 0 0.009 0 1.407 0 2.687-0.543 3.643-1.43l-0.003 0.003c0.151-0.14 0.244-0.339 0.244-0.56 0-0.422-0.342-0.764-0.764-0.764-0.201 0-0.383 0.077-0.52 0.204l0-0c-0.683 0.632-1.6 1.020-2.608 1.020-2.122 0-3.843-1.72-3.843-3.843s1.72-3.843 3.843-3.843c1.008 0 1.925 0.388 2.61 1.023l-0.003-0.002c0.131 0.11 0.302 0.177 0.488 0.177 0.421 0 0.763-0.342 0.763-0.763 0-0.208-0.083-0.396-0.218-0.534l0 0c-0.953-0.882-2.232-1.422-3.638-1.422-2.963 0-5.364 2.402-5.364 5.364 0 2.961 2.398 5.361 5.358 5.364h0z"></path>
<path d="M15.998 1.522c7.953 0.108 14.371 6.527 14.476 14.471l0 0.010c-0.11 7.949-6.526 14.364-14.466 14.471l-0.010 0c-7.948-0.11-14.361-6.524-14.471-14.461l-0-0.010c0.105-7.952 6.521-14.37 14.461-14.48l0.010-0zM15.998 31.995c8.674 0 15.998-7.328 15.998-15.998s-7.324-15.998-15.998-15.998-15.998 7.328-15.998 16.002 7.328 15.998 15.998 15.998z"></path>
</svg>
