<?xml version="1.0" encoding="utf-8"?>
<!-- Generator: Adobe Illustrator 17.0.0, SVG Export Plug-In . SVG Version: 6.00 Build 0)  -->
<!DOCTYPE svg PUBLIC "-//W3C//DTD SVG 1.1//EN" "http://www.w3.org/Graphics/SVG/1.1/DTD/svg11.dtd">
<svg version="1.1" id="Layer_1" xmlns="http://www.w3.org/2000/svg" xmlns:xlink="http://www.w3.org/1999/xlink" x="0px" y="0px"
	 width="328.034px" height="50px" viewBox="0 0 328.034 50" enable-background="new 0 0 328.034 50" xml:space="preserve">
<g>
	<path fill-rule="evenodd" clip-rule="evenodd" fill="#323232" d="M60.434,17.273h3.89V3.735h-3.89V17.273z M296.502,13.072V5.291
		h-4.668c-0.103,2.594,0.208,5.602-0.154,7.936h-4.203v3.736h4.358c0.302,4.51-0.393,12.855,0,17.584
		c0.432,5.178,4.106,4.825,9.804,4.669v-3.58c-1.768-0.047-3.664,0.034-4.823-0.622c-0.707-5.415-0.118-12.123-0.313-18.051h5.136
		v-3.736C299.978,13.125,297.904,13.434,296.502,13.072z M105.718,12.605c-3.276,0.274-5.363,2.089-7.002,3.735v-3.113h-4.513
		v26.144h4.669c0.939-5.977-1.727-15.244,1.245-19.762c1.454-2.213,5.503-3.913,8.715-2.18c2.849,1.539,2.022,7.994,2.022,12.449
		v9.493h4.668C114.749,27.162,119.3,11.47,105.718,12.605z M254.175,15.095c-2.361-2.685-8.669-3.194-11.982-1.245
		c-1.189,0.699-1.802,1.968-2.955,2.489v-3.113h-4.358v26.144h4.669c0.697-7.418-1.926-17.763,2.645-21.164
		c3.272-2.433,8.762-1.614,9.337,2.49c0.709,5.05-0.533,13.222,0,18.674h4.669C255.185,30.96,258.369,19.863,254.175,15.095z
		 M75.685,13.227c-3.752,8.438-7.084,17.296-10.582,25.988h4.98c1.883-4.895,3.939-9.955,5.759-14.783
		c0.619-1.647,1.076-3.454,2.178-4.824c2.392,6.58,4.868,13.076,7.314,19.607c1.713-0.103,3.837,0.206,5.291-0.156
		c-3.466-8.517-6.749-17.216-10.116-25.833H75.685z M202.821,13.227c-1.917,6.589-3.421,13.592-5.601,19.919
		c-1.691-6.611-3.404-13.195-4.979-19.919h-5.136c-1.489,6.759-3.126,13.369-4.825,19.919c-2.095-6.411-3.675-13.338-5.601-19.919
		c-1.662,0.103-3.734-0.206-5.136,0.156c2.82,8.592,5.557,17.267,8.248,25.988h4.98c1.582-6.562,3.029-13.257,4.979-19.452
		c1.651,6.442,3.331,12.853,4.825,19.452h4.823c2.787-8.676,5.525-17.404,8.248-26.144H202.821z M216.672,13.227
		c-3.723,8.467-7.056,17.324-10.582,25.988h4.979c2.775-6.407,4.869-13.494,7.938-19.607c2.41,6.563,4.905,13.042,7.314,19.607
		h5.292c-3.352-8.683-6.735-17.335-10.117-25.988H216.672z M143.066,13.227h-4.512v2.802c-1.951-2.175-3.983-3.638-7.624-3.58
		c-11.599,0.186-15.427,17.3-7.781,24.431c2.517,2.349,7.692,4.063,12.137,1.868c1.286-0.634,2.371-2.025,3.269-2.801
		c-0.037,2.978-0.162,5.215-1.4,7.158c-2.226,3.49-9.36,3.916-11.827,0.311c-0.235-0.439-0.376-0.973-0.311-1.712h-4.668
		c0.095,5.496,4.328,7.744,9.181,8.092C148.595,51.163,141.808,29.683,143.066,13.227z M128.438,35.014
		c-5.854-2.048-5.942-16.772,1.556-18.051c3.479-0.594,5.872,0.679,7.159,2.956C140.89,26.535,136.935,37.986,128.438,35.014z
		 M170.765,27.855c-0.175-8.67-3.378-15.622-11.982-15.406c-7.691,0.193-11.982,6.376-11.982,13.538
		c0,8.745,5.581,14.619,13.538,14.006c5.722-0.441,9.029-3.832,9.958-9.337h-4.512c-1.032,7.936-15.422,5.969-14.006-2.801H170.765z
		 M153.337,19.297c3.49-4.712,12.403-2.158,12.45,4.201h-14.006C152.178,21.782,152.495,20.433,153.337,19.297z M280.008,15.872
		c-3.99-4.829-13.203-3.679-16.651,0.311c-2.25,2.602-3.274,6.544-3.269,10.116c0.012,7.832,4.917,14.483,13.383,13.694
		c2.911-0.271,4.477-1.567,6.536-2.956v2.334h4.669V3.268h-4.669V15.872z M278.919,32.212c-1.712,3.164-7.184,5.119-10.893,2.023
		c-4.739-3.955-3.979-16.273,3.267-17.273C279.314,15.855,282.411,25.752,278.919,32.212z M314.555,12.45
		c-6.209,0.18-9.591,3.747-10.737,9.337h4.669c1.106-8.183,15.06-5.704,14.004,2.955h-18.985
		c-0.343,9.235,4.353,15.709,12.449,15.251c6.427-0.362,10.88-5.805,11.36-12.138C327.944,19.549,323.67,12.185,314.555,12.45z
		 M308.486,29.412c-0.018-0.221-0.024-0.44,0.155-0.467h13.695C322.092,37.912,309.108,37.563,308.486,29.412z"/>
	<path fill-rule="evenodd" clip-rule="evenodd" fill="#323232" d="M33.046,35.48c0.84-4.568,2.292-10.513,3.423-15.406
		c0.514-2.222,2.143-6.368-0.156-6.847c-1.732-0.36-5.847,3.017-7.158,3.89c-0.802,0.534-1.769,1.031-1.089,1.868
		c1.474-0.136,2.852-1.713,4.513-2.179c1.237,1.388,0.111,3.301-0.311,4.98c-0.888,3.526-1.644,7.035-2.49,10.582
		c-0.457,1.917-1.475,3.872-1.089,5.601c0.849,3.811,7.462-1.485,8.559-2.333c0.716-0.554,1.604-1.212,0.778-2.023
		C36.655,33.771,34.898,36.764,33.046,35.48z M49.074,14.473c-2.408,0.205-4.312,4.412-2.022,5.913
		C51.14,23.066,53.812,14.068,49.074,14.473z M24.642,0.311C24.218,0.425,24.329,0.002,24.02,0
		c-1.037,0.247-2.758,1.269-4.514,1.712c-1.417,0.358-3.73-0.059-4.045,1.557c1.022,0.482,3.245-0.237,4.045,0.467
		c0.164,3.444-0.878,6.998-1.4,10.27c-5.681-1.882-10.086,0.906-13.072,4.046c-3.57,3.756-5.384,12.015-4.979,17.274
		c0.119,1.553,0.401,3.109,1.711,4.046c3.672-0.123,5.938-2.327,7.938-4.201c2.12-1.989,3.757-4.446,5.601-6.692
		c-0.27,1.817-0.568,3.284-0.933,5.447c-0.246,1.458-1.244,4.542,0,5.291c1.857,1.117,6.443-2.973,7.625-3.89
		c0.759-0.589,1.794-1.225,0.934-2.023c-1.447,0.317-2.443,2.432-4.669,2.49c-0.975-1.305-0.261-3.018,0-4.357
		C20.293,20.966,22.619,10.524,24.642,0.311z M10.17,32.99c-0.971,0.868-4.038,3.453-5.601,2.646
		c-1.805-0.931,0.1-9.092,0.467-10.582c0.729-2.962,2.054-7.375,3.89-8.559c2.381-1.535,6.201-0.442,8.714,0.468
		C16.811,23.609,14.18,29.413,10.17,32.99z M45.651,32.835c-2.145,0.382-3.951,4.485-1.711,5.914
		C48.046,41.367,50.796,31.918,45.651,32.835z"/>
</g>
</svg>
