<!-- Optimised/Generated by IcoMoon.io -->
<svg version="1.1" xmlns="http://www.w3.org/2000/svg" width="32" height="32" viewBox="0 0 32 32">
<title>logo</title>
<path d="M5.896 15.246h0.38v-1.321h-0.38v1.321zM28.927 14.836v-0.759h-0.455c-0.010 0.253 0.020 0.547-0.015 0.774h-0.41v0.364h0.425c0.029 0.44-0.038 1.254 0 1.716 0.042 0.505 0.401 0.471 0.956 0.456v-0.349c-0.172-0.005-0.357 0.003-0.471-0.061-0.069-0.528-0.012-1.183-0.031-1.761h0.501v-0.364c-0.162-0.010-0.364 0.020-0.501-0.015zM10.314 14.791c-0.32 0.027-0.523 0.204-0.683 0.364v-0.304h-0.44v2.551h0.456c0.092-0.583-0.168-1.487 0.121-1.928 0.142-0.216 0.537-0.382 0.85-0.213 0.278 0.15 0.197 0.78 0.197 1.215v0.926h0.455c-0.075-1.191 0.369-2.722-0.957-2.611zM24.798 15.034c-0.23-0.262-0.846-0.312-1.169-0.121-0.116 0.068-0.176 0.192-0.288 0.243v-0.304h-0.425v2.551h0.456c0.068-0.724-0.188-1.733 0.258-2.065 0.319-0.237 0.855-0.157 0.911 0.243 0.069 0.493-0.052 1.29 0 1.822h0.456c-0.099-0.82 0.212-1.903-0.198-2.368zM7.384 14.851c-0.366 0.823-0.691 1.687-1.032 2.535h0.486c0.184-0.478 0.384-0.971 0.562-1.442 0.060-0.161 0.105-0.337 0.213-0.471 0.233 0.642 0.475 1.276 0.714 1.913 0.167-0.010 0.374 0.020 0.516-0.015-0.338-0.831-0.658-1.68-0.987-2.52h-0.471zM19.787 14.851c-0.187 0.643-0.334 1.326-0.546 1.943-0.165-0.645-0.332-1.287-0.486-1.943h-0.501c-0.145 0.659-0.305 1.304-0.471 1.943-0.204-0.625-0.359-1.301-0.546-1.943-0.162 0.010-0.364-0.020-0.501 0.015 0.275 0.838 0.542 1.685 0.805 2.535h0.486c0.154-0.64 0.296-1.293 0.486-1.898 0.161 0.629 0.325 1.254 0.471 1.898h0.471c0.272-0.846 0.539-1.698 0.805-2.551h-0.471zM21.139 14.851c-0.363 0.826-0.688 1.69-1.032 2.535h0.486c0.271-0.625 0.475-1.317 0.774-1.913 0.235 0.64 0.479 1.272 0.714 1.913h0.516c-0.327-0.847-0.657-1.691-0.987-2.535h-0.471zM13.958 14.851h-0.44v0.273c-0.19-0.212-0.389-0.355-0.744-0.349-1.132 0.018-1.505 1.688-0.759 2.383 0.246 0.229 0.75 0.396 1.184 0.182 0.125-0.062 0.231-0.198 0.319-0.273-0.004 0.291-0.016 0.509-0.137 0.698-0.217 0.34-0.913 0.382-1.154 0.030-0.023-0.043-0.037-0.095-0.030-0.167h-0.455c0.009 0.536 0.422 0.756 0.896 0.789 1.86 0.133 1.198-1.962 1.321-3.568zM12.531 16.977c-0.571-0.2-0.58-1.636 0.152-1.761 0.339-0.058 0.573 0.066 0.698 0.288 0.365 0.645-0.021 1.763-0.85 1.473zM16.66 16.279c-0.017-0.846-0.33-1.524-1.169-1.503-0.75 0.019-1.169 0.622-1.169 1.321 0 0.853 0.544 1.426 1.321 1.366 0.558-0.043 0.881-0.374 0.971-0.911h-0.44c-0.101 0.774-1.505 0.582-1.366-0.273h1.852zM14.96 15.444c0.341-0.46 1.21-0.211 1.215 0.41h-1.366c0.039-0.167 0.070-0.299 0.152-0.41zM27.318 15.109c-0.389-0.471-1.288-0.359-1.625 0.030-0.22 0.254-0.319 0.638-0.319 0.987 0.001 0.764 0.48 1.413 1.306 1.336 0.284-0.026 0.437-0.153 0.638-0.288v0.228h0.456v-3.522h-0.456v1.23zM27.212 16.704c-0.167 0.309-0.701 0.499-1.063 0.197-0.462-0.386-0.388-1.588 0.319-1.685 0.783-0.108 1.085 0.858 0.744 1.488zM30.688 14.776c-0.606 0.018-0.936 0.366-1.047 0.911h0.456c0.108-0.798 1.469-0.556 1.366 0.288h-1.852c-0.033 0.901 0.425 1.533 1.215 1.488 0.627-0.035 1.061-0.566 1.108-1.184 0.061-0.81-0.356-1.529-1.245-1.503zM30.096 16.43c-0.002-0.022-0.002-0.043 0.015-0.046h1.336c-0.024 0.875-1.291 0.841-1.351 0.046z"></path>
<path d="M3.224 17.022c0.082-0.446 0.224-1.026 0.334-1.503 0.050-0.217 0.209-0.621-0.015-0.668-0.169-0.035-0.57 0.294-0.698 0.38-0.078 0.052-0.173 0.101-0.106 0.182 0.144-0.013 0.278-0.167 0.44-0.213 0.121 0.135 0.011 0.322-0.030 0.486-0.087 0.344-0.16 0.686-0.243 1.032-0.045 0.187-0.144 0.378-0.106 0.546 0.083 0.372 0.728-0.145 0.835-0.228 0.070-0.054 0.156-0.118 0.076-0.197-0.134 0.015-0.305 0.307-0.486 0.182zM4.788 14.973c-0.235 0.020-0.421 0.43-0.197 0.577 0.399 0.261 0.659-0.616 0.197-0.577zM2.404 13.591c-0.041 0.011-0.031-0.030-0.061-0.030-0.101 0.024-0.269 0.124-0.44 0.167-0.138 0.035-0.364-0.006-0.395 0.152 0.1 0.047 0.317-0.023 0.395 0.046 0.016 0.336-0.086 0.683-0.137 1.002-0.554-0.184-0.984 0.088-1.275 0.395-0.348 0.366-0.525 1.172-0.486 1.685 0.012 0.151 0.039 0.303 0.167 0.395 0.358-0.012 0.579-0.227 0.774-0.41 0.207-0.194 0.367-0.434 0.546-0.653-0.026 0.177-0.055 0.32-0.091 0.531-0.024 0.142-0.121 0.443 0 0.516 0.181 0.109 0.629-0.29 0.744-0.38 0.074-0.057 0.175-0.119 0.091-0.197-0.141 0.031-0.238 0.237-0.456 0.243-0.095-0.127-0.025-0.294 0-0.425 0.198-1.022 0.425-2.040 0.622-3.037zM0.992 16.779c-0.095 0.085-0.394 0.337-0.546 0.258-0.176-0.091 0.010-0.887 0.046-1.032 0.071-0.289 0.2-0.72 0.38-0.835 0.232-0.15 0.605-0.043 0.85 0.046-0.081 0.648-0.338 1.215-0.729 1.564zM4.454 16.764c-0.209 0.037-0.385 0.438-0.167 0.577 0.401 0.255 0.669-0.666 0.167-0.577z"></path>
</svg>
