<?xml version="1.0" encoding="utf-8"?>
<!-- Generator: Adobe Illustrator 17.0.0, SVG Export Plug-In . SVG Version: 6.00 Build 0)  -->
<!DOCTYPE svg PUBLIC "-//W3C//DTD SVG 1.1//EN" "http://www.w3.org/Graphics/SVG/1.1/DTD/svg11.dtd">
<svg version="1.1" id="Layer_1" xmlns="http://www.w3.org/2000/svg" xmlns:xlink="http://www.w3.org/1999/xlink" x="0px" y="0px"
	 width="49.958px" height="50px" viewBox="0 0 49.958 50" enable-background="new 0 0 49.958 50" xml:space="preserve">
<g>
	<defs>
		<rect id="SVGID_1_" x="0.257" y="0.512" width="49.536" height="49.536"/>
	</defs>
	<clipPath id="SVGID_2_">
		<use xlink:href="#SVGID_1_"  overflow="visible"/>
	</clipPath>
	<path clip-path="url(#SVGID_2_)" fill="#B7B7B7" d="M20.381,0.512c-11.114,0-20.123,9.009-20.123,20.123
		s9.009,20.123,20.123,20.123s20.12-9.009,20.12-20.123S31.495,0.512,20.381,0.512"/>
	<path clip-path="url(#SVGID_2_)" fill="#FFFFFF" d="M20.381,3.619c-9.398,0-17.017,7.618-17.017,17.017s7.618,17.017,17.017,17.017
		s17.014-7.618,17.014-17.017S29.779,3.619,20.381,3.619"/>
	<path clip-path="url(#SVGID_2_)" fill="#B7B7B7" d="M49.308,47.214L35.593,33.499c-0.647-0.647-1.699-0.647-2.346,0
		c-0.65,0.65-0.65,1.699,0,2.349l13.712,13.715c0.65,0.647,1.699,0.647,2.349,0C49.955,48.914,49.955,47.864,49.308,47.214"/>
</g>
</svg>
