<!-- Optimised/Generated by IcoMoon.io -->
<svg version="1.1" xmlns="http://www.w3.org/2000/svg" width="32" height="32" viewBox="0 0 32 32">
<title>magnifier</title>
<path d="M31.684 30.167l-8.859-8.859c-0.189-0.168-0.439-0.271-0.714-0.271-0.593 0-1.075 0.481-1.075 1.075 0 0.275 0.103 0.525 0.272 0.715l-0.001-0.001 8.859 8.859c0.194 0.194 0.462 0.314 0.759 0.314 0.592 0 1.073-0.48 1.073-1.073 0-0.296-0.12-0.564-0.314-0.759v0z"></path>
<path d="M13 23.99c-6.070 0-10.99-4.921-10.99-10.99s4.92-10.99 10.99-10.99c6.070 0 10.99 4.92 10.99 10.99v0c-0.003 6.069-4.922 10.988-10.99 10.99h-0zM13 0c-0.001 0-0.003 0-0.005 0-7.179 0-13 5.82-13 13s5.82 13 13 13c7.179 0 13-5.82 13-13v0c0-7.178-5.818-12.997-12.995-13h-0z"></path>
</svg>
