<svg xmlns="http://www.w3.org/2000/svg" xmlns:xlink="http://www.w3.org/1999/xlink" viewBox="0 0 49.958 50"><defs><path id="a" d="M.257.512h49.536v49.536H.257z"/></defs><clipPath id="b"><use xlink:href="#a" overflow="visible"/></clipPath><path clip-path="url(#b)" fill="#B7B7B7" d="M20.381.512C9.267.512.258 9.521.258 20.635s9.009 20.123 20.123 20.123 20.12-9.009 20.12-20.123S31.495.512 20.381.512"/><path clip-path="url(#b)" fill="#FFF" d="M20.381 3.619c-9.398 0-17.017 7.618-17.017 17.017s7.618 17.017 17.017 17.017 17.014-7.618 17.014-17.017S29.779 3.619 20.381 3.619"/><path clip-path="url(#b)" fill="#B7B7B7" d="M49.308 47.214L35.593 33.499a1.66 1.66 0 00-2.346 2.349l13.712 13.715c.65.647 1.699.647 2.349 0a1.664 1.664 0 000-2.349"/></svg>