<!-- Optimised/Generated by IcoMoon.io -->
<svg version="1.1" xmlns="http://www.w3.org/2000/svg" width="32" height="32" viewBox="0 0 32 32">
<title>next</title>
<path d="M25.157 15.996c-0.001 0.639-0.259 1.217-0.677 1.636l-13.69 13.692c-0.419 0.419-0.997 0.678-1.636 0.678-1.277 0-2.312-1.035-2.312-2.312 0-0.64 0.26-1.219 0.68-1.638l12.056-12.056-12.056-12.049c-0.418-0.418-0.676-0.996-0.676-1.634 0-1.277 1.035-2.312 2.312-2.312 0.637 0 1.214 0.258 1.633 0.675l13.69 13.685c0.418 0.418 0.677 0.996 0.677 1.635 0 0 0 0.001 0 0.001v-0z"></path>
</svg>
