<svg xmlns="http://www.w3.org/2000/svg" xmlns:xlink="http://www.w3.org/1999/xlink" version="1.1" id="Layer_1" x="0" y="0" xml:space="preserve" viewBox="0 0 13.8 62.3"><g id="g18" transform="translate(-28.5 -4.1)"><defs id="defs7"><path id="SVGID_1_" d="M28.5 4.1h13.8v62.4H28.5z"/></defs><clipPath id="SVGID_2_"><use xlink:href="#SVGID_1_" id="use9" x="0" y="0" width="100%" height="100%" overflow="visible"/></clipPath><path class="st0" d="M35.4 17.9c3.8 0 6.9-3.1 6.9-6.9 0-3.8-3.1-6.9-6.9-6.9-3.8 0-6.9 3.1-6.9 6.9 0 3.8 3.1 6.9 6.9 6.9" clip-path="url(#SVGID_2_)" id="path12"/><path class="st0" d="M35.4 42.2c3.8 0 6.9-3.1 6.9-6.9 0-3.8-3.1-6.9-6.9-6.9-3.8 0-6.9 3.1-6.9 6.9 0 3.8 3.1 6.9 6.9 6.9" clip-path="url(#SVGID_2_)" id="path14"/><path class="st0" d="M35.4 66.4c3.8 0 6.9-3.1 6.9-6.9 0-3.8-3.1-6.9-6.9-6.9-3.8 0-6.9 3.1-6.9 6.9 0 3.8 3.1 6.9 6.9 6.9" clip-path="url(#SVGID_2_)" id="path16"/></g></svg>