<?xml version="1.0" encoding="UTF-8" standalone="no"?>
<!-- Generator: Adobe Illustrator 21.0.2, SVG Export Plug-In . SVG Version: 6.00 Build 0)  -->

<svg
   xmlns:dc="http://purl.org/dc/elements/1.1/"
   xmlns:cc="http://creativecommons.org/ns#"
   xmlns:rdf="http://www.w3.org/1999/02/22-rdf-syntax-ns#"
   xmlns:svg="http://www.w3.org/2000/svg"
   xmlns="http://www.w3.org/2000/svg"
   xmlns:xlink="http://www.w3.org/1999/xlink"
   xmlns:sodipodi="http://sodipodi.sourceforge.net/DTD/sodipodi-0.dtd"
   xmlns:inkscape="http://www.inkscape.org/namespaces/inkscape"
   version="1.1"
   id="Layer_1"
   x="0px"
   y="0px"
   viewBox="0 0 13.8 62.299998"
   xml:space="preserve"
   sodipodi:docname="options-menu.svg"
   width="13.8"
   height="62.299999"
   inkscape:version="0.92.3 (2405546, 2018-03-11)"><metadata
   id="metadata25"><rdf:RDF><cc:Work
       rdf:about=""><dc:format>image/svg+xml</dc:format><dc:type
         rdf:resource="http://purl.org/dc/dcmitype/StillImage" /></cc:Work></rdf:RDF></metadata><defs
   id="defs23" /><sodipodi:namedview
   pagecolor="#ffffff"
   bordercolor="#666666"
   borderopacity="1"
   objecttolerance="10"
   gridtolerance="10"
   guidetolerance="10"
   inkscape:pageopacity="0"
   inkscape:pageshadow="2"
   inkscape:window-width="1486"
   inkscape:window-height="1025"
   id="namedview21"
   showgrid="false"
   inkscape:zoom="3.3286318"
   inkscape:cx="6.9500008"
   inkscape:cy="30.949999"
   inkscape:window-x="67"
   inkscape:window-y="0"
   inkscape:window-maximized="0"
   inkscape:current-layer="Layer_1" />
<style
   type="text/css"
   id="style2">
	.st0{clip-path:url(#SVGID_2_);}
</style>
<title
   id="title4">icons-collected</title>
<g
   id="g18"
   transform="translate(-28.5,-4.1)">
	<defs
   id="defs7">
		<rect
   id="SVGID_1_"
   x="28.5"
   y="4.0999999"
   width="13.8"
   height="62.400002" />
	</defs>
	<clipPath
   id="SVGID_2_">
		<use
   xlink:href="#SVGID_1_"
   style="overflow:visible"
   id="use9"
   x="0"
   y="0"
   width="100%"
   height="100%" />
	</clipPath>
	<path
   class="st0"
   d="m 35.4,17.9 c 3.8,0 6.9,-3.1 6.9,-6.9 0,-3.8 -3.1,-6.9 -6.9,-6.9 -3.8,0 -6.9,3.1 -6.9,6.9 0,3.8 3.1,6.9 6.9,6.9"
   clip-path="url(#SVGID_2_)"
   id="path12"
   inkscape:connector-curvature="0" />
	<path
   class="st0"
   d="m 35.4,42.2 c 3.8,0 6.9,-3.1 6.9,-6.9 0,-3.8 -3.1,-6.9 -6.9,-6.9 -3.8,0 -6.9,3.1 -6.9,6.9 0,3.8 3.1,6.9 6.9,6.9"
   clip-path="url(#SVGID_2_)"
   id="path14"
   inkscape:connector-curvature="0" />
	<path
   class="st0"
   d="m 35.4,66.4 c 3.8,0 6.9,-3.1 6.9,-6.9 0,-3.8 -3.1,-6.9 -6.9,-6.9 -3.8,0 -6.9,3.1 -6.9,6.9 0,3.8 3.1,6.9 6.9,6.9"
   clip-path="url(#SVGID_2_)"
   id="path16"
   inkscape:connector-curvature="0" />
</g>
</svg>