<!-- Optimised/Generated by IcoMoon.io -->
<svg version="1.1" xmlns="http://www.w3.org/2000/svg" width="32" height="32" viewBox="0 0 32 32">
<title>options-menu</title>
<path d="M15.948 7.123c1.961 0 3.561-1.6 3.561-3.561s-1.6-3.561-3.561-3.561c-1.961 0-3.561 1.6-3.561 3.561s1.6 3.561 3.561 3.561z"></path>
<path d="M15.948 19.665c1.961 0 3.561-1.6 3.561-3.561s-1.6-3.561-3.561-3.561c-1.961 0-3.561 1.6-3.561 3.561s1.6 3.561 3.561 3.561z"></path>
<path d="M15.948 32.155c1.961 0 3.561-1.6 3.561-3.561s-1.6-3.561-3.561-3.561c-1.961 0-3.561 1.6-3.561 3.561s1.6 3.561 3.561 3.561z"></path>
</svg>
