<svg data-name="Layer 1" xmlns="http://www.w3.org/2000/svg" xmlns:xlink="http://www.w3.org/1999/xlink" viewBox="0 0 70.87 70.87"><defs><style>.cls-1{fill:none;}.cls-2{clip-path:url(#clip-path);}.cls-3{fill:#1d1d1b;}</style><clipPath><rect class="cls-1" y="3.21" width="70.87" height="64.44"/></clipPath></defs><title>icons-collected</title><g class="cls-2"><path class="cls-3" d="M3.33,64.43C4.13,58.93,9,56.68,13.75,55a11.71,11.71,0,0,0,8.83-11.32A15,15,0,0,0,18.69,33c-.17-.2-.33-.38-.45-.55l-.12-.15c-.11-.22-.75-1.67.09-5.15A3.22,3.22,0,0,0,18,25c-.8-1.76-2.92-6.45-1.5-9.92,1.92-4.7,3.62-5.64,6.72-7a3.27,3.27,0,0,0,.44-.24,13.13,13.13,0,0,1,5.93-1.44,7.44,7.44,0,0,1,3.63.82c1.16.64,2.26,1.83,3.84,5.55,2.24,5.25,1.68,9.74.13,11.85a3.23,3.23,0,0,0-.53,2.66c.78,3.24.21,4.55.09,4.77a3.51,3.51,0,0,0-.27.32c-.12.17-.28.35-.45.55a15,15,0,0,0-3.89,10.74A11.71,11.71,0,0,0,41,55c4.68,1.65,9.62,3.89,10.42,9.42Zm38.6-12.51s-6.54-1.53-6.54-8.23c0-5.89,2.69-8,3.72-9.39,0,0,2.13-1.83.71-7.74,2.38-3.24,2.83-9,.24-15C38.44,7.73,37,5.64,34.82,4.43a10.67,10.67,0,0,0-5.2-1.22,16,16,0,0,0-7.67,1.95c-3.65,1.6-6.11,3.09-8.41,8.73-1.87,4.58.38,9.88,1.55,12.47-1.43,5.91.55,7.94.55,7.94,1,1.43,3.73,3.5,3.73,9.39,0,6.7-6.54,8.23-6.54,8.23C8.67,53.38,0,56.38,0,66a1.58,1.58,0,0,0,1.61,1.61H53.15A1.58,1.58,0,0,0,54.76,66c0-9.66-8.67-12.66-12.83-14.12m17.24-1.65s-6-1.38-6-7.41c0-5.3,2.85-7.16,3.8-8.45,0,0,1.95-1.65.64-7,2.17-2.91,2.67-8.06.32-13.52-1.48-3.42-3.29-5.3-5.28-6.39a9.82,9.82,0,0,0-4.74-1.1,15.68,15.68,0,0,0-6.11,1.29c.41.8.8,1.64,1.19,2.54.05.13.09.26.14.39a12.46,12.46,0,0,1,4.77-1,6.59,6.59,0,0,1,3.19.7c1,.55,2.49,1.65,3.87,4.84,2,4.54,1.44,8.46.05,10.32a3.22,3.22,0,0,0-.54,2.69c.65,2.66.23,3.79.13,4a3.46,3.46,0,0,0-.24.29c-.06.09-.29.33-.45.5a13.23,13.23,0,0,0-4,9.86c0,6.65,5.3,9.74,8.27,10.5,4.24,1.48,8.38,3.33,9.23,7.85H57.3a16.5,16.5,0,0,1,.6,3.22H69.4A1.42,1.42,0,0,0,70.86,63c0-8.7-7.9-11.39-11.69-12.71"/></g></svg>