<!-- Optimised/Generated by IcoMoon.io -->
<svg version="1.1" xmlns="http://www.w3.org/2000/svg" width="32" height="32" viewBox="0 0 32 32">
<title>people</title>
<path d="M1.504 29.092c0.361-2.483 2.56-3.499 4.705-4.258 2.305-0.599 3.98-2.659 3.987-5.111v-0.001c0.003-0.079 0.005-0.172 0.005-0.266 0-1.757-0.669-3.358-1.767-4.562l0.005 0.005c-0.077-0.090-0.149-0.172-0.203-0.248l-0.054-0.068c-0.050-0.099-0.339-0.754 0.041-2.325 0.028-0.106 0.043-0.227 0.043-0.352 0-0.225-0.051-0.437-0.142-0.627l0.004 0.009c-0.361-0.795-1.318-2.912-0.677-4.479 0.867-2.122 1.635-2.547 3.034-3.161 0.077-0.035 0.142-0.071 0.204-0.112l-0.006 0.003c0.778-0.406 1.7-0.646 2.676-0.65h0.001c0.031-0.001 0.067-0.002 0.103-0.002 0.561 0 1.090 0.138 1.555 0.381l-0.019-0.009c0.524 0.289 1.020 0.826 1.734 2.506 1.011 2.371 0.759 4.398 0.059 5.351-0.175 0.238-0.28 0.536-0.28 0.859 0 0.121 0.015 0.239 0.043 0.352l-0.002-0.010c0.352 1.463 0.095 2.054 0.041 2.154-0.042 0.044-0.082 0.091-0.119 0.14l-0.003 0.004c-0.054 0.077-0.126 0.158-0.203 0.248-1.093 1.198-1.763 2.8-1.763 4.558 0 0.103 0.002 0.205 0.007 0.306l-0.001-0.014c0.004 2.46 1.687 4.525 3.964 5.112l0.037 0.008c2.113 0.745 4.344 1.756 4.705 4.253zM18.933 23.444s-2.953-0.691-2.953-3.716c0-2.66 1.215-3.612 1.68-4.24 0 0 0.962-0.826 0.321-3.495 1.075-1.463 1.278-4.064 0.108-6.773-0.731-1.729-1.382-2.673-2.366-3.219-0.649-0.348-1.421-0.552-2.239-0.552-0.038 0-0.076 0-0.114 0.001l0.006-0c-0.002 0-0.004 0-0.007 0-1.267 0-2.458 0.326-3.494 0.899l0.037-0.019c-1.648 0.722-2.759 1.395-3.797 3.942-0.844 2.068 0.172 4.461 0.7 5.631-0.646 2.669 0.248 3.585 0.248 3.585 0.452 0.646 1.684 1.58 1.684 4.24 0 3.025-2.953 3.716-2.953 3.716-1.878 0.659-5.793 2.014-5.793 6.358-0 0.004-0 0.009-0 0.014 0 0.394 0.319 0.713 0.713 0.713 0.005 0 0.010-0 0.014-0h23.271c0.004 0 0.009 0 0.014 0 0.394 0 0.713-0.319 0.713-0.713 0-0.005-0-0.010-0-0.014v0.001c0-4.362-3.915-5.716-5.793-6.376zM26.717 22.68s-2.709-0.623-2.709-3.346c0-2.393 1.287-3.233 1.716-3.815 0 0 0.881-0.745 0.289-3.161 0.98-1.314 1.206-3.639 0.145-6.105-0.668-1.544-1.486-2.393-2.384-2.885-0.593-0.314-1.295-0.498-2.041-0.498-0.035 0-0.070 0-0.104 0.001l0.005-0c-0.999 0.008-1.946 0.221-2.804 0.6l0.045-0.018c0.185 0.361 0.361 0.74 0.537 1.147 0.023 0.059 0.041 0.117 0.063 0.176 0.635-0.278 1.374-0.444 2.151-0.452l0.003-0c0.030-0.001 0.066-0.002 0.102-0.002 0.488 0 0.948 0.117 1.355 0.326l-0.017-0.008c0.452 0.248 1.124 0.745 1.747 2.185 0.903 2.050 0.65 3.82 0.023 4.66-0.179 0.239-0.286 0.54-0.286 0.866 0 0.124 0.015 0.244 0.045 0.358l-0.002-0.010c0.294 1.201 0.104 1.711 0.059 1.806-0.037 0.040-0.072 0.082-0.105 0.127l-0.003 0.004c-0.027 0.041-0.131 0.149-0.203 0.226-1.116 1.087-1.809 2.603-1.809 4.282 0 0.060 0.001 0.119 0.003 0.179l-0-0.009c0 3.003 2.393 4.398 3.734 4.741 1.915 0.668 3.784 1.504 4.168 3.545h-4.565c0.128 0.422 0.224 0.916 0.269 1.426l0.002 0.028h5.193c0.006 0 0.012 0 0.019 0 0.343 0 0.623-0.269 0.64-0.608l0-0.002c0-3.928-3.567-5.143-5.278-5.739z"></path>
</svg>
