<svg id="Layer_1" data-name="Layer 1" xmlns="http://www.w3.org/2000/svg" viewBox="0 0 70.8662 70.8662"><path d="M35.4331,0A35.4331,35.4331,0,1,0,70.8662,35.4331,35.4698,35.4698,0,0,0,35.4331,0Zm0,4.83179A30.60131,30.60131,0,1,1,4.8318,35.4331,30.56474,30.56474,0,0,1,35.4331,4.83179ZM28.0596,20.1324a2.41617,2.41617,0,0,0-2.2901,2.4159V48.3179a2.41617,2.41617,0,0,0,3.6742,2.0383L50.3814,37.4967a2.41614,2.41614,0,0,0,0-4.1272L29.4437,20.4848A2.41588,2.41588,0,0,0,28.0596,20.1324Zm2.5417,6.7193,13.9165,8.5814L30.6013,43.9894Z" style="fill:#010101"/></svg>