<!-- Optimised/Generated by IcoMoon.io -->
<svg version="1.1" xmlns="http://www.w3.org/2000/svg" width="32" height="32" viewBox="0 0 32 32">
<title>play</title>
<path d="M16 0c-8.837 0-16 7.163-16 16s7.163 16 16 16c8.837 0 16-7.163 16-16v0c-0.009-8.833-7.167-15.991-15.999-16h-0.001zM16 2.182c7.632 0 13.818 6.187 13.818 13.818s-6.187 13.818-13.818 13.818c-7.632 0-13.818-6.187-13.818-13.818v0c0-0.005 0-0.011 0-0.017 0-7.622 6.179-13.802 13.802-13.802 0.006 0 0.012 0 0.017 0h-0.001zM12.67 9.091c-0.578 0.031-1.034 0.507-1.034 1.090 0 0 0 0.001 0 0.001v-0 11.636c0.006 0.598 0.492 1.080 1.091 1.080 0.21 0 0.406-0.059 0.573-0.162l-0.005 0.003 9.455-5.807c0.316-0.195 0.524-0.539 0.524-0.932s-0.207-0.737-0.519-0.929l-0.005-0.003-9.455-5.818c-0.162-0.101-0.359-0.161-0.57-0.161-0.019 0-0.039 0.001-0.058 0.002l0.003-0zM13.818 12.125l6.284 3.875-6.284 3.864z"></path>
</svg>
