<!-- Optimised/Generated by IcoMoon.io -->
<svg version="1.1" xmlns="http://www.w3.org/2000/svg" width="32" height="32" viewBox="0 0 32 32">
<title>prev</title>
<path d="M6.843 16.004c0.001-0.639 0.259-1.217 0.677-1.636l13.69-13.692c0.418-0.417 0.995-0.675 1.633-0.675 1.277 0 2.312 1.035 2.312 2.312 0 0.638-0.258 1.216-0.676 1.634l-12.056 12.056 12.056 12.049c0.418 0.418 0.676 0.996 0.676 1.634 0 1.277-1.035 2.312-2.312 2.312-0.637 0-1.214-0.258-1.633-0.675l-13.69-13.685c-0.418-0.418-0.677-0.996-0.677-1.635 0-0 0-0.001 0-0.001v0z"></path>
</svg>
