<svg id="Layer_1" data-name="Layer 1" xmlns="http://www.w3.org/2000/svg" viewBox="0 0 70.8662 70.8662"><path d="M68.5041,18.8977H61.4174V2.36229A2.36225,2.36225,0,0,0,59.0551.00005H11.811A2.36227,2.36227,0,0,0,9.4489,2.36229V18.8977H2.3623A2.36223,2.36223,0,0,0,0,21.2599V59.0552a2.36232,2.36232,0,0,0,2.3623,2.3623H9.4489v7.0866a2.36225,2.36225,0,0,0,2.3621,2.3622H59.0551a2.36223,2.36223,0,0,0,2.3623-2.3622V61.4175h7.0867a2.36227,2.36227,0,0,0,2.3621-2.3623V21.2599A2.36219,2.36219,0,0,0,68.5041,18.8977ZM14.1733,4.72447H56.6931V18.8977H14.1733ZM56.6931,66.1418H14.1733V44.882H56.6931V66.1418Zm9.4487-9.4488H61.4174V42.5198a2.36223,2.36223,0,0,0-2.3623-2.3622H11.811a2.36225,2.36225,0,0,0-2.3621,2.3622V56.693H4.7246V23.6221H66.1418Z"/><path d="M56.6931,30.7088a2.36215,2.36215,0,1,0,2.362-2.3623A2.36217,2.36217,0,0,0,56.6931,30.7088Z"/><path d="M50.2773,50.0002H20.5891a2.00187,2.00187,0,0,0,0,4H50.2773a2.00187,2.00187,0,0,0,0-4Z"/><path d="M50.2773,58.0555H20.5891a2.00187,2.00187,0,0,0,0,4H50.2773a2.00187,2.00187,0,0,0,0-4Z"/></svg>