<!-- Optimised/Generated by IcoMoon.io -->
<svg version="1.1" xmlns="http://www.w3.org/2000/svg" width="32" height="32" viewBox="0 0 32 32">
<title>print</title>
<path d="M30.933 8.533h-3.2v-7.467c0-0.589-0.478-1.067-1.067-1.067 0 0-0 0-0 0h-21.333c-0.589 0-1.067 0.478-1.067 1.067v0 7.467h-3.2c0 0-0 0-0 0-0.589 0-1.067 0.478-1.067 1.067v0 17.067c0 0.589 0.478 1.067 1.067 1.067h3.2v3.2c0 0.589 0.478 1.067 1.067 1.067h21.333c0 0 0 0 0 0 0.589 0 1.067-0.478 1.067-1.067v0-3.2h3.2c0.589-0 1.067-0.478 1.067-1.067 0 0 0 0 0 0v0-17.067c0 0 0 0 0 0 0-0.589-0.478-1.067-1.067-1.067v0zM6.4 2.133h19.2v6.4h-19.2zM25.6 29.867h-19.2v-9.6h19.2v9.6zM29.867 25.6h-2.133v-6.4c0-0.589-0.478-1.067-1.067-1.067 0 0-0 0-0 0h-21.333c-0.589 0-1.067 0.478-1.067 1.067v0 6.4h-2.133v-14.933h27.733z"></path>
<path d="M25.6 13.867c0 0.589 0.478 1.067 1.067 1.067s1.067-0.478 1.067-1.067c0-0.589-0.478-1.067-1.067-1.067-0 0-0 0-0 0v0c-0.589 0-1.067 0.478-1.067 1.067 0 0 0 0 0 0v0z"></path>
<path d="M22.703 22.578h-13.406c-0.482 0.021-0.865 0.418-0.865 0.903s0.383 0.882 0.863 0.903l0.002 0h13.406c0.482-0.021 0.865-0.418 0.865-0.903s-0.383-0.882-0.863-0.903l-0.002-0z"></path>
<path d="M22.703 26.215h-13.406c-0.482 0.021-0.865 0.418-0.865 0.903s0.383 0.882 0.863 0.903l0.002 0h13.406c0.482-0.021 0.865-0.418 0.865-0.903s-0.383-0.882-0.863-0.903l-0.002-0z"></path>
</svg>
