<!-- Optimised/Generated by IcoMoon.io -->
<svg version="1.1" xmlns="http://www.w3.org/2000/svg" width="32" height="32" viewBox="0 0 32 32">
<title>refresh</title>
<path d="M28.396 15.961l2.961-6.2-3.361 1.191c-2.041-4.979-6.907-8.285-12.317-8.285-5.631 0-10.677 3.573-12.559 8.888l2.513 0.891c1.505-4.253 5.543-7.112 10.045-7.112 4.283 0 8.117 2.601 9.781 6.515l-3.265 1.155z"></path>
<path d="M0 22.24l3.36-1.191c2.043 4.979 6.907 8.284 12.319 8.284 5.631 0 10.677-3.573 12.559-8.888l-2.513-0.891c-1.507 4.253-5.543 7.112-10.045 7.112-4.283 0-8.117-2.601-9.779-6.515l3.263-1.155-6.201-2.959z"></path>
</svg>
