<svg data-name="Layer 1" xmlns="http://www.w3.org/2000/svg" viewBox="0 0 70.87 70.87"><defs><clipPath id="a"><path fill="none" d="M0 0h70.87v70.87H0z"/></clipPath></defs><g clip-path="url(#a)"><path d="M47.25 57.74a2.48 2.48 0 01-2.63 2.63H26.25a2.62 2.62 0 010-5.25h18.37a2.48 2.48 0 012.63 2.62m0-10.49a2.48 2.48 0 01-2.63 2.62H26.25a2.62 2.62 0 010-5.25h18.37a2.48 2.48 0 012.63 2.63m10.49 18.37V40.68a6.5 6.5 0 00-6.56-6.56H19.69a6.5 6.5 0 00-6.56 6.56v24.94H5.25V5.25H21v12.33a6.1 6.1 0 006 6h17.09a6.1 6.1 0 006-6V5.25h3.41l12.38 12.33-.26 48zm-39.37 0V40.68a1.24 1.24 0 011.31-1.31h31.24a1.24 1.24 0 011.31 1.31v24.94zM44.62 5.25v12.33a.84.84 0 01-.79.79H26.77a.84.84 0 01-.79-.79V5.25zm24.67 8.66L57 1.57A5.18 5.18 0 0053.28 0h-48A5.26 5.26 0 000 5.25v60.37a5.26 5.26 0 005.24 5.25h60.38a5.27 5.27 0 005.25-5.25v-48a4.4 4.4 0 00-1.58-3.67"/></g></svg>