<svg id="Layer_1" data-name="Layer 1" xmlns="http://www.w3.org/2000/svg" xmlns:xlink="http://www.w3.org/1999/xlink" viewBox="0 0 70.87 70.87"><defs><style>.cls-1{fill:none;}.cls-2{clip-path:url(#clip-path);}.cls-3{fill:#1d1d1b;}</style><clipPath id="clip-path"><rect class="cls-1" width="70.87" height="70.87"/></clipPath></defs><title>icons-collected</title><g class="cls-2"><path class="cls-3" d="M47.25,57.74a2.48,2.48,0,0,1-2.63,2.63H26.25a2.62,2.62,0,0,1,0-5.25H44.62a2.48,2.48,0,0,1,2.63,2.62m0-10.49a2.48,2.48,0,0,1-2.63,2.62H26.25a2.62,2.62,0,0,1,0-5.25H44.62a2.48,2.48,0,0,1,2.63,2.63M57.74,65.62V40.68a6.5,6.5,0,0,0-6.56-6.56H19.69a6.5,6.5,0,0,0-6.56,6.56V65.62H5.25V5.25H21V17.58a6.1,6.1,0,0,0,6,6H44.09a6.1,6.1,0,0,0,6-6V5.25h3.41L65.88,17.58l-.26,48Zm-39.37,0V40.68a1.24,1.24,0,0,1,1.31-1.31H50.92a1.24,1.24,0,0,1,1.31,1.31V65.62ZM44.62,5.25V17.58a.84.84,0,0,1-.79.79H26.77a.84.84,0,0,1-.79-.79V5.25Zm24.67,8.66L57,1.57A5.18,5.18,0,0,0,53.28,0h-48A5.26,5.26,0,0,0,0,5.25V65.62a5.26,5.26,0,0,0,5.24,5.25H65.62a5.27,5.27,0,0,0,5.25-5.25v-48a4.4,4.4,0,0,0-1.58-3.67"/></g></svg>