<!-- Optimised/Generated by IcoMoon.io -->
<svg version="1.1" xmlns="http://www.w3.org/2000/svg" width="32" height="32" viewBox="0 0 32 32">
<title>save-file</title>
<path d="M21.335 26.071c0.001 0.021 0.002 0.045 0.002 0.070 0 0.618-0.501 1.12-1.12 1.12-0.025 0-0.049-0.001-0.073-0.002l0.003 0h-8.295c-0.655 0-1.185-0.531-1.185-1.185s0.531-1.185 1.185-1.185h8.295c0.021-0.001 0.045-0.002 0.070-0.002 0.618 0 1.12 0.501 1.12 1.12 0 0.023-0.001 0.046-0.002 0.069l0-0.003zM21.335 21.335c0.001 0.020 0.002 0.042 0.002 0.065 0 0.618-0.501 1.12-1.12 1.12-0.024 0-0.049-0.001-0.073-0.002l0.003 0h-8.295c-0.655 0-1.185-0.531-1.185-1.185s0.531-1.185 1.185-1.185h8.295c0.021-0.001 0.045-0.002 0.070-0.002 0.618 0 1.12 0.501 1.12 1.12 0 0.025-0.001 0.049-0.002 0.073l0-0.003zM26.071 29.629v-11.261c0-0.008 0-0.018 0-0.027 0-1.621-1.314-2.935-2.935-2.935-0.010 0-0.019 0-0.029 0h-14.217c-0.008-0-0.018-0-0.027-0-1.621 0-2.935 1.314-2.935 2.935 0 0.010 0 0.019 0 0.029v-0.001 11.261h-3.558v-27.259h7.112v5.567c0.025 1.486 1.223 2.684 2.707 2.709l0.002 0h7.717c1.486-0.025 2.684-1.223 2.709-2.707l0-0.002v-5.567h1.54l5.59 5.567-0.117 21.674zM8.295 29.629v-11.261c-0.001-0.010-0.001-0.021-0.001-0.033 0-0.309 0.251-0.56 0.56-0.56 0.011 0 0.023 0 0.034 0.001l-0.002-0h14.106c0.010-0.001 0.021-0.001 0.033-0.001 0.309 0 0.56 0.251 0.56 0.56 0 0.011-0 0.023-0.001 0.034l0-0.002v11.261zM20.147 2.371v5.567c-0.011 0.192-0.165 0.345-0.356 0.357l-0.001 0h-7.703c-0.192-0.011-0.345-0.165-0.357-0.356l-0-0.001v-5.567zM31.287 6.281l-5.549-5.572c-0.425-0.437-1.020-0.709-1.677-0.709-0.001 0-0.002 0-0.002 0h-21.673c-0.003 0-0.006-0-0.009-0-1.31 0-2.373 1.061-2.375 2.37v27.259c0.003 1.307 1.060 2.365 2.366 2.371h27.264c1.307-0.005 2.365-1.063 2.371-2.37v-21.674c0.003-0.038 0.004-0.083 0.004-0.129 0-0.613-0.278-1.162-0.714-1.526l-0.003-0.003z"></path>
</svg>
