<!-- Generated by IcoMoon.io -->
<svg version="1.1" xmlns="http://www.w3.org/2000/svg" width="32" height="32" viewBox="0 0 32 32">
<title>separator-vertical</title>
<path d="M0 16c0-0.315 0.128-0.601 0.335-0.807l6.74-6.74c0.207-0.207 0.492-0.335 0.802-0.335 0.63 0 1.137 0.507 1.137 1.137 0 0.315-0.128 0.601-0.335 0.802l-5.937 5.937 5.937 5.932c0.207 0.207 0.335 0.492 0.335 0.802 0 0.63-0.507 1.137-1.137 1.137-0.315 0-0.596-0.128-0.802-0.33l-6.74-6.73c-0.207-0.207-0.335-0.492-0.335-0.807v0s0 0 0 0z"></path>
<path d="M31.508 16c0 0.315-0.128 0.601-0.335 0.807l-6.74 6.74c-0.207 0.207-0.492 0.335-0.802 0.335-0.63 0-1.137-0.507-1.137-1.137 0-0.315 0.128-0.601 0.335-0.802l5.937-5.937-5.937-5.932c-0.207-0.207-0.335-0.492-0.335-0.802 0-0.63 0.507-1.137 1.137-1.137 0.315 0 0.596 0.128 0.802 0.33l6.74 6.735c0.207 0.207 0.335 0.492 0.335 0.807v0s0 0 0 0z"></path>
<path d="M15.754 0c0.612 0 1.108 0.496 1.108 1.108v29.785c0 0.612-0.496 1.108-1.108 1.108s-1.108-0.496-1.108-1.108v-29.785c0-0.612 0.496-1.108 1.108-1.108z"></path>
</svg>
