<svg id="Layer_1" data-name="Layer 1" xmlns="http://www.w3.org/2000/svg" viewBox="0 0 70.8662 70.8662"><path d="M56.1165,59.5009a3.618,3.618,0,0,1-3.6143,3.6143H9.1306a3.61777,3.61777,0,0,1-3.6142-3.6143V21.0546a3.61786,3.61786,0,0,1,3.6142-3.6144H42.4129V12.0188H9.1306A9.04587,9.04587,0,0,0,.095,21.0546V59.5009a9.04587,9.04587,0,0,0,9.0356,9.0358H52.5022a9.046,9.046,0,0,0,9.0357-9.0358V31.3572H56.1165Z" style="fill:#1d1d1b"/><path d="M70.7664,5.18042a2.63031,2.63031,0,0,0-.0469-.463c-.0163-.08283-.0469-.15961-.0708-.23938a2.59256,2.59256,0,0,0-.0779-.25128,2.59041,2.59041,0,0,0-.1357-.25788c-.0357-.06469-.0637-.13195-.1052-.194a2.63832,2.63832,0,0,0-.7276-.72784c-.0639-.04267-.1333-.072-.1999-.10852a2.57445,2.57445,0,0,0-.2522-.13263,2.57956,2.57956,0,0,0-.2649-.08228c-.075-.02215-.1472-.05121-.2249-.06665a2.63077,2.63077,0,0,0-.5141-.05182H51.1053a2.625,2.625,0,0,0,0,5.25H61.8089L28.3943,41.2701a2.6251,2.6251,0,0,0,3.7129,3.712L65.5213,11.5676V22.5787a2.625,2.625,0,0,0,5.25,0V5.2301C70.7713,5.21308,70.7666,5.19739,70.7664,5.18042Z" style="fill:#1d1d1b"/></svg>