<!-- Optimised/Generated by IcoMoon.io -->
<svg version="1.1" xmlns="http://www.w3.org/2000/svg" width="32" height="32" viewBox="0 0 32 32">
<title>share</title>
<path d="M25.34 26.868c-0.001 0.901-0.731 1.631-1.632 1.632h-19.585c-0.901-0.001-1.631-0.731-1.632-1.632v-17.361c0.001-0.901 0.731-1.631 1.632-1.632h15.029v-2.448h-15.029c-2.252 0.003-4.077 1.828-4.080 4.080v17.361c0.003 2.252 1.828 4.078 4.080 4.080h19.585c2.252-0.003 4.078-1.828 4.080-4.080v-12.709h-2.448z"></path>
<path d="M31.955 2.339c-0.001-0.075-0.009-0.147-0.022-0.217l0.001 0.008c-0.007-0.037-0.021-0.072-0.032-0.108-0.012-0.047-0.024-0.085-0.038-0.122l0.003 0.008c-0.021-0.047-0.042-0.085-0.064-0.122l0.003 0.005c-0.016-0.029-0.029-0.060-0.047-0.088-0.088-0.131-0.198-0.24-0.324-0.326l-0.004-0.003c-0.029-0.019-0.060-0.032-0.090-0.049-0.031-0.019-0.068-0.039-0.107-0.057l-0.007-0.003c-0.031-0.012-0.071-0.025-0.112-0.035l-0.008-0.002c-0.034-0.010-0.066-0.023-0.102-0.030-0.070-0.015-0.15-0.023-0.232-0.023h-7.695c-0.655 0-1.185 0.531-1.185 1.185s0.531 1.185 1.185 1.185v0h4.833l-15.089 15.089c-0.214 0.214-0.346 0.51-0.346 0.837 0 0.655 0.531 1.185 1.185 1.185 0.327 0 0.623-0.132 0.837-0.346l15.088-15.088v4.972c0 0.655 0.531 1.185 1.185 1.185s1.185-0.531 1.185-1.185v0-7.834c0-0.008-0.002-0.015-0.002-0.022z"></path>
</svg>
