<?xml version="1.0" encoding="UTF-8" standalone="no"?>
<svg
   xmlns:dc="http://purl.org/dc/elements/1.1/"
   xmlns:cc="http://creativecommons.org/ns#"
   xmlns:rdf="http://www.w3.org/1999/02/22-rdf-syntax-ns#"
   xmlns:svg="http://www.w3.org/2000/svg"
   xmlns="http://www.w3.org/2000/svg"
   height="70.740196"
   width="57.91"
   version="1.1"
   viewBox="0 0 57.909998 70.740193"
   data-name="Layer 1"
   id="Layer_1">
  <metadata
     id="metadata22">
    <rdf:RDF>
      <cc:Work
         rdf:about="">
        <dc:format>image/svg+xml</dc:format>
        <dc:type
           rdf:resource="http://purl.org/dc/dcmitype/StillImage" />
        <dc:title>icons-collected</dc:title>
      </cc:Work>
    </rdf:RDF>
  </metadata>
  <defs
     id="defs7">
    <style
       id="style2">.cls-1{fill:none;}.cls-2{clip-path:url(#clip-path);}.cls-3{fill:#1d1d1b;}</style>
    <clipPath
       id="clip-path">
      <rect
         style="fill:none"
         y="0"
         id="rect4"
         height="70.910004"
         width="68.019997"
         x="7.0900002"
         class="cls-1" />
    </clipPath>
  </defs>
  <title
     id="title9">icons-collected</title>
  <g
     transform="translate(-7.0900002)"
     id="g17"
     clip-path="url(#clip-path)"
     class="cls-2">
    <path
       style="fill:#1d1d1b"
       id="path11"
       d="M 45.68,19.29 V 3.22 h 1.61 l 14.47,16.07 z m 16.08,45 a 3.22,3.22 0 0 1 -3.22,3.22 h -45 A 3.22,3.22 0 0 1 10.32,64.29 V 6.43 a 3.22,3.22 0 0 1 3.22,-3.22 h 28.92 v 16.08 a 3.22,3.22 0 0 0 3.22,3.22 H 61.76 Z M 48.89,0 H 13.52 A 6.43,6.43 0 0 0 7.09,6.43 v 57.88 a 6.43,6.43 0 0 0 6.43,6.43 h 45 A 6.43,6.43 0 0 0 65,64.31 V 17.69 Z"
       class="cls-3" />
    <rect
       style="fill:#1d1d1b"
       id="rect13"
       height="4.4499998"
       width="29.780001"
       y="41.029999"
       x="21.040001"
       class="cls-3" />
    <rect
       style="fill:#1d1d1b"
       id="rect15"
       height="30.360001"
       width="4.1599998"
       y="28.1"
       x="33.860001"
       class="cls-3" />
  </g>
  <path
     id="path829"
     d="m 5.3387118,67.15515 c -0.348805,-0.142496 -0.923123,-0.626397 -1.276261,-1.075341 l -0.642069,-0.81626 V 35.251286 5.239021 l 0.87779,-0.8777901 0.87779,-0.8777901 H 20.213893 35.251824 v 8.2730702 c 0,6.922407 0.07679,8.421576 0.47039,9.182703 0.842101,1.628446 1.654641,1.763211 10.630939,1.763211 h 8.117654 v 21.316321 21.316325 l -0.876175,0.980699 -0.876178,0.980703 -23.372775,0.05888 C 16.490652,67.387736 5.6875168,67.297644 5.3387118,67.15515 Z M 31.047671,52.131494 v -6.606526 h 6.456377 6.456378 v -2.252225 -2.252224 h -6.456378 -6.456377 v -6.456378 -6.456377 h -2.252225 -2.252224 v 6.456377 6.456378 h -6.306229 -6.306229 v 2.252224 2.252225 h 6.306229 6.306229 v 6.406327 c 0,3.523482 0.09009,6.496419 0.200197,6.606525 0.110109,0.11011 1.12361,0.200199 2.252225,0.200199 h 2.052027 z"
     style="fill:#ffffff;fill-opacity:1;stroke:#218e5d;stroke-width:0;stroke-miterlimit:4;stroke-dasharray:none;stroke-opacity:1" />
  <path
     id="path831"
     d="M 38.855383,11.291153 V 3.4834408 h 0.694643 c 0.619292,0 5.917147,5.6044422 13.696684,14.4893122 l 0.986018,1.126112 h -7.688673 -7.688672 z"
     style="fill:#ffffff;fill-opacity:1;stroke:#218e5d;stroke-width:0;stroke-miterlimit:4;stroke-dasharray:none;stroke-opacity:1" />
</svg>
