<svg id="Layer_1" data-name="Layer 1" xmlns="http://www.w3.org/2000/svg" xmlns:xlink="http://www.w3.org/1999/xlink" viewBox="0 0 70.87 70.87"><defs><style>.cls-1{fill:none;}.cls-2{clip-path:url(#clip-path);}.cls-3{fill:#1d1d1b;}</style><clipPath id="clip-path"><rect class="cls-1" x="7.09" width="68.02" height="70.91"/></clipPath></defs><title>icons-collected</title><g class="cls-2"><path class="cls-3" d="M45.68,19.29V3.22h1.61L61.76,19.29Zm16.08,45a3.22,3.22,0,0,1-3.22,3.22h-45a3.22,3.22,0,0,1-3.22-3.22V6.43a3.22,3.22,0,0,1,3.22-3.22H42.46V19.29a3.22,3.22,0,0,0,3.22,3.22H61.76ZM48.89,0H13.52A6.43,6.43,0,0,0,7.09,6.43V64.31a6.43,6.43,0,0,0,6.43,6.43h45A6.43,6.43,0,0,0,65,64.31V17.69Z"/><rect class="cls-3" x="21.04" y="41.03" width="29.78" height="4.45"/><rect class="cls-3" x="33.86" y="28.1" width="4.16" height="30.36"/></g></svg>