<svg id="Layer_1" data-name="Layer 1" xmlns="http://www.w3.org/2000/svg" viewBox="0 0 70.87 70.87"><defs><clipPath id="clip-path"><path fill="none" d="M7.09 0h68.02v70.91H7.09z"/></clipPath></defs><g clip-path="url(#clip-path)"><path class="cls-3" d="M45.68 19.29V3.22h1.61l14.47 16.07zm16.08 45a3.22 3.22 0 01-3.22 3.22h-45a3.22 3.22 0 01-3.22-3.22V6.43a3.22 3.22 0 013.22-3.22h28.92v16.08a3.22 3.22 0 003.22 3.22h16.08zM48.89 0H13.52a6.43 6.43 0 00-6.43 6.43v57.88a6.43 6.43 0 006.43 6.43h45A6.43 6.43 0 0065 64.31V17.69z"/><path class="cls-3" d="M21.04 41.03h29.78v4.45H21.04z"/><path class="cls-3" d="M33.86 28.1h4.16v30.36h-4.16z"/></g></svg>