<?xml version="1.0" encoding="UTF-8" standalone="no"?>
<svg
   xmlns:dc="http://purl.org/dc/elements/1.1/"
   xmlns:cc="http://creativecommons.org/ns#"
   xmlns:rdf="http://www.w3.org/1999/02/22-rdf-syntax-ns#"
   xmlns:svg="http://www.w3.org/2000/svg"
   xmlns="http://www.w3.org/2000/svg"
   height="70.839996"
   width="57.959999"
   version="1.1"
   viewBox="0 0 57.959997 70.839994"
   data-name="Layer 1"
   id="Layer_1">
  <metadata
     id="metadata18">
    <rdf:RDF>
      <cc:Work
         rdf:about="">
        <dc:format>image/svg+xml</dc:format>
        <dc:type
           rdf:resource="http://purl.org/dc/dcmitype/StillImage" />
        <dc:title>icons-collected</dc:title>
      </cc:Work>
    </rdf:RDF>
  </metadata>
  <defs
     id="defs7">
    <style
       id="style2">.cls-1{fill:none;}.cls-2{clip-path:url(#clip-path);}.cls-3{fill:#1d1d1b;}
    </style>
    <clipPath
       id="clip-path">
      <rect
         style="fill:none"
         y="0"
         id="rect4"
         height="70.839996"
         width="57.959999"
         x="6.4499998"
         class="cls-1" />
    </clipPath>
  </defs>
  <title
     id="title9">icons-collected</title>
  <g
     transform="translate(-6.45)"
     id="g13"
     clip-path="url(#clip-path)"
     class="cls-2">
    <path
       style="fill:#1d1d1b"
       id="path11"
       d="M 45.09,19.32 V 3.22 h 1.61 l 14.49,16.1 z M 61.19,64.4 A 3.22,3.22 0 0 1 58,67.62 H 12.89 A 3.22,3.22 0 0 1 9.67,64.4 v -58 a 3.22,3.22 0 0 1 3.22,-3.22 h 29 v 16.1 a 3.22,3.22 0 0 0 3.22,3.22 h 16.1 z M 48.31,0 H 12.89 A 6.44,6.44 0 0 0 6.45,6.44 v 58 a 6.44,6.44 0 0 0 6.44,6.44 H 58 a 6.44,6.44 0 0 0 6.44,-6.44 V 17.71 Z"
       class="cls-3" />
  </g>
  <path
     id="path4531"
     d="M 4.360678,66.425613 3.3396699,65.404604 3.3407924,35.570135 C 3.3418843,6.5504354 3.3578597,5.7095155 3.925765,4.7781297 4.318084,4.1347114 4.884158,3.7165863 5.651348,3.5035438 6.378181,3.301708 11.949296,3.1858851 20.982096,3.1848189 l 14.189016,-0.00167 0.0018,7.8827871 c 9e-4,4.335532 0.135848,8.365788 0.29984,8.956123 0.163989,0.590336 0.646878,1.401136 1.073083,1.80178 l 0.774792,0.728442 8.684882,0.08807 8.684881,0.08807 v 21.022681 c 0,18.063778 -0.06316,21.144813 -0.44873,21.890428 -0.989516,1.913514 0.531471,1.805095 -25.323478,1.805095 H 5.381687 Z"
     style="fill:#ffffff;fill-opacity:1;stroke:#218e5d;stroke-width:0;stroke-miterlimit:4;stroke-dasharray:none;stroke-opacity:1" />
  <path
     id="path4533"
     d="M 38.774671,11.271207 V 3.443548 l 0.816319,0.095021 c 0.633885,0.073785 2.341189,1.772799 7.63953,7.602436 3.752766,4.129078 6.831326,7.608765 6.841245,7.732638 0.0099,0.123872 -3.42787,0.225222 -7.63953,0.225222 h -7.657564 z"
     style="fill:#ffffff;fill-opacity:1;stroke:#218e5d;stroke-width:0;stroke-miterlimit:4;stroke-dasharray:none;stroke-opacity:1" />
</svg>
