<!-- Optimised/Generated by IcoMoon.io -->
<svg version="1.1" xmlns="http://www.w3.org/2000/svg" width="32" height="32" viewBox="0 0 32 32">
<title>sort</title>
<path d="M20.227 28.015l5.473-5.53c0.127-0.128 0.241-0.089 0.241 0.101v2.314c0 0.183-0.112 0.457-0.249 0.596l-6.507 6.575c-0.139 0.141-0.361 0.139-0.499 0l-6.507-6.575c-0.139-0.141-0.249-0.406-0.249-0.596v-2.314c0-0.183 0.108-0.236 0.241-0.101l5.473 5.53c0.127 0.128 0.241 0.089 0.241-0.1v-12.676c0-0.194 0.155-0.344 0.347-0.344h1.408c0.196 0 0.347 0.154 0.347 0.344v12.676c0 0.194 0.108 0.235 0.241 0.1zM11.627 4.161l-5.473 5.53c-0.127 0.129-0.241 0.089-0.241-0.101v-2.314c0-0.183 0.112-0.457 0.249-0.596l6.507-6.575c0.139-0.141 0.361-0.139 0.499 0l6.507 6.575c0.139 0.141 0.249 0.406 0.249 0.596v2.314c0 0.183-0.108 0.236-0.241 0.101l-5.473-5.53c-0.127-0.128-0.241-0.089-0.241 0.1v12.676c0 0.194-0.155 0.344-0.347 0.344h-1.408c-0.196 0-0.347-0.154-0.347-0.344v-12.676c0-0.194-0.108-0.235-0.241-0.1z"></path>
</svg>
