<?xml version="1.0" encoding="UTF-8" standalone="no"?>
<svg
   xmlns:dc="http://purl.org/dc/elements/1.1/"
   xmlns:cc="http://creativecommons.org/ns#"
   xmlns:rdf="http://www.w3.org/1999/02/22-rdf-syntax-ns#"
   xmlns:svg="http://www.w3.org/2000/svg"
   xmlns="http://www.w3.org/2000/svg"
   xmlns:sodipodi="http://sodipodi.sourceforge.net/DTD/sodipodi-0.dtd"
   xmlns:inkscape="http://www.inkscape.org/namespaces/inkscape"
   viewBox="0 0 28.790083 46.254063"
   version="1.1"
   x="0px"
   y="0px"
   id="svg12"
   sodipodi:docname="sort.svg"
   width="28.790083"
   height="46.254063"
   inkscape:version="0.92.3 (2405546, 2018-03-11)">
  <metadata
     id="metadata18">
    <rdf:RDF>
      <cc:Work
         rdf:about="">
        <dc:format>image/svg+xml</dc:format>
        <dc:type
           rdf:resource="http://purl.org/dc/dcmitype/StillImage" />
        <dc:title>Arrow 39.1</dc:title>
      </cc:Work>
    </rdf:RDF>
  </metadata>
  <defs
     id="defs16" />
  <sodipodi:namedview
     pagecolor="#ffffff"
     bordercolor="#666666"
     borderopacity="1"
     objecttolerance="10"
     gridtolerance="10"
     guidetolerance="10"
     inkscape:pageopacity="0"
     inkscape:pageshadow="2"
     inkscape:window-width="1619"
     inkscape:window-height="1027"
     id="namedview14"
     showgrid="false"
     inkscape:zoom="1.888"
     inkscape:cx="13.895042"
     inkscape:cy="10.627031"
     inkscape:window-x="67"
     inkscape:window-y="0"
     inkscape:window-maximized="0"
     inkscape:current-layer="svg12" />
  <title
     id="title2">Arrow 39.1</title>
  <desc
     id="desc4">Created with Sketch.</desc>
  <g
     id="g10"
     style="fill:none;fill-rule:evenodd;stroke:none;stroke-width:1"
     transform="translate(-36.104958,-26.872969)">
    <g
       id="g8"
       style="fill:#000000;fill-rule:nonzero">
      <path
         d="m 56.681294,67.14515 7.867587,-7.949587 c 0.182809,-0.184713 0.346161,-0.128049 0.346161,0.145455 v 3.326627 c 0,0.263119 -0.160468,0.657363 -0.358414,0.857372 l -9.353653,9.451141 c -0.20023,0.202317 -0.518881,0.200009 -0.716827,0 L 45.112495,63.525017 C 44.912264,63.3227 44.754081,62.941149 44.754081,62.667645 v -3.326627 c 0,-0.263118 0.154981,-0.338626 0.346161,-0.145455 l 7.867587,7.949587 c 0.182808,0.184714 0.34616,0.128526 0.34616,-0.14439 V 48.779192 c 0,-0.278423 0.223357,-0.494159 0.498881,-0.494159 h 2.023383 c 0.281607,0 0.49888,0.221243 0.49888,0.494159 V 67.00076 c 0,0.278422 0.154982,0.337562 0.346161,0.14439 z m -12.362588,-34.2903 -7.867587,7.949587 c -0.182809,0.184713 -0.346161,0.128049 -0.346161,-0.145455 v -3.326627 c 0,-0.263119 0.160468,-0.657363 0.358414,-0.857372 l 9.353653,-9.451141 c 0.20023,-0.202317 0.518881,-0.200009 0.716827,0 l 9.353653,9.451141 c 0.200231,0.202317 0.358414,0.583868 0.358414,0.857372 v 3.326627 c 0,0.263118 -0.154981,0.338626 -0.346161,0.145455 L 48.032171,32.85485 c -0.182808,-0.184714 -0.34616,-0.128526 -0.34616,0.14439 v 18.221568 c 0,0.278423 -0.223357,0.494159 -0.498881,0.494159 h -2.023383 c -0.281607,0 -0.49888,-0.221243 -0.49888,-0.494159 V 32.99924 c 0,-0.278422 -0.154982,-0.337562 -0.346161,-0.14439 z"
         id="path6"
         inkscape:connector-curvature="0" />
    </g>
  </g>
</svg>
