<?xml version="1.0" encoding="UTF-8"?><!DOCTYPE svg PUBLIC "-//W3C//DTD SVG 1.1//EN" "http://www.w3.org/Graphics/SVG/1.1/DTD/svg11.dtd"><svg xmlns="http://www.w3.org/2000/svg" xmlns:xlink="http://www.w3.org/1999/xlink"><defs><clipPath id="a"><path fill="none" d="M.22.22h70.43v70.43H.22z"/></clipPath><clipPath id="clip-path"><path fill="none" d="M4.41.44h62.04v69.99H4.41z"/></clipPath><clipPath id="a"><path fill="none" d="M4.01 0h62.85v70.91H4.01z"/></clipPath><clipPath id="a"><path fill="none" d="M.44.44h69.99v69.99H.44z"/></clipPath><clipPath id="a"><path fill="none" d="M0 8.92h70.87v53.02H0z"/></clipPath><clipPath id="a"><path fill="none" d="M.43.44h70v69.99h-70z"/></clipPath><path id="a" d="M0 .235h87.284V50.15H0z"/><path id="a" d="M0 .235h87.284V50.15H0z"/><path id="a" d="M0 .235h87.284V50.15H0z"/><clipPath id="a"><path fill="none" d="M0 15.16h70.87v40.56H0z"/></clipPath><clipPath id="clip-path"><path fill="none" d="M0 11.07h70.87v48.72H0z"/></clipPath><clipPath id="clip-path"><path fill="none" d="M0 0h70.87v70.87H0z"/></clipPath><path id="a" d="M.257.512h49.536v49.536H.257z"/><clipPath id="clip-path"><path fill="none" d="M0 0h70.87v70.87H0z"/></clipPath><path id="SVGID_1_" d="M28.5 4.1h13.8v62.4H28.5z"/><clipPath id="a"><path fill="none" d="M0 3.21h70.87v64.44H0z"/></clipPath><clipPath id="a"><path fill="none" d="M0 0h70.87v70.87H0z"/></clipPath><clipPath id="a"><path fill="none" d="M6.45 0h57.96v70.84H6.45z"/></clipPath><clipPath id="clip-path"><path fill="none" d="M7.09 0h68.02v70.91H7.09z"/></clipPath><clipPath id="a"><path fill="none" d="M7.09 0h56.69v70.87H7.09z"/></clipPath></defs><symbol id="arrow-left" viewBox="0 0 70.87 70.87"><clipPath id="a"><path d="M0 4.62h70.87v61.62H0z"/></clipPath><g clip-path="url(#a)"><path d="M0 35.44a5.14 5.14 0 001.25 3.17l24.65 26.2c1.67 1.5 4.87 2.12 6.74.38a4.81 4.81 0 000-6.74L15.26 40.06h51a4.62 4.62 0 000-9.24h-51l17.33-18.39c1.58-1.58 1.87-5 0-6.74s-5.14-1.18-6.74.38L1.25 32.26A4.45 4.45 0 000 35.44"/></g></symbol><symbol id="attachment" viewBox="0 0 81.401 95.017"><path d="M73.68 5.437c9.88 7.93 7.4 14.09 1.81 20.85l-32 38.53c-6.1 7.39-9.81 11.11-17.81 4.37-6-5-4-12.5 2.58-20.45l25.93-31.24 5.19 4.33-25.92 31.25c-4.12 5.6-6.67 9.32-2.72 11.78 3.95 2.46 3.87.12 7.6-4.38l32-38.54c3-3.58 4.9-6.63-1-11.29-10.29-8.22-18.43.1-21.17 3.4l-38 45.83c-6.43 7.75-3.25 21 2.33 25.77 4.28 3.62 19.25 5.4 25.68-2.35l38.02-45.8 5.2 4.35-38 45.81c-8.8 10.64-27.81 8.19-34.39 2.39-9.07-8-12.81-23.87-4-34.5l38-45.82c9.72-11.73 20.92-12.46 30.67-4.29z"/></symbol><symbol id="attention" viewBox="0 0 70.87 70.87"><g clip-path="url(#a)"><path d="M55.78 15a28.83 28.83 0 108.43 20.41A29 29 0 0055.78 15M35.43 39.42a3.35 3.35 0 01-3.22-3.22L30.6 21.85C30.34 19.34 33 17 35.43 17s5.09 2.32 4.77 4.83l-1.55 14.38a3.35 3.35 0 01-3.22 3.22m0 4.83A4.75 4.75 0 0140.2 49a4.81 4.81 0 01-4.77 4.83A4.86 4.86 0 0130.6 49a4.81 4.81 0 014.83-4.76m0-44a35.17 35.17 0 11-24.91 10.3A35.13 35.13 0 0135.43.22"/></g></symbol><symbol id="calendar-many" viewBox="0 0 70.87 70.87"><g clip-path="url(#clip-path)"><path class="cls-3" d="M63.63 20.18H7.23v-8.46a2.82 2.82 0 012.82-2.82h5.64v4.23a1.41 1.41 0 102.82 0V8.9h33.84v4.23a1.41 1.41 0 102.82 0V8.9h5.64a2.82 2.82 0 012.82 2.82zm0 44.61a2.82 2.82 0 01-2.82 2.82H10.05a2.82 2.82 0 01-2.82-2.82V23h56.4zM60.81 6.08h-5.64V1.85a1.41 1.41 0 10-2.82 0v4.23H18.51V1.85a1.41 1.41 0 10-2.82 0v4.23h-5.64a5.64 5.64 0 00-5.64 5.64v53.07a5.64 5.64 0 005.64 5.64h50.76a5.64 5.64 0 005.64-5.64V11.72a5.64 5.64 0 00-5.64-5.64"/></g><path class="cls-3" d="M13.96 27.44h8.4v8.4h-8.4zM13.96 40.04h8.4v8.4h-8.4zM13.96 52.64h8.4v8.4h-8.4zM47.55 27.44h8.4v8.4h-8.4zM47.55 40.04h8.4v8.4h-8.4zM47.55 52.64h8.4v8.4h-8.4zM30.76 27.44h8.4v8.4h-8.4zM30.76 40.04h8.4v8.4h-8.4zM30.76 52.64h8.4v8.4h-8.4z"/></symbol><symbol id="calendar-number" viewBox="0 0 70.87 70.87"><g clip-path="url(#a)"><path d="M31.88 54.44a4.68 4.68 0 01-1.54.87 5.53 5.53 0 01-1.85.31A4.32 4.32 0 0125 54.21a5.7 5.7 0 01-1.26-3.64h-2.67a8.6 8.6 0 00.49 3.17 6.34 6.34 0 001.49 2.35 6.25 6.25 0 002.36 1.44 9.19 9.19 0 003.08.49 10 10 0 003-.44 7 7 0 002.43-1.31 6.24 6.24 0 001.65-2.19 7 7 0 00.61-3 6.43 6.43 0 00-1-3.59 4.63 4.63 0 00-3-2v-.07a5.66 5.66 0 002.2-1.81 4.51 4.51 0 00.88-2.75 6.72 6.72 0 00-.52-2.75 5.1 5.1 0 00-1.43-1.91 6.22 6.22 0 00-2.15-1.12 9.34 9.34 0 00-2.69-.37 7.31 7.31 0 00-2.94.55 5.81 5.81 0 00-2.12 1.52 6.79 6.79 0 00-1.3 2.33 10.7 10.7 0 00-.52 3h2.67a7 7 0 01.25-1.91 4.61 4.61 0 01.77-1.59 3.8 3.8 0 011.32-1.08 4.1 4.1 0 011.87-.4 4.33 4.33 0 012.83.92 3.37 3.37 0 011.13 2.77 3.66 3.66 0 01-.43 1.63 3.47 3.47 0 01-.93 1.18 4.1 4.1 0 01-1.35.71 5.44 5.44 0 01-1.62.24H26.94v2.33a12.5 12.5 0 011.6-.1 6.15 6.15 0 011.87.27 4 4 0 011.49.84 4.19 4.19 0 011 1.39 4.51 4.51 0 01.38 1.89 4.3 4.3 0 01-.35 1.8 4.19 4.19 0 01-1.05 1.39m13.61 3.22h2.67v-22.9h-2a5.16 5.16 0 01-.82 2.14 4.46 4.46 0 01-1.46 1.33 5.91 5.91 0 01-1.93.66 13.15 13.15 0 01-2.2.18v2.2h5.78zM64 20H6.86v-8.57a2.86 2.86 0 012.86-2.86h5.71v4.28a1.43 1.43 0 102.86 0V8.57h34.28v4.28a1.43 1.43 0 102.86 0V8.57h5.71A2.86 2.86 0 0164 11.43zm0 45.2a2.86 2.86 0 01-2.86 2.86H9.72a2.86 2.86 0 01-2.86-2.86V22.86H64zM61.14 5.71h-5.71V1.43a1.43 1.43 0 10-2.86 0v4.28H18.29V1.43a1.43 1.43 0 10-2.86 0v4.28H9.72A5.71 5.71 0 004 11.43V65.2a5.71 5.71 0 005.71 5.71h51.43a5.71 5.71 0 005.71-5.71V11.43a5.71 5.71 0 00-5.71-5.71"/></g></symbol><symbol id="camera" viewBox="0 0 70.87 70.87"><g clip-path="url(#a)"><path d="M64.07 35.43h-3.18v3.18h3.18zM60.89 45h3.18v-3.2h-3.18zM67.25.44H16.34a3.18 3.18 0 00-3.18 3.18v15.91a1.59 1.59 0 003.18 0V6.8a3.18 3.18 0 013.18-3.18h6.36v14.32a1.59 1.59 0 103.18 0V3.62h25.46V24.3a1.59 1.59 0 103.18 0V3.62h6.36a3.18 3.18 0 013.19 3.18v20.68h-4.77a1.59 1.59 0 100 3.18h4.77v20.68a3.18 3.18 0 01-3.18 3.18h-1.59a1.59 1.59 0 100 3.18h4.77a3.18 3.18 0 003.18-3.18V3.62A3.18 3.18 0 0067.25.44M64.07 6.8h-3.18V10h3.18zm-3.18 15.91h3.18v-3.19h-3.18zM22.71 6.8h-3.19V10h3.18zm38.18 44.54h3.18v-3.18h-3.18zm0-35h3.18v-3.18h-3.18zM48.16 45a1.59 1.59 0 101.59 1.59A1.59 1.59 0 0048.16 45M29.07 57.7a9.54 9.54 0 119.54-9.54 9.54 9.54 0 01-9.54 9.54m0-22.27A12.73 12.73 0 1041.8 48.16a12.73 12.73 0 00-12.73-12.73m-9.54-19.09h3.18v-3.18h-3.18zm35 47.72a3.18 3.18 0 01-3.18 3.18H6.8a3.18 3.18 0 01-3.18-3.18V35.43a3.18 3.18 0 013.18-3.18h6.36c6.36 0 6.36-6.36 11.14-6.36h9.54c4.77 0 4.77 6.36 11.14 6.36h6.36a3.18 3.18 0 013.18 3.18zm-3.18-35H45c-4.77 0-4.77-6.36-11.14-6.36H24.3c-6.36 0-6.36 6.36-11.14 6.36H6.8a6.36 6.36 0 00-6.36 6.37v28.64a6.36 6.36 0 006.36 6.36h44.54a6.36 6.36 0 006.36-6.36V35.43a6.36 6.36 0 00-6.36-6.36M29.07 51.34a3.18 3.18 0 113.18-3.18 3.18 3.18 0 01-3.18 3.18m0-9.55a6.36 6.36 0 106.36 6.36 6.36 6.36 0 00-6.36-6.36m19.09-6.36a3.18 3.18 0 103.18 3.18 3.18 3.18 0 00-3.18-3.18"/></g></symbol><symbol id="check-mark" viewBox="0 0 70.87 70.87"><g clip-path="url(#a)"><path d="M24.5 54.4L6.11 36a2 2 0 10-2.8 2.8l19.82 19.84a2 2 0 002.83 0l33.1-34.68 2.83-3 5.7-6a1.94 1.94 0 00.56-1.36 2 2 0 00-3.41-1.36l-5.1 5.34-2.76 2.9z"/><path d="M24.53 61.94a4.71 4.71 0 01-3.35-1.4l-19.8-19.8A4.71 4.71 0 018 34.08L24.45 50.5l33.19-34.8.26-.24 4.86-5.08a4.7 4.7 0 018.11 3.25 4.64 4.64 0 01-1.06 3 2.35 2.35 0 01-.23.28l-5.52 5.78-.18.2-35.95 37.6a2.12 2.12 0 01-.27.24 4.7 4.7 0 01-3.13 1.21z"/></g></symbol><symbol id="clock" viewBox="0 0 70.87 70.87"><g clip-path="url(#a)"><path d="M35.41 9.7a2.34 2.34 0 00-2.31 2.36v23.08a2.28 2.28 0 000 .54 1.78 1.78 0 000 .2v.22a1.38 1.38 0 000 .17 2.32 2.32 0 00.85 1l15.2 15.2a2.33 2.33 0 003.52-3.07l-.21-.21-14.69-14.73V12.08a2.33 2.33 0 00-2.29-2.38h-.07m0-4.64A30.37 30.37 0 1114 14a30.25 30.25 0 0121.43-8.94m0-4.62a35 35 0 1024.76 10.23A34.9 34.9 0 0035.43.44"/></g></symbol><symbol id="download" viewBox="0 0 32.003 31.987"><path d="M15.985 0a1.143 1.143 0 00-1.125 1.142v.017-.001 20.08l-7.186-7.186a1.142 1.142 0 00-1.614 1.616l9.135 9.135.013.011.002.002.035.033.001.001.047.041.002.002.03.022.003.002.054.038.005.003.041.025.005.003.047.026.006.003a.33.33 0 00.041.019l.007.003.046.021.007.003c.011.005.031.011.051.018l.008.002.04.014.008.002c.011.003.031.009.051.013l.007.001.047.01.007.001.049.007.006.001a.629.629 0 00.054.005h.003l.059.002h.001l.027.001.029-.001h-.001c.035-.001.069-.003.102-.007l-.005.001.014-.002-.007.001.078-.013-.007.001.062-.013-.008.002a.905.905 0 00.051-.013l-.008.002.076-.023-.008.002c.022-.007.035-.013.049-.018l-.007.003a.664.664 0 00.067-.029l-.007.003c.037-.017.065-.031.093-.046l-.006.003a.03.03 0 00.007-.005l-.004.003c.027-.015.048-.029.069-.043l-.004.003c.019-.013.034-.022.048-.033l-.003.002c.028-.021.052-.04.075-.06l-.001.001.007-.007c.019-.016.037-.031.053-.047l9.134-9.134a1.142 1.142 0 00-.796-1.961l-.035.001h.002a1.14 1.14 0 00-.785.344l-7.185 7.186V1.161v-.015c0-.631-.511-1.142-1.142-1.142h-.018.001zM1.158 29.703h-.016a1.142 1.142 0 100 2.284H30.861a1.142 1.142 0 100-2.284h-.017z"/></symbol><symbol id="drag-lines" viewBox="0 0 100 65.83"><path d="M100 39.751H0V26.079h100zM100 0H0v13.672h100zm0 52.158H0V65.83h100z"/></symbol><symbol id="drop-down-2" viewBox="0 0 87.284 50"><clipPath id="b"><use xlink:href="#a" overflow="visible"/></clipPath><path clip-path="url(#b)" fill="none" stroke="#4caf50" stroke-width="12.526" stroke-linecap="round" stroke-linejoin="round" d="M6.263 6.499l37.379 37.388L81.02 6.499"/></symbol><symbol id="drop-down-3" viewBox="0 0 87.284 50"><clipPath id="b"><use xlink:href="#a" overflow="visible"/></clipPath><path clip-path="url(#b)" fill="none" stroke="#fff" stroke-width="12.526" stroke-linecap="round" stroke-linejoin="round" d="M6.263 6.499l37.379 37.388L81.02 6.499"/></symbol><symbol id="drop-down-4" viewBox="0 0 87.284 50"><clipPath id="b"><use xlink:href="#a" overflow="visible"/></clipPath><path clip-path="url(#b)" fill="none" stroke="#6F6F6F" stroke-width="12.526" stroke-linecap="round" stroke-linejoin="round" d="M6.263 6.499l37.379 37.388L81.02 6.499"/></symbol><symbol id="drop-down" viewBox="0 0 70.87 70.87"><g clip-path="url(#a)"><path d="M35.44 55.71a5.15 5.15 0 01-3.62-1.5L1.49 23.9a5.12 5.12 0 017.25-7.24l26.7 26.7 26.68-26.7a5.12 5.12 0 017.25 7.24L39.06 54.21a5.12 5.12 0 01-3.62 1.5z"/></g></symbol><symbol id="duplicate" viewBox="0 0 83.4 95.1"><switch transform="translate(-8.3 -2.5)"><g><path d="M91.6 23.5c0-.7-.3-1.4-.8-1.9L72.6 3.3c-.5-.5-1.2-.8-1.9-.8H35c-3.6 0-6.6 3-6.6 6.6v13.5H14.9c-3.6 0-6.6 2.9-6.6 6.6V91c0 3.6 2.9 6.6 6.6 6.6H65c3.6 0 6.6-2.9 6.6-6.6V77.5h13.5c3.6 0 6.6-3 6.6-6.6zM73.4 11.8l8.9 8.9h-8.9zM65 92H14.9c-.6 0-1.1-.5-1.1-1.1V29.1c0-.6.5-1.1 1.1-1.1h33v15.5c0 1.5 1.2 2.7 2.7 2.7h15.5v44.7c0 .6-.5 1.1-1.1 1.1zM53.4 40.7v-8.9l8.9 8.9zM85.1 72H71.6V43.5c0-.7-.3-1.4-.8-1.9L52.6 23.3c-.5-.5-1.2-.8-1.9-.8H33.9V9.1c0-.6.5-1.1 1.1-1.1h33v15.5c0 1.5 1.2 2.7 2.7 2.7h15.5v44.7c0 .6-.5 1.1-1.1 1.1z"/></g></switch></symbol><symbol id="eye" viewBox="0 0 70.87 70.87"><g clip-path="url(#clip-path)"><path class="cls-3" d="M35.43 11.07C15.86 11.07 0 22 0 35.43s15.86 24.36 35.43 24.36 35.44-10.9 35.44-24.36S55 11.07 35.43 11.07zm0 44.29c-17.13 0-31-8.92-31-19.93s13.88-19.93 31-19.93 31 8.92 31 19.93-13.87 19.93-31 19.93z"/><path class="cls-3" d="M35.43 22.14a13.29 13.29 0 1013.29 13.29 13.29 13.29 0 00-13.29-13.29zm0 22.15a8.86 8.86 0 118.86-8.86 8.86 8.86 0 01-8.86 8.86z"/></g></symbol><symbol id="forbidden" viewBox="0 0 100 125"><path d="M83.7 16.3c-9-9-21-13.9-33.7-13.9-12.8 0-24.7 5-33.7 13.9-9 9-13.9 21-13.9 33.7s5 24.7 13.9 33.7c9 9 21 13.9 33.7 13.9 12.8 0 24.7-5 33.7-13.9 9-9 13.9-21 13.9-33.7.1-12.8-4.9-24.7-13.9-33.7zM50 10.8c8.9 0 17.6 3.1 24.5 8.7l-55 55C7.1 59.1 8.2 36.4 22.3 22.3c7.4-7.4 17.2-11.5 27.7-11.5zm27.7 66.9c-14.1 14.1-36.8 15.2-52.3 2.8l55.1-55.1C93 40.9 91.8 63.6 77.7 77.7z"/></symbol><symbol id="home" viewBox="0 0 80 64"><path style="text-indent:0;text-transform:none" d="M40.054 0c.42.01.811.148 1.187.407l38 30a2.07 2.07 0 01.344 2.844c-.645.833-2.017.967-2.844.312l-36.75-29-36.75 29c-.826.655-2.16.516-2.812-.312-.647-.823-.577-2.19.312-2.844l14.25-11.25V2a2 2 0 012-2h8a2 2 0 012 2v7.688L38.741.407c.445-.294.893-.415 1.313-.407zM22.99 4h-4v12l4-3.156zm42 22.907l4 3.156V62a2 2 0 01-2 2h-17a2 2 0 01-2-2V44h-16v18a2 2 0 01-2 2h-17a2 2 0 01-2-2V30.063l4-3.156V60h13V42a2 2 0 012-2h20a2 2 0 012 2v18h13z" overflow="visible" color="#000"/></symbol><symbol id="information" viewBox="0 0 100 100"><path d="M49.1 6.1c-24.3.5-43.5 20.5-43 44.8.5 24.3 20.6 43.5 44.8 43 24.3-.5 43.5-20.6 43-44.8-.5-24.3-20.5-43.5-44.8-43zm1.6 80c-19.9.4-36.4-15.4-36.8-35.3-.4-19.9 15.4-36.4 35.3-36.8 19.9-.4 36.4 15.4 36.8 35.3.5 19.9-15.3 36.4-35.3 36.8z"/><path d="M55.8 47.1c0 1.8-.5 4.6-1.4 8.4-.9 3.8-1.4 6.2-1.4 7.3 0 1.1.2 1.7.6 1.7.4 0 1.2-.2 2.3-.6l.5-.2 1 3c-1.3 1.1-2.9 2-4.8 2.8-1.9.8-3.6 1.2-5.2 1.2-1.5 0-2.8-.5-3.7-1.4-.9-.9-1.3-2.3-1.3-4.1 0-1.8.5-4.5 1.4-8.1.9-3.6 1.4-5.9 1.4-6.9 0-1.5-.5-2.9-1.5-4.3l-.5-.7.2-1c2-.6 5.8-1 11.4-1 .7.8 1 2.1 1 3.9zm-4.2-8.6c-1.7 0-3.1-.5-4-1.5-1-1-1.4-2.2-1.4-3.7s.6-2.8 1.8-3.8c1.2-1 2.6-1.6 4.3-1.6 1.7 0 3 .4 4 1.3.9.9 1.4 2.1 1.4 3.6s-.6 2.9-1.7 4c-1.3 1.2-2.7 1.7-4.4 1.7z"/></symbol><symbol id="licence" viewBox="0 0 70.87 70.87"><g clip-path="url(#clip-path)"><path class="cls-3" d="M25.44 47.32a11.86 11.86 0 008.08-3.16 1.69 1.69 0 10-2.3-2.48 8.51 8.51 0 110-12.5 1.69 1.69 0 002.29-2.48 11.88 11.88 0 10-8.07 20.61M48.22 47.32a11.86 11.86 0 008.08-3.16 1.69 1.69 0 10-2.3-2.48 8.51 8.51 0 110-12.5 1.69 1.69 0 002.29-2.48 11.88 11.88 0 10-8.07 20.61"/><path class="cls-3" d="M35.43 3.37a32.49 32.49 0 0132.06 32.07 32.49 32.49 0 01-32.06 32.05A32.49 32.49 0 013.38 35.44 32.49 32.49 0 0135.43 3.37m0 67.49c19.21 0 35.43-16.23 35.43-35.43S54.64 0 35.43 0 0 16.23 0 35.44s16.23 35.43 35.43 35.43"/></g></symbol><symbol id="link" viewBox="0 0 49.75 50"><path d="M26.533 0v4.9l13.79.013L17.14 28.136l4.325 4.329L44.272 9.617l-.05 13.597h5.528V0z"/><path d="M32.306 27.614l-.037 15.226H6.735V16.999l15.848-.003 5.942-5.942H0v38.695h38.696V21.224z"/></symbol><symbol id="logo" viewBox="0 0 328.034 50"><g fill-rule="evenodd" clip-rule="evenodd"><path d="M60.434 17.273h3.89V3.735h-3.89v13.538zm236.068-4.201V5.291h-4.668c-.103 2.594.208 5.602-.154 7.936h-4.203v3.736h4.358c.302 4.51-.393 12.855 0 17.584.432 5.178 4.106 4.825 9.804 4.669v-3.58c-1.768-.047-3.664.034-4.823-.622-.707-5.415-.118-12.123-.313-18.051h5.136v-3.736c-1.661-.102-3.735.207-5.137-.155zm-190.784-.467c-3.276.274-5.363 2.089-7.002 3.735v-3.113h-4.513v26.144h4.669c.939-5.977-1.727-15.244 1.245-19.762 1.454-2.213 5.503-3.913 8.715-2.18 2.849 1.539 2.022 7.994 2.022 12.449v9.493h4.668c-.773-12.209 3.778-27.901-9.804-26.766zm148.457 2.49c-2.361-2.685-8.669-3.194-11.982-1.245-1.189.699-1.802 1.968-2.955 2.489v-3.113h-4.358V39.37h4.669c.697-7.418-1.926-17.763 2.645-21.164 3.272-2.433 8.762-1.614 9.337 2.49.709 5.05-.533 13.222 0 18.674h4.669c-1.015-8.41 2.169-19.507-2.025-24.275zm-178.49-1.868c-3.752 8.438-7.084 17.296-10.582 25.988h4.98c1.883-4.895 3.939-9.955 5.759-14.783.619-1.647 1.076-3.454 2.178-4.824 2.392 6.58 4.868 13.076 7.314 19.607 1.713-.103 3.837.206 5.291-.156-3.466-8.517-6.749-17.216-10.116-25.833h-4.824zm127.136 0c-1.917 6.589-3.421 13.592-5.601 19.919-1.691-6.611-3.404-13.195-4.979-19.919h-5.136c-1.489 6.759-3.126 13.369-4.825 19.919-2.095-6.411-3.675-13.338-5.601-19.919-1.662.103-3.734-.206-5.136.156 2.82 8.592 5.557 17.267 8.248 25.988h4.98c1.582-6.562 3.029-13.257 4.979-19.452 1.651 6.442 3.331 12.853 4.825 19.452h4.823a3120.107 3120.107 0 008.248-26.144h-4.825zm13.851 0c-3.723 8.467-7.056 17.324-10.582 25.988h4.979c2.775-6.407 4.869-13.494 7.938-19.607 2.41 6.563 4.905 13.042 7.314 19.607h5.292c-3.352-8.683-6.735-17.335-10.117-25.988h-4.824zm-73.606 0h-4.512v2.802c-1.951-2.175-3.983-3.638-7.624-3.58-11.599.186-15.427 17.3-7.781 24.431 2.517 2.349 7.692 4.063 12.137 1.868 1.286-.634 2.371-2.025 3.269-2.801-.037 2.978-.162 5.215-1.4 7.158-2.226 3.49-9.36 3.916-11.827.311-.235-.439-.376-.973-.311-1.712h-4.668c.095 5.496 4.328 7.744 9.181 8.092 19.065 1.367 12.278-20.113 13.536-36.569zm-14.628 21.787c-5.854-2.048-5.942-16.772 1.556-18.051 3.479-.594 5.872.679 7.159 2.956 3.737 6.616-.218 18.067-8.715 15.095zm42.327-7.159c-.175-8.67-3.378-15.622-11.982-15.406-7.691.193-11.982 6.376-11.982 13.538 0 8.745 5.581 14.619 13.538 14.006 5.722-.441 9.029-3.832 9.958-9.337h-4.512c-1.032 7.936-15.422 5.969-14.006-2.801h18.986zm-17.428-8.558c3.49-4.712 12.403-2.158 12.45 4.201h-14.006c.397-1.716.714-3.065 1.556-4.201zm126.671-3.425c-3.99-4.829-13.203-3.679-16.651.311-2.25 2.602-3.274 6.544-3.269 10.116.012 7.832 4.917 14.483 13.383 13.694 2.911-.271 4.477-1.567 6.536-2.956v2.334h4.669V3.268h-4.669v12.604zm-1.089 16.34c-1.712 3.164-7.184 5.119-10.893 2.023-4.739-3.955-3.979-16.273 3.267-17.273 8.021-1.107 11.118 8.79 7.626 15.25zm35.636-19.762c-6.209.18-9.591 3.747-10.737 9.337h4.669c1.106-8.183 15.06-5.704 14.004 2.955h-18.985c-.343 9.235 4.353 15.709 12.449 15.251 6.427-.362 10.88-5.805 11.36-12.138.629-8.306-3.645-15.67-12.76-15.405zm-6.069 16.962c-.018-.221-.024-.44.155-.467h13.695c-.244 8.967-13.228 8.618-13.85.467zM33.046 35.48c.84-4.568 2.292-10.513 3.423-15.406.514-2.222 2.143-6.368-.156-6.847-1.732-.36-5.847 3.017-7.158 3.89-.802.534-1.769 1.031-1.089 1.868 1.474-.136 2.852-1.713 4.513-2.179 1.237 1.388.111 3.301-.311 4.98-.888 3.526-1.644 7.035-2.49 10.582-.457 1.917-1.475 3.872-1.089 5.601.849 3.811 7.462-1.485 8.559-2.333.716-.554 1.604-1.212.778-2.023-1.371.158-3.128 3.151-4.98 1.867zm16.028-21.007c-2.408.205-4.312 4.412-2.022 5.913 4.088 2.68 6.76-6.318 2.022-5.913zM24.642.311c-.424.114-.313-.309-.622-.311-1.037.247-2.758 1.269-4.514 1.712-1.417.358-3.73-.059-4.045 1.557 1.022.482 3.245-.237 4.045.467.164 3.444-.878 6.998-1.4 10.27-5.681-1.882-10.086.906-13.072 4.046C1.464 21.808-.35 30.067.055 35.326c.119 1.553.401 3.109 1.711 4.046 3.672-.123 5.938-2.327 7.938-4.201 2.12-1.989 3.757-4.446 5.601-6.692-.27 1.817-.568 3.284-.933 5.447-.246 1.458-1.244 4.542 0 5.291 1.857 1.117 6.443-2.973 7.625-3.89.759-.589 1.794-1.225.934-2.023-1.447.317-2.443 2.432-4.669 2.49-.975-1.305-.261-3.018 0-4.357 2.031-10.471 4.357-20.913 6.38-31.126zM10.17 32.99c-.971.868-4.038 3.453-5.601 2.646-1.805-.931.1-9.092.467-10.582.729-2.962 2.054-7.375 3.89-8.559 2.381-1.535 6.201-.442 8.714.468-.829 6.646-3.46 12.45-7.47 16.027zm35.481-.155c-2.145.382-3.951 4.485-1.711 5.914 4.106 2.618 6.856-6.831 1.711-5.914z"/></g></symbol><symbol id="magnifier-2" viewBox="0 0 49.958 50"><clipPath id="b"><use xlink:href="#a" overflow="visible"/></clipPath><path clip-path="url(#b)" fill="#B7B7B7" d="M20.381.512C9.267.512.258 9.521.258 20.635s9.009 20.123 20.123 20.123 20.12-9.009 20.12-20.123S31.495.512 20.381.512"/><path clip-path="url(#b)" fill="#FFF" d="M20.381 3.619c-9.398 0-17.017 7.618-17.017 17.017s7.618 17.017 17.017 17.017 17.014-7.618 17.014-17.017S29.779 3.619 20.381 3.619"/><path clip-path="url(#b)" fill="#B7B7B7" d="M49.308 47.214L35.593 33.499a1.66 1.66 0 00-2.346 2.349l13.712 13.715c.65.647 1.699.647 2.349 0a1.664 1.664 0 000-2.349"/></symbol><symbol id="magnifier" viewBox="0 0 70.87 70.87"><g clip-path="url(#clip-path)"><path class="cls-3" d="M70.17 66.81L50.55 47.19a2.38 2.38 0 00-3.36 3.36l19.62 19.62a2.37 2.37 0 003.36-3.36"/><path class="cls-3" d="M28.79 53.13a24.34 24.34 0 1124.34-24.34 24.35 24.35 0 01-24.34 24.34m0-53.13a28.79 28.79 0 1028.78 28.79A28.79 28.79 0 0028.79 0"/></g></symbol><symbol id="options-menu" viewBox="0 0 13.8 62.3"><g id="g18" transform="translate(-28.5 -4.1)"><clipPath id="SVGID_2_"><use xlink:href="#SVGID_1_" id="use9" x="0" y="0" width="100%" height="100%" overflow="visible"/></clipPath><path class="st0" d="M35.4 17.9c3.8 0 6.9-3.1 6.9-6.9 0-3.8-3.1-6.9-6.9-6.9-3.8 0-6.9 3.1-6.9 6.9 0 3.8 3.1 6.9 6.9 6.9" clip-path="url(#SVGID_2_)" id="path12"/><path class="st0" d="M35.4 42.2c3.8 0 6.9-3.1 6.9-6.9 0-3.8-3.1-6.9-6.9-6.9-3.8 0-6.9 3.1-6.9 6.9 0 3.8 3.1 6.9 6.9 6.9" clip-path="url(#SVGID_2_)" id="path14"/><path class="st0" d="M35.4 66.4c3.8 0 6.9-3.1 6.9-6.9 0-3.8-3.1-6.9-6.9-6.9-3.8 0-6.9 3.1-6.9 6.9 0 3.8 3.1 6.9 6.9 6.9" clip-path="url(#SVGID_2_)" id="path16"/></g></symbol><symbol id="people" viewBox="0 0 70.87 70.87"><g clip-path="url(#a)"><path d="M3.33 64.43c.8-5.5 5.67-7.75 10.42-9.43a11.71 11.71 0 008.83-11.32A15 15 0 0018.69 33c-.17-.2-.33-.38-.45-.55l-.12-.15c-.11-.22-.75-1.67.09-5.15A3.22 3.22 0 0018 25c-.8-1.76-2.92-6.45-1.5-9.92 1.92-4.7 3.62-5.64 6.72-7a3.27 3.27 0 00.44-.24 13.13 13.13 0 015.93-1.44 7.44 7.44 0 013.63.82c1.16.64 2.26 1.83 3.84 5.55 2.24 5.25 1.68 9.74.13 11.85a3.23 3.23 0 00-.53 2.66c.78 3.24.21 4.55.09 4.77a3.51 3.51 0 00-.27.32c-.12.17-.28.35-.45.55a15 15 0 00-3.89 10.74A11.71 11.71 0 0041 55c4.68 1.65 9.62 3.89 10.42 9.42zm38.6-12.51s-6.54-1.53-6.54-8.23c0-5.89 2.69-8 3.72-9.39 0 0 2.13-1.83.71-7.74 2.38-3.24 2.83-9 .24-15-1.62-3.83-3.06-5.92-5.24-7.13a10.67 10.67 0 00-5.2-1.22 16 16 0 00-7.67 1.95c-3.65 1.6-6.11 3.09-8.41 8.73-1.87 4.58.38 9.88 1.55 12.47-1.43 5.91.55 7.94.55 7.94 1 1.43 3.73 3.5 3.73 9.39 0 6.7-6.54 8.23-6.54 8.23C8.67 53.38 0 56.38 0 66a1.58 1.58 0 001.61 1.61h51.54A1.58 1.58 0 0054.76 66c0-9.66-8.67-12.66-12.83-14.12m17.24-1.65s-6-1.38-6-7.41c0-5.3 2.85-7.16 3.8-8.45 0 0 1.95-1.65.64-7 2.17-2.91 2.67-8.06.32-13.52-1.48-3.42-3.29-5.3-5.28-6.39a9.82 9.82 0 00-4.74-1.1 15.68 15.68 0 00-6.11 1.29c.41.8.8 1.64 1.19 2.54.05.13.09.26.14.39a12.46 12.46 0 014.77-1 6.59 6.59 0 013.19.7c1 .55 2.49 1.65 3.87 4.84 2 4.54 1.44 8.46.05 10.32a3.22 3.22 0 00-.54 2.69c.65 2.66.23 3.79.13 4a3.46 3.46 0 00-.24.29c-.06.09-.29.33-.45.5a13.23 13.23 0 00-4 9.86c0 6.65 5.3 9.74 8.27 10.5 4.24 1.48 8.38 3.33 9.23 7.85H57.3a16.5 16.5 0 01.6 3.22h11.5A1.42 1.42 0 0070.86 63c0-8.7-7.9-11.39-11.69-12.71"/></g></symbol><symbol id="plus-2" viewBox="0 0 49.75 50"><path d="M20.339 0v20.089H.25v9.447h20.089v20.089h9.447V29.536h20.089v-9.447H29.786V0z"/></symbol><symbol id="plus" viewBox="0 0 70.87 70.87"><path class="cls-1" transform="rotate(90 35.72 35.43)" d="M.29 31h70.87v8.87H.29z"/><path class="cls-1" transform="rotate(180 35.435 34.995)" d="M0 30.56h70.87v8.87H0z"/></symbol><symbol id="print" viewBox="0 0 48.077 50"><path d="M6.814 0h34.119v13.628H6.814zM38.881 47.8H8.862v-9.582h30.019V47.8zM0 15.732v27.306h6.812v6.812h34.119v-6.812h6.812V15.732H0z"/></symbol><symbol id="refresh" viewBox="0 0 23.518 20"><path d="M21.297 9.971l2.221-4.65-2.521.893C19.466 2.48 15.817 0 11.759 0 7.536 0 3.751 2.68 2.34 6.666l1.885.668A8.01 8.01 0 0111.759 2c3.212 0 6.088 1.951 7.336 4.886l-2.449.866zM0 14.68l2.52-.893C4.052 17.521 7.7 20 11.759 20c4.223 0 8.008-2.68 9.419-6.666l-1.885-.668A8.011 8.011 0 0111.759 18c-3.212 0-6.088-1.951-7.334-4.886l2.447-.866-4.651-2.219z"/></symbol><symbol id="remove-2" viewBox="0 0 49.75 50"><path d="M41.616.235L24.75 17.101 7.884.235-.048 8.164 16.818 25.03-.048 41.895l7.932 7.932L24.75 32.962l16.866 16.865 7.928-7.932L32.678 25.03 49.544 8.164z"/></symbol><symbol id="remove" viewBox="0 0 70.87 70.87"><path class="cls-1" transform="rotate(45 35.435 35.428)" d="M-9.83 31H80.7v8.87H-9.83z"/><path class="cls-1" transform="rotate(135 35.432 35.43)" d="M-9.83 31H80.7v8.87H-9.83z"/></symbol><symbol id="save-file-thin" viewBox="0 0 70.87 70.87"><path class="cls-1" d="M69.07 14.21L56.69 1.84A4.82 4.82 0 0053.28.37h-48a4.88 4.88 0 00-4.9 4.88v60.37a4.88 4.88 0 004.87 4.87h60.37a4.88 4.88 0 004.88-4.87v-48a4.06 4.06 0 00-1.43-3.41zM25.61 4.87H45v12.71a1.21 1.21 0 01-1.16 1.17H26.77a1.21 1.21 0 01-1.16-1.17zm27 61.13H18V40.68A1.61 1.61 0 0119.69 39h31.23a1.61 1.61 0 011.69 1.69zM66 66h-8.63V40.68a6.12 6.12 0 00-6.19-6.19H19.69a6.12 6.12 0 00-6.19 6.19V66H4.87V4.87h16.5v12.71A5.74 5.74 0 0027 23.24h17.09a5.74 5.74 0 005.67-5.66V4.87h3.94l12.55 12.56z"/><path class="cls-1" d="M44.62 45H26.25a2.25 2.25 0 000 4.5h18.37a2.25 2.25 0 100-4.5zM26.25 60h18.37a2.25 2.25 0 100-4.5H26.25a2.25 2.25 0 000 4.5z"/></symbol><symbol id="save-file" viewBox="0 0 70.87 70.87"><g clip-path="url(#a)"><path d="M47.25 57.74a2.48 2.48 0 01-2.63 2.63H26.25a2.62 2.62 0 010-5.25h18.37a2.48 2.48 0 012.63 2.62m0-10.49a2.48 2.48 0 01-2.63 2.62H26.25a2.62 2.62 0 010-5.25h18.37a2.48 2.48 0 012.63 2.63m10.49 18.37V40.68a6.5 6.5 0 00-6.56-6.56H19.69a6.5 6.5 0 00-6.56 6.56v24.94H5.25V5.25H21v12.33a6.1 6.1 0 006 6h17.09a6.1 6.1 0 006-6V5.25h3.41l12.38 12.33-.26 48zm-39.37 0V40.68a1.24 1.24 0 011.31-1.31h31.24a1.24 1.24 0 011.31 1.31v24.94zM44.62 5.25v12.33a.84.84 0 01-.79.79H26.77a.84.84 0 01-.79-.79V5.25zm24.67 8.66L57 1.57A5.18 5.18 0 0053.28 0h-48A5.26 5.26 0 000 5.25v60.37a5.26 5.26 0 005.24 5.25h60.38a5.27 5.27 0 005.25-5.25v-48a4.4 4.4 0 00-1.58-3.67"/></g></symbol><symbol id="sheet-empty" viewBox="0 0 70.87 70.87"><g clip-path="url(#a)"><path d="M45.09 19.32V3.22h1.61l14.49 16.1zm16.1 45.08A3.22 3.22 0 0158 67.62H12.89a3.22 3.22 0 01-3.22-3.22v-58a3.22 3.22 0 013.22-3.22h29v16.1a3.22 3.22 0 003.22 3.22h16.1zM48.31 0H12.89a6.44 6.44 0 00-6.44 6.44v58a6.44 6.44 0 006.44 6.44H58a6.44 6.44 0 006.44-6.44V17.71z"/></g></symbol><symbol id="sheet-plus" viewBox="0 0 70.87 70.87"><g clip-path="url(#clip-path)"><path class="cls-3" d="M45.68 19.29V3.22h1.61l14.47 16.07zm16.08 45a3.22 3.22 0 01-3.22 3.22h-45a3.22 3.22 0 01-3.22-3.22V6.43a3.22 3.22 0 013.22-3.22h28.92v16.08a3.22 3.22 0 003.22 3.22h16.08zM48.89 0H13.52a6.43 6.43 0 00-6.43 6.43v57.88a6.43 6.43 0 006.43 6.43h45A6.43 6.43 0 0065 64.31V17.69z"/><path class="cls-3" d="M21.04 41.03h29.78v4.45H21.04z"/><path class="cls-3" d="M33.86 28.1h4.16v30.36h-4.16z"/></g></symbol><symbol id="sort" viewBox="0 0 28.79 46.254"><path d="M20.576 40.272l7.868-7.95c.183-.184.346-.127.346.146v3.327c0 .263-.16.657-.358.857l-9.354 9.451c-.2.203-.519.2-.717 0l-9.353-9.451a1.396 1.396 0 01-.359-.857v-3.327c0-.263.155-.339.346-.145l7.868 7.95c.183.184.346.128.346-.145V21.906c0-.278.223-.494.499-.494h2.023c.282 0 .5.221.5.494v18.222c0 .278.154.337.345.144zM8.214 5.982l-7.868 7.95c-.183.184-.346.128-.346-.146v-3.327c0-.263.16-.657.358-.857L9.712.151c.2-.202.519-.2.717 0l9.354 9.451c.2.202.358.584.358.857v3.327c0 .263-.155.339-.346.145l-7.868-7.95c-.183-.184-.346-.128-.346.145v18.222a.493.493 0 01-.499.494H9.06a.493.493 0 01-.5-.494V6.126c0-.278-.154-.337-.345-.144z" fill-rule="nonzero" fill="none"/></symbol><symbol id="success" viewBox="0 0 66 66"><path d="M33 0C14.8 0 0 14.8 0 33s14.8 33 33 33 33-14.8 33-33S51.2 0 33 0zm0 62C17 62 4 49 4 33S17 4 33 4s29 13 29 29-13 29-29 29z"/><path d="M46.3 24.3L27.8 42.7c-.1.1-.3.1-.4 0L19.7 35c-.8-.8-2-.8-2.8 0-.8.8-.8 2 0 2.8l7.7 7.7c.8.8 1.9 1.3 3 1.3 1.2 0 2.2-.4 3-1.3L49.1 27c.8-.8.8-2 0-2.8-.8-.8-2-.7-2.8.1z"/></symbol><symbol id="text" viewBox="0 0 65 65"><path d="M62.5 5h-60a2.5 2.5 0 010-5h60a2.5 2.5 0 010 5zM22.5 65h-20a2.5 2.5 0 010-5h20a2.5 2.5 0 010 5zM62.5 45h-60a2.5 2.5 0 010-5h60a2.5 2.5 0 010 5zM42.5 25h-40a2.5 2.5 0 010-5h40a2.5 2.5 0 010 5z"/></symbol><symbol id="waste-bin" viewBox="0 0 70.87 70.87"><g clip-path="url(#a)"><path d="M26 61.2a1.6 1.6 0 001.52-1.67l-2.28-38.61a1.57 1.57 0 10-3.15.12l2.32 38.61A1.59 1.59 0 0026 61.2m26.71 3.22a3.4 3.4 0 01-3.15 3.22h-28.3a3.4 3.4 0 01-3.15-3.22L15 12.88h40.91zM27.56 3.22h15.75v6.44H27.56zm34.65 6.44H46.46V3.22A3.19 3.19 0 0043.31 0H27.56a3.19 3.19 0 00-3.15 3.22v6.44H8.66a1.61 1.61 0 000 3.22h3.15L15 64.43c.51 3.53 2.82 6.44 6.3 6.44h28.31c3.48 0 5.71-3 6.3-6.44l3.15-51.54h3.15a1.61 1.61 0 000-3.22M35.43 61.2A1.59 1.59 0 0037 59.59V20.94a1.58 1.58 0 10-3.15 0v38.65a1.59 1.59 0 001.57 1.61m9.4 0a1.59 1.59 0 001.63-1.55L48.74 21a1.57 1.57 0 10-3.15-.12l-2.28 38.66a1.6 1.6 0 001.52 1.67"/></g></symbol></svg>