<!-- Optimised/Generated by IcoMoon.io -->
<svg version="1.1" xmlns="http://www.w3.org/2000/svg" width="32" height="32" viewBox="0 0 32 32">
<title>success</title>
<path d="M16 0c-8.824 0-16 7.176-16 16s7.176 16 16 16c8.824 0 16-7.176 16-16s-7.176-16-16-16zM16 30.061c-7.758 0-14.061-6.303-14.061-14.061s6.303-14.061 14.061-14.061c7.758 0 14.061 6.303 14.061 14.061s-6.303 14.061-14.061 14.061z"></path>
<path d="M22.448 11.782l-8.97 8.921c-0.049 0.049-0.145 0.049-0.194 0l-3.733-3.733c-0.388-0.388-0.97-0.388-1.358 0s-0.388 0.97 0 1.358l3.733 3.733c0.388 0.388 0.921 0.63 1.455 0.63 0.582 0 1.067-0.194 1.455-0.63l8.97-8.97c0.388-0.388 0.388-0.97 0-1.358s-0.97-0.339-1.358 0.049z"></path>
</svg>
