<?xml version="1.0" encoding="UTF-8" standalone="no"?>
<svg
   xmlns:dc="http://purl.org/dc/elements/1.1/"
   xmlns:cc="http://creativecommons.org/ns#"
   xmlns:rdf="http://www.w3.org/1999/02/22-rdf-syntax-ns#"
   xmlns:svg="http://www.w3.org/2000/svg"
   xmlns="http://www.w3.org/2000/svg"
   height="65"
   width="65"
   id="svg16"
   version="1.1"
   y="0px"
   x="0px"
   viewBox="0 0 65 65">
  <metadata
     id="metadata22">
    <rdf:RDF>
      <cc:Work
         rdf:about="">
        <dc:format>image/svg+xml</dc:format>
        <dc:type
           rdf:resource="http://purl.org/dc/dcmitype/StillImage" />
        <dc:title>Straight_Line</dc:title>
      </cc:Work>
    </rdf:RDF>
  </metadata>
  <defs
     id="defs20" />
  <title
     id="title2">Straight_Line</title>
  <path
     id="path4"
     d="m 62.5,5 h -60 a 2.5,2.5 0 0 1 0,-5 h 60 a 2.5,2.5 0 0 1 0,5 z" />
  <path
     id="path6"
     d="m 22.5,65 h -20 a 2.5,2.5 0 0 1 0,-5 h 20 a 2.5,2.5 0 0 1 0,5 z" />
  <path
     id="path8"
     d="m 62.5,45 h -60 a 2.5,2.5 0 0 1 0,-5 h 60 a 2.5,2.5 0 0 1 0,5 z" />
  <path
     id="path10"
     d="m 42.5,25 h -40 a 2.5,2.5 0 0 1 0,-5 h 40 a 2.5,2.5 0 0 1 0,5 z" />
</svg>
