<!-- Optimised/Generated by IcoMoon.io -->
<svg version="1.1" xmlns="http://www.w3.org/2000/svg" width="32" height="32" viewBox="0 0 32 32">
<title>text</title>
<path d="M30.769 2.462h-29.538c-0.68 0-1.231-0.551-1.231-1.231s0.551-1.231 1.231-1.231v0h29.538c0.68 0 1.231 0.551 1.231 1.231s-0.551 1.231-1.231 1.231v0z"></path>
<path d="M11.077 32h-9.846c-0.68 0-1.231-0.551-1.231-1.231s0.551-1.231 1.231-1.231v0h9.846c0.68 0 1.231 0.551 1.231 1.231s-0.551 1.231-1.231 1.231v0z"></path>
<path d="M30.769 22.154h-29.538c-0.68 0-1.231-0.551-1.231-1.231s0.551-1.231 1.231-1.231v0h29.538c0.68 0 1.231 0.551 1.231 1.231s-0.551 1.231-1.231 1.231v0z"></path>
<path d="M20.923 12.308h-19.692c-0.68 0-1.231-0.551-1.231-1.231s0.551-1.231 1.231-1.231v0h19.692c0.68 0 1.231 0.551 1.231 1.231s-0.551 1.231-1.231 1.231v0z"></path>
</svg>
