<!-- Optimised/Generated by IcoMoon.io -->
<svg version="1.1" xmlns="http://www.w3.org/2000/svg" width="32" height="32" viewBox="0 0 32 32">
<title>unsubscribe</title>
<path d="M30.979 11.409l-9.35-1.781-4.55-8.475c-0.115-0.214-0.284-0.385-0.49-0.5l-0.006-0.003c-0.171-0.097-0.374-0.154-0.592-0.154-0.124 0-0.244 0.019-0.356 0.053l0.009-0.002c-0.324 0.097-0.586 0.315-0.739 0.599l-0.003 0.007-4.55 8.476-9.332 1.782c-0.236 0.048-0.441 0.158-0.604 0.312l0.001-0.001c-0.243 0.231-0.395 0.558-0.395 0.919 0 0.329 0.125 0.628 0.33 0.853l-0.001-0.001 6.518 7.028-1.215 9.573c-0.003 0.025-0.006 0.050-0.007 0.073-0.002 0.026-0.003 0.056-0.003 0.087 0 0.658 0.508 1.197 1.153 1.247l0.004 0h0.003c0.019 0.001 0.041 0.002 0.064 0.002 0.195 0 0.379-0.045 0.542-0.126l-0.007 0.003 8.598-4.148 8.576 4.148c0.158 0.080 0.344 0.126 0.541 0.126h0c0 0 0 0 0 0 0.054 0 0.108-0.004 0.161-0.011l-0.006 0.001c0.616-0.085 1.086-0.608 1.086-1.241 0-0.056-0.004-0.111-0.011-0.165l0.001 0.006-1.215-9.574 6.519-7.030c0.204-0.223 0.329-0.521 0.329-0.848 0-0.604-0.425-1.109-0.992-1.231l-0.008-0.002zM22.597 20.254l1 7.858-7.070-3.382c-0.154-0.076-0.336-0.12-0.527-0.12s-0.373 0.044-0.535 0.123l0.007-0.003-7.069 3.382 1-7.856c0.008-0.052 0.012-0.112 0.012-0.173 0-0.335-0.131-0.64-0.345-0.865l0.001 0.001-5.373-5.774 7.685-1.466c0.375-0.072 0.685-0.306 0.858-0.625l0.003-0.007 3.738-6.969 3.757 6.97c0.176 0.325 0.486 0.558 0.853 0.629l0.008 0.001 7.704 1.467-5.371 5.773c-0.214 0.225-0.346 0.53-0.346 0.865 0 0.061 0.004 0.12 0.013 0.179l-0.001-0.007z"></path>
<path d="M18.96 18.379h-5.92c-0.748 0-1.355-0.607-1.355-1.355s0.607-1.355 1.355-1.355v0h5.92c0.748 0 1.355 0.606 1.355 1.355s-0.607 1.355-1.355 1.355v0z"></path>
</svg>
