<svg id="Layer_1" data-name="Layer 1" xmlns="http://www.w3.org/2000/svg" viewBox="0 0 70.8662 70.8662"><path d="M68.6048,25.2661,47.8982,21.3214,37.8217,2.5523a2.74986,2.74986,0,0,0-1.098-1.11448,2.69468,2.69468,0,0,0-2.0805-.22774,2.73305,2.73305,0,0,0-1.6447,1.34167L22.9219,21.3214,2.255,25.2667a2.72837,2.72837,0,0,0-1.3368.6898A2.80754,2.80754,0,0,0,.773,29.8786L15.2085,45.4435l-2.691,21.201c-.0066.0556-.0132.1117-.0154.1606a2.76865,2.76865,0,0,0,2.5568,2.9535h.0066a2.71708,2.71708,0,0,0,1.3268-.2685l19.0398-9.187,18.9924,9.1854a2.71284,2.71284,0,0,0,1.1981.28,2.67038,2.67038,0,0,0,.3422-.022,2.7739,2.7739,0,0,0,2.3819-3.1003L55.6556,45.4435,70.0933,29.8753a2.79,2.79,0,0,0-1.4885-4.6092ZM50.0436,44.8538l2.2136,17.4026-15.6578-7.49a2.705,2.705,0,0,0-2.3368.0005L18.607,62.2564l2.2135-17.3982a2.78387,2.78387,0,0,0-.736-2.2983L8.1861,29.7725l17.0187-3.2472a2.73939,2.73939,0,0,0,1.9077-1.3984L35.3903,9.693l8.3195,15.4356a2.73384,2.73384,0,0,0,1.9056,1.3961L62.677,29.7725,50.7829,42.5566A2.78141,2.78141,0,0,0,50.0436,44.8538Z"/><path d="M41.9883,40.7008H28.878a3,3,0,0,1,0-6H41.9883a3,3,0,0,1,0,6Z"/></svg>