<svg id="Layer_1" data-name="Layer 1" xmlns="http://www.w3.org/2000/svg" viewBox="0 0 70.8661 70.8661"><path d="M45.0924,19.3185V3.22h1.6117L61.1939,19.3185ZM61.1939,64.3996a3.22046,3.22046,0,0,1-3.2203,3.2203H12.8925a3.22046,3.22046,0,0,1-3.2203-3.2203V6.4403A3.22046,3.22046,0,0,1,12.8925,3.22H41.8722V19.3185a3.22037,3.22037,0,0,0,3.2202,3.2203H61.1939ZM48.3127-.0003H12.8925A6.44091,6.44091,0,0,0,6.4519,6.4403V64.3996a6.44091,6.44091,0,0,0,6.4406,6.4406H57.9736a6.43835,6.43835,0,0,0,6.4376-6.4406V17.7098Z" style="fill:#1d1d1b"/><path d="M51.4688,33.6741a1.44384,1.44384,0,0,0-1.4448-1.4436,1.42755,1.42755,0,0,0-.6451.1533l-5.1137,2.5569-.811.4055V31.6704a1.4449,1.4449,0,0,0-1.4432-1.4433H21.9744a1.445,1.445,0,0,0-1.4433,1.4433V47.6996a1.44492,1.44492,0,0,0,1.4433,1.4433H42.011a1.44483,1.44483,0,0,0,1.4432-1.4433V44.0239l.811.4055,5.1133,2.5566a1.443,1.443,0,0,0,2.0903-1.29Zm-10.9011,0V46.2563h-17.15V33.1137h17.15ZM48.5823,36.92v6.4408l-.811-.4055-4.0074-2.0037-.3097-.1548V38.5773l.3097-.1548,4.0074-2.0037.811-.4055Z" style="fill:#010101"/></svg>