<!-- Optimised/Generated by IcoMoon.io -->
<svg version="1.1" xmlns="http://www.w3.org/2000/svg" width="32" height="32" viewBox="0 0 32 32">
<title>video-object</title>
<path d="M20.362 8.723v-7.269h0.728l6.543 7.269zM27.632 29.080c-0 0.803-0.651 1.454-1.454 1.454h-20.357c-0.803-0-1.454-0.651-1.454-1.454v0-26.172c0-0.803 0.651-1.454 1.454-1.454h13.086v7.269c0 0.803 0.651 1.454 1.454 1.454h7.271zM21.816-0h-15.994c-1.606 0-2.908 1.302-2.908 2.908v0 26.172c0 1.606 1.302 2.908 2.908 2.908h20.357c1.605-0 2.907-1.302 2.907-2.907 0-0 0-0.001 0-0.001v0-21.083z"></path>
<path d="M23.241 15.206c-0-0.36-0.292-0.652-0.652-0.652-0 0-0 0-0 0h0c-0 0-0 0-0.001 0-0.106 0-0.206 0.026-0.294 0.071l0.004-0.002-2.675 1.338v-1.66c-0-0.36-0.292-0.651-0.652-0.652h-9.048c-0.36 0-0.651 0.292-0.652 0.652v7.238c0 0.36 0.292 0.651 0.652 0.652h9.048c0.36-0 0.651-0.292 0.652-0.652v-1.66l2.675 1.338c0.085 0.044 0.186 0.069 0.292 0.069 0.36 0 0.652-0.292 0.652-0.652 0-0 0-0 0-0v0zM18.319 15.206v5.682h-7.744v-5.935h7.744zM21.938 16.671v2.908l-2.316-1.158v-1.002l2.316-1.158z"></path>
</svg>
