<svg id="Layer_1" data-name="Layer 1" xmlns="http://www.w3.org/2000/svg" xmlns:xlink="http://www.w3.org/1999/xlink" viewBox="0 0 70.87 70.87"><defs><style>.cls-1{fill:none;}.cls-2{clip-path:url(#clip-path);}.cls-3{fill:#1d1d1b;}</style><clipPath id="clip-path"><rect class="cls-1" x="7.09" width="56.69" height="70.87"/></clipPath></defs><title>icons-collected</title><g class="cls-2"><path class="cls-3" d="M26,61.2a1.6,1.6,0,0,0,1.52-1.67L25.24,20.92a1.57,1.57,0,1,0-3.15.12l2.32,38.61A1.59,1.59,0,0,0,26,61.2m26.71,3.22a3.4,3.4,0,0,1-3.15,3.22H21.26a3.4,3.4,0,0,1-3.15-3.22L15,12.88H55.91ZM27.56,3.22H43.31V9.66H27.56ZM62.21,9.66H46.46V3.22A3.19,3.19,0,0,0,43.31,0H27.56a3.19,3.19,0,0,0-3.15,3.22V9.66H8.66a1.61,1.61,0,0,0,0,3.22h3.15L15,64.43c.51,3.53,2.82,6.44,6.3,6.44H49.61c3.48,0,5.71-3,6.3-6.44l3.15-51.54h3.15a1.61,1.61,0,0,0,0-3.22M35.43,61.2A1.59,1.59,0,0,0,37,59.59V20.94a1.58,1.58,0,1,0-3.15,0V59.59a1.59,1.59,0,0,0,1.57,1.61m9.4,0a1.59,1.59,0,0,0,1.63-1.55L48.74,21a1.57,1.57,0,1,0-3.15-.12L43.31,59.54a1.6,1.6,0,0,0,1.52,1.67"/></g></svg>