<!-- Optimised/Generated by IcoMoon.io -->
<svg version="1.1" xmlns="http://www.w3.org/2000/svg" width="32" height="32" viewBox="0 0 32 32">
<title>waste-bin</title>
<path d="M11.74 27.634c0.383-0.019 0.687-0.335 0.687-0.722 0-0.011-0-0.023-0.001-0.034l0 0.002-1.030-17.434c-0.015-0.381-0.328-0.685-0.711-0.685-0.393 0-0.712 0.319-0.712 0.712 0 0.010 0 0.019 0.001 0.028l-0-0.001 1.048 17.434c0.010 0.389 0.328 0.7 0.718 0.7 0 0 0 0 0 0v0zM23.8 29.088c-0.040 0.775-0.65 1.396-1.417 1.454l-0.005 0h-12.778c-0.772-0.058-1.382-0.678-1.422-1.45l-0-0.004-1.404-23.272h18.472zM12.444 1.454h7.112v2.908h-7.112zM28.090 4.362h-7.112v-2.908c0-0.004 0-0.009 0-0.014 0-0.789-0.635-1.43-1.421-1.44h-7.113c-0.788 0.010-1.422 0.651-1.422 1.44 0 0.005 0 0.010 0 0.014v-0.001 2.908h-7.112c-0.401 0-0.727 0.325-0.727 0.727s0.325 0.727 0.727 0.727h1.422l1.44 23.276c0.23 1.594 1.273 2.908 2.845 2.908h12.783c1.571 0 2.578-1.355 2.845-2.908l1.422-23.272h1.422c0.401 0 0.727-0.325 0.727-0.727s-0.325-0.727-0.727-0.727v0zM15.998 27.634c0.393-0.005 0.709-0.325 0.709-0.718 0-0.003-0-0.006-0-0.010v0-17.452c0.001-0.017 0.002-0.037 0.002-0.057 0-0.394-0.319-0.713-0.713-0.713s-0.713 0.319-0.713 0.713c0 0.020 0.001 0.040 0.002 0.059l-0-0.003v17.452c-0 0.003-0 0.006-0 0.009 0 0.393 0.316 0.713 0.708 0.718h0zM20.238 27.634c0.005 0 0.012 0 0.018 0 0.39 0 0.708-0.311 0.718-0.699l0-0.001 1.034-17.452c0-0.008 0.001-0.018 0.001-0.027 0-0.393-0.319-0.712-0.712-0.712-0.384 0-0.696 0.303-0.711 0.683l-0 0.001-1.029 17.456c-0 0.010-0.001 0.021-0.001 0.032 0 0.387 0.304 0.702 0.685 0.721l0.002 0z"></path>
</svg>
