<svg xmlns="http://www.w3.org/2000/svg" xmlns:xlink="http://www.w3.org/1999/xlink"><defs/><symbol id="add-existing-collection" viewBox="0 0 32 32"><path d="M3.5 11.948v3.532H0v1.214h3.5v3.542h1.135v-3.542H8.13V15.48H4.635v-3.532H3.5zM31.236 14.711l-1.309 10.063a.282.282 0 0 1-.188.222l-.002.001-.027.008H12.791a.283.283 0 0 1-.2-.226v-.002l-1.299-10.068a.246.246 0 0 1 .063-.193.352.352 0 0 1 .258-.112H30.911c.103 0 .195.043.261.113a.245.245 0 0 1 .062.195v-.001zm-15.755-3.722c0-.078.064-.141.142-.141h9.333v1.536c0 .307.249.555.555.555h1.537v.706H15.481zm10.237 1.187v-1.19l1.072 1.19zm2.053-.09-.015-.016-1.804-1.985H15.623a.905.905 0 0 0-.904.904v2.656h-2.045V7.21c0-.119.096-.215.215-.216H17.949c.077 0 .145.04.184.099v.001l1.149 1.797c.174.272.473.45.814.453h9.538a.22.22 0 0 1 .22.217v4.089h-1.686l-.149-.005h-.209v-1.516zm3.976 1.927a1.111 1.111 0 0 0-.824-.368h-.309V9.567a.978.978 0 0 0-.974-.977h-9.539a.218.218 0 0 1-.184-.101l-.001-.001-1.15-1.798a.982.982 0 0 0-.814-.451H12.89a.977.977 0 0 0-.975.969v6.437h-.317a1.11 1.11 0 0 0-.826.366l-.001.001a1.003 1.003 0 0 0-.234.799l-.001-.005 1.311 10.068c.063.417.364.75.757.859l.007.002.019.005h.027a.458.458 0 0 0 .088.017h.002l.008.001h16.878a.413.413 0 0 0 .037.002h.006l.055-.002h.04l.011-.002c.042-.006.077-.014.112-.023l-.007.002.105-.035c.362-.131.628-.446.687-.829l.001-.006 1.311-10.061a1.004 1.004 0 0 0-.246-.793l.001.001z"/></symbol><symbol id="add-existing-object" viewBox="0 0 32 32"><path d="M25.58 10.649v-5.35h.536l4.815 5.35zm5.351 14.982a1.07 1.07 0 0 1-1.07 1.07H14.879a1.07 1.07 0 0 1-1.07-1.07V6.369c0-.591.479-1.07 1.07-1.07h9.631v5.35c0 .591.479 1.07 1.07 1.07h5.351zM26.65 4.229H14.879a2.14 2.14 0 0 0-2.14 2.14v19.262a2.14 2.14 0 0 0 2.14 2.14h14.982A2.139 2.139 0 0 0 32 25.631V10.114zM9.909 15.273h-4.26v-4.304H4.266v4.304H0v1.48h4.266v4.317h1.383v-4.317h4.26v-1.48z"/></symbol><symbol id="add-new-collection" viewBox="0 0 32 32"><path d="M15.089 14.471v5.21H9.926v1.79h5.163v5.225h1.674v-5.225h5.155v-1.79h-5.155v-5.21h-1.674z"/><path d="m30.745 13.522-1.931 14.845a.419.419 0 0 1-.277.328l-.003.001-.04.012H3.534a.42.42 0 0 1-.296-.334v-.002L1.322 13.52a.356.356 0 0 1 .094-.285.52.52 0 0 1 .381-.166h28.47a.53.53 0 0 1 .385.166.364.364 0 0 1 .092.288v-.002zM7.502 8.031a.21.21 0 0 1 .209-.209H21.48v2.266a.82.82 0 0 0 .819.819h2.267v1.042H7.502zm15.103 1.752V8.027l1.581 1.756zm3.028-.133-.023-.024-2.662-2.929H7.71a1.336 1.336 0 0 0-1.334 1.334v3.919H3.359V2.456a.32.32 0 0 1 .317-.319h7.464c.114 0 .214.058.272.147l.001.001 1.695 2.652c.256.401.698.664 1.201.668H28.381c.178 0 .322.143.324.32v6.032h-2.487l-.22-.007h-.309V9.713zm5.865 2.842a1.639 1.639 0 0 0-1.216-.543h-.456V5.933a1.444 1.444 0 0 0-1.437-1.442H14.317a.324.324 0 0 1-.272-.148l-.001-.001-1.696-2.653a1.448 1.448 0 0 0-1.2-.665H3.68a1.442 1.442 0 0 0-1.439 1.429v9.496h-.468a1.64 1.64 0 0 0-1.219.54l-.001.001a1.48 1.48 0 0 0-.346 1.179l-.001-.008L2.14 28.514a1.552 1.552 0 0 0 1.117 1.267l.011.003.028.008h.039a.695.695 0 0 0 .13.026h.003l.011.001h24.899a.456.456 0 0 0 .055.003h.009c.027 0 .054-.001.08-.003l.043.001h.017l.016-.002c.061-.009.114-.021.165-.034l-.01.002.155-.052a1.553 1.553 0 0 0 1.014-1.222l.001-.009 1.935-14.842a1.485 1.485 0 0 0-.364-1.171l.001.002z"/></symbol><symbol id="add-new-object" viewBox="0 0 32 32"><path d="M20.626 8.712v-7.26h.727l6.534 7.26zm7.262 20.33c0 .802-.65 1.452-1.452 1.452H6.106c-.802 0-1.452-.65-1.452-1.452V2.905c0-.802.65-1.452 1.452-1.452h13.069v7.26c0 .802.65 1.452 1.452 1.452h7.261zM22.079 0H6.106a2.904 2.904 0 0 0-2.904 2.904v26.137c0 1.604 1.3 2.904 2.904 2.904h20.33c1.603 0 2.903-1.3 2.903-2.903V7.986z"/><path d="M9.503 18.529h13.446v2.008H9.503v-2.008z"/><path d="M15.291 12.688h1.877v13.708h-1.877V12.688z"/></symbol><symbol id="archive-arrow" viewBox="0 0 32 32"><path d="M4.507 4.66a1.059 1.059 0 0 0-.9.8l-.001.007L.032 19.664c-.018.077-.03.165-.032.256V28.435c0 .588.476 1.066 1.063 1.068h29.814a1.069 1.069 0 0 0 1.064-1.068v-8.514a1.273 1.273 0 0 0-.033-.265l.002.009-3.552-14.197a1.06 1.06 0 0 0-1.029-.807H4.506zm.942 2.128h21.048l3.015 12.065h-7.509a1.11 1.11 0 0 0-1.064 1.066v1.773h-9.915v-1.771a1.109 1.109 0 0 0-1.061-1.068H2.43zM2.127 20.985h6.761v1.758a1.105 1.105 0 0 0 1.062 1.064h12.054a1.105 1.105 0 0 0 1.064-1.062v-1.76h6.761v6.386h-27.7z"/><path d="M15.973 19.056a1.19 1.19 0 0 0 .745-.294l-.001.001 6.125-5.764a1.23 1.23 0 0 0 .088-1.576l.002.003a1.12 1.12 0 0 0-1.578 0l-4.3 4.056V3.561a1.082 1.082 0 0 0-2.164 0v11.926l-4.3-4.056a1.177 1.177 0 0 0-1.579.001l.001-.001a1.211 1.211 0 0 0-.246.736c0 .327.128.623.337.842v-.001l6.125 5.755c.187.181.443.293.724.293h.021-.001z"/></symbol><symbol id="archive-empty" viewBox="0 0 32 32"><path d="M4.507 3.61a1.059 1.059 0 0 0-.9.8l-.001.007L.032 18.614c-.018.077-.03.165-.032.256V27.385c0 .588.476 1.066 1.063 1.068h29.814a1.069 1.069 0 0 0 1.064-1.068v-8.514a1.273 1.273 0 0 0-.033-.265l.002.009-3.552-14.197a1.06 1.06 0 0 0-1.029-.807H4.506zm.942 2.127h21.048l3.015 12.065h-7.509a1.11 1.11 0 0 0-1.064 1.066v1.773h-9.915V18.87a1.109 1.109 0 0 0-1.061-1.068H2.43zM2.127 19.935h6.761v1.758a1.105 1.105 0 0 0 1.062 1.064h12.054a1.105 1.105 0 0 0 1.064-1.062v-1.76h6.761v6.386h-27.7z"/></symbol><symbol id="archive-sheets" viewBox="0 0 32 32"><path d="M8.054 3.155a1.1 1.1 0 0 0-.899.705l-.003.008H4.506c-.44.056-.793.374-.9.79l-.002.007L.03 18.862c-.02.077-.032.165-.032.255v.011-.001 8.514c0 .588.476 1.066 1.063 1.068h29.814a1.069 1.069 0 0 0 1.064-1.068V19.116c0-.091-.012-.179-.033-.262l.002.007-3.552-14.197a1.062 1.062 0 0 0-1.026-.798H24.787a1.111 1.111 0 0 0-1.008-.712H8.053zm1.172 2.118h13.49v2.839H9.226zm-3.782.721h1.654v2.132h-.82c-.532.074-.94.519-.955 1.062v3.905H4.147c-.207.02-.393.1-.543.222l.002-.001zm19.381 0h1.654l1.839 7.342a1.017 1.017 0 0 0-.653-.243h-1.046V9.19a1.105 1.105 0 0 0-1.062-1.064h-.714zm-17.37 4.26h17.032v2.839H7.455zm-4.259 4.745v3.06H2.43zm25.55 0 .766 3.06h-.766zm-23.437.221h21.309v2.839h-4.615a1.11 1.11 0 0 0-1.064 1.066v1.773h-9.915v-1.771a1.109 1.109 0 0 0-1.061-1.068h-4.64zm-3.195 4.958h6.761v1.771a1.105 1.105 0 0 0 1.062 1.064h12.067a1.105 1.105 0 0 0 1.064-1.062v-1.76h6.761v6.386h-27.7z"/></symbol><symbol id="arrow-left" viewBox="0 0 32 32"><path d="M0 16.002c.021.551.231 1.048.567 1.434l-.002-.003 11.13 11.83c.754.677 2.199.957 3.043.172.385-.392.622-.929.622-1.522s-.237-1.13-.622-1.522L6.89 18.087h23.028a2.086 2.086 0 0 0 0-4.172H6.89l7.825-8.304c.713-.713.844-2.258 0-3.043s-2.321-.533-3.043.172L.564 14.566a2.005 2.005 0 0 0-.565 1.397v.041-.002z"/></symbol><symbol id="attachment" viewBox="0 0 32 32"><path d="M27.178 1.831c3.328 2.671 2.493 4.746.61 7.023L17.009 21.833c-2.055 2.489-3.304 3.742-5.999 1.472-2.021-1.684-1.347-4.211.869-6.889l8.734-10.523 1.748 1.459-8.731 10.526c-1.388 1.886-2.247 3.139-.916 3.968s1.304.04 2.56-1.475L26.053 7.389c1.011-1.206 1.651-2.233-.337-3.803-3.466-2.769-6.208.034-7.131 1.145l-12.8 15.438c-2.166 2.611-1.095 7.074.785 8.681 1.442 1.219 6.484 1.819 8.65-.792L28.027 12.63l1.752 1.465-12.8 15.431c-2.964 3.584-9.368 2.759-11.584.805C2.34 27.636 1.08 22.29 4.048 18.71l12.8-15.434c3.274-3.951 7.047-4.197 10.331-1.445z"/></symbol><symbol id="attention" viewBox="0 0 32 32"><path d="M25.186 6.773a12.974 12.974 0 0 0-9.211-3.819c-7.189 0-13.018 5.828-13.018 13.018S8.785 28.99 15.975 28.99c7.183 0 13.008-5.818 13.018-12.999v-.001a13.051 13.051 0 0 0-3.807-9.216l.001.001zm-9.188 11.026a1.514 1.514 0 0 1-1.454-1.451v-.003l-.727-6.479c-.117-1.133 1.084-2.19 2.181-2.19s2.298 1.048 2.154 2.181l-.7 6.493a1.514 1.514 0 0 1-1.451 1.454h-.003zm0 2.186h.009c1.183 0 2.142.958 2.145 2.14v.009a2.172 2.172 0 0 1-2.153 2.172h-.001a2.196 2.196 0 0 1-2.181-2.18v-.001a2.172 2.172 0 0 1 2.172-2.149h.01-.001zm0-19.877c8.762.011 15.861 7.117 15.861 15.88 0 8.77-7.11 15.88-15.88 15.88S.099 24.758.099 15.988c0-4.385 1.778-8.356 4.652-11.23a15.812 15.812 0 0 1 11.23-4.66h.018-.001z"/></symbol><symbol id="audio-object" viewBox="0 0 32 32"><path d="M20.362 8.723V1.454h.728l6.543 7.269zm7.27 20.357c0 .803-.651 1.454-1.454 1.454H5.821a1.454 1.454 0 0 1-1.454-1.454V2.908c0-.803.651-1.454 1.454-1.454h13.086v7.269c0 .803.651 1.454 1.454 1.454h7.271zM21.816 0H5.822a2.908 2.908 0 0 0-2.908 2.908V29.08a2.908 2.908 0 0 0 2.908 2.908h20.357a2.908 2.908 0 0 0 2.907-2.907V7.997z"/><path d="M16.233 12.389a.6.6 0 0 0-.66.132l-2.246 2.246H9.943a.606.606 0 0 0-.606.606v4.847c0 .334.271.606.606.606h3.384l2.246 2.246c.11.11.261.177.428.177h.002a.59.59 0 0 0 .234-.048l-.004.001a.609.609 0 0 0 .374-.56v-9.693a.606.606 0 0 0-.37-.558l-.004-.002zm-.838 8.791-1.389-1.389a.6.6 0 0 0-.428-.177h-3.03v-3.635h3.03a.603.603 0 0 0 .428-.178l1.389-1.389zM20.212 13.94a.603.603 0 0 0 0 .856c.766.768 1.24 1.828 1.24 2.999s-.474 2.231-1.24 2.999a.606.606 0 0 0 .857.857c.985-.987 1.595-2.35 1.595-3.856s-.609-2.868-1.595-3.856a.606.606 0 0 0-.857.001z"/></symbol><symbol id="calendar-many" viewBox="0 0 32 32"><path d="M28.731 9.112H3.265v-3.82c0-.703.57-1.273 1.273-1.273h2.547v1.91a.637.637 0 1 0 1.274 0v-1.91h15.28v1.91a.637.637 0 1 0 1.274 0v-1.91h2.547c.703 0 1.273.57 1.273 1.273zm0 20.143c0 .703-.57 1.273-1.273 1.273H4.538c-.703 0-1.273-.57-1.273-1.273V10.386h25.466zm-1.273-26.51h-2.547V.835a.637.637 0 1 0-1.274 0v1.91H8.357V.835a.637.637 0 1 0-1.274 0v1.91H4.536a2.547 2.547 0 0 0-2.547 2.547v23.963a2.547 2.547 0 0 0 2.547 2.547h22.92a2.547 2.547 0 0 0 2.547-2.547V5.292a2.547 2.547 0 0 0-2.547-2.547z"/><path d="M6.303 12.39h3.793v3.793H6.303V12.39zM6.303 18.079h3.793v3.793H6.303v-3.793zM6.303 23.769h3.793v3.793H6.303v-3.793zM21.47 12.39h3.793v3.793H21.47V12.39zM21.47 18.079h3.793v3.793H21.47v-3.793zM21.47 23.769h3.793v3.793H21.47v-3.793zM13.889 12.39h3.793v3.793h-3.793V12.39zM13.889 18.079h3.793v3.793h-3.793v-3.793zM13.889 23.769h3.793v3.793h-3.793v-3.793z"/></symbol><symbol id="calendar-number" viewBox="0 0 32 32"><path d="M14.395 24.581a2.095 2.095 0 0 1-.681.388l-.015.004c-.246.089-.529.14-.824.14h-.012.001a1.949 1.949 0 0 1-1.574-.635l-.001-.002a2.56 2.56 0 0 1-.569-1.614v-.031.002H9.514l-.002.133c0 .465.082.912.232 1.325l-.009-.027c.151.415.381.769.673 1.061.293.285.65.508 1.046.644l.02.006c.399.14.859.222 1.338.222h.056-.003.03c.473 0 .929-.073 1.357-.207l-.032.009a3.154 3.154 0 0 0 1.102-.596l-.005.004c.314-.267.566-.597.738-.971l.007-.017c.174-.38.276-.824.276-1.292l-.001-.066v.003l.001-.065c0-.577-.169-1.116-.459-1.568l.007.012a2.094 2.094 0 0 0-1.341-.901l-.013-.002v-.032c.403-.19.737-.468.988-.81l.005-.007c.248-.334.398-.754.398-1.209v-.035.002l.001-.069c0-.423-.087-.826-.243-1.192l.008.02a2.316 2.316 0 0 0-.642-.859l-.004-.003a2.788 2.788 0 0 0-.951-.501l-.02-.005a4.13 4.13 0 0 0-1.176-.167h-.041.002l-.07-.001c-.454 0-.886.092-1.28.257l.022-.008a2.635 2.635 0 0 0-.955.684l-.002.003a3.059 3.059 0 0 0-.581 1.03l-.006.022c-.135.402-.22.866-.235 1.347v.007h1.206v-.025c0-.298.041-.586.118-.86l-.005.022a2.09 2.09 0 0 1 .351-.723l-.004.005c.159-.204.358-.368.586-.483l.01-.005a1.83 1.83 0 0 1 .847-.18h-.002l.071-.001c.457 0 .878.157 1.211.42l-.004-.003a1.518 1.518 0 0 1 .51 1.255v-.005a1.649 1.649 0 0 1-.198.745l.004-.009a1.586 1.586 0 0 1-.417.531l-.003.002a1.846 1.846 0 0 1-.596.317l-.013.004a2.398 2.398 0 0 1-.722.108h-.533v1.052c.214-.029.461-.045.713-.045h.01-.001.03c.291 0 .571.045.834.127l-.02-.005c.261.081.486.212.675.381l-.002-.002c.188.173.341.382.447.616l.005.012a2 2 0 0 1 .172.819v.036-.002l.001.044c0 .278-.058.542-.163.781l.005-.012a1.906 1.906 0 0 1-.472.626l-.002.002zm6.145 1.432h1.206v-10.34h-.903a2.328 2.328 0 0 1-.375.975l.005-.008a2.025 2.025 0 0 1-.649.595l-.01.005a2.616 2.616 0 0 1-.856.296l-.015.002a5.736 5.736 0 0 1-.979.081h-.015.001v.993h2.61zm8.358-16.982h-25.8v-3.87c0-.713.578-1.291 1.291-1.291h2.578v1.933a.646.646 0 1 0 1.292 0V3.87h15.478v1.933a.646.646 0 1 0 1.292 0V3.87h2.578c.713 0 1.291.578 1.291 1.291zm0 20.409c0 .713-.578 1.291-1.291 1.291H4.389a1.291 1.291 0 0 1-1.291-1.291V10.322h25.8zM27.607 2.578h-2.578V.645a.646.646 0 1 0-1.292 0v1.933H8.259V.645a.646.646 0 1 0-1.292 0v1.933H4.384a2.578 2.578 0 0 0-2.578 2.578V29.44a2.578 2.578 0 0 0 2.578 2.578h23.222a2.578 2.578 0 0 0 2.578-2.578V5.161a2.578 2.578 0 0 0-2.578-2.578z"/></symbol><symbol id="camera" viewBox="0 0 32 32"><path d="M28.93 15.998h-1.436v1.436h1.436zm-1.436 4.321h1.436v-1.445h-1.436zM30.365.199H7.378c-.793 0-1.436.643-1.436 1.436v7.184a.718.718 0 0 0 1.436 0V3.071c0-.793.643-1.436 1.436-1.436h2.872v6.466a.718.718 0 0 0 1.436 0V1.635h11.496v9.338a.718.718 0 0 0 1.436 0V1.635h2.877c.793 0 1.436.643 1.436 1.436v9.338h-2.154a.718.718 0 0 0 0 1.436h2.154v9.338c0 .793-.643 1.436-1.436 1.436h-.718a.718.718 0 0 0 0 1.436h2.154c.793 0 1.436-.643 1.436-1.436V1.636C31.803.843 31.16.2 30.367.2zM28.93 3.07h-1.436v1.445h1.436zm-1.436 7.184h1.436v-1.44h-1.436zM10.254 3.07h-1.44v1.445h1.436zm17.24 20.112h1.436v-1.436h-1.436zm0-15.804h1.436V5.942h-1.436zm-5.748 12.941a.718.718 0 1 0 .718.718.718.718 0 0 0-.718-.718zm-8.62 5.734a4.308 4.308 0 1 1 4.308-4.308 4.308 4.308 0 0 1-4.308 4.308zm0-10.055c-3.175 0-5.748 2.573-5.748 5.748s2.573 5.748 5.748 5.748a5.747 5.747 0 0 0 5.748-5.748 5.747 5.747 0 0 0-5.748-5.748zm-4.308-8.62h1.436V5.942H8.818zm15.804 21.547c0 .793-.643 1.436-1.436 1.436H3.07a1.436 1.436 0 0 1-1.436-1.436V15.998c0-.793.643-1.436 1.436-1.436h2.872c2.872 0 2.872-2.872 5.03-2.872h4.308c2.154 0 2.154 2.872 5.03 2.872h2.872c.793 0 1.436.643 1.436 1.436zm-1.436-15.804h-2.867c-2.154 0-2.154-2.872-5.03-2.872h-4.317c-2.872 0-2.872 2.872-5.03 2.872H3.07a2.872 2.872 0 0 0-2.872 2.872V28.93a2.872 2.872 0 0 0 2.872 2.872h20.111a2.872 2.872 0 0 0 2.872-2.872V15.998a2.872 2.872 0 0 0-2.872-2.872zm-10.06 10.061a1.436 1.436 0 1 1 1.436-1.436c0 .793-.643 1.436-1.436 1.436zm0-4.313a2.872 2.872 0 1 0 2.872 2.872 2.872 2.872 0 0 0-2.872-2.872zm8.62-2.871a1.436 1.436 0 1 0 1.436 1.436c0-.793-.643-1.436-1.436-1.436z"/></symbol><symbol id="check-mark" viewBox="0 0 32 32"><path d="m11.063 24.563-8.304-8.308a.904.904 0 1 0-1.266 1.263l.002.002 8.949 8.958a.9.9 0 0 0 1.278 0L30.519 6.755a.876.876 0 0 0 .253-.614.903.903 0 0 0-1.54-.614l-2.303 2.411-1.246 1.309z"/><path d="M11.076 27.968a2.118 2.118 0 0 1-1.512-.632L.623 18.395a2.127 2.127 0 0 1 2.992-3.005l-.003-.002 7.428 7.414L28.338 4.687A2.122 2.122 0 0 1 32 6.147V6.176c0 .508-.181.974-.482 1.336l.003-.003a1.101 1.101 0 0 1-.104.127l-2.492 2.61-.081.09-16.233 16.978a1 1 0 0 1-.119.107l-.002.002a2.114 2.114 0 0 1-1.413.546z"/></symbol><symbol id="clock" viewBox="0 0 32 32"><path d="M15.989 4.38a1.057 1.057 0 0 0-1.043 1.056v10.431a.933.933 0 0 0 .001.249l-.001-.005-.001.045.001.047v-.002.099l-.001.038.001.04v-.002c.084.187.216.341.38.449l.004.002 6.863 6.863a1.054 1.054 0 1 0 1.588-1.387l.001.001-.095-.095-6.633-6.651V5.43c0-.575-.461-1.042-1.033-1.052h-.033zm0-2.095h.05c7.573 0 13.713 6.14 13.713 13.713s-6.14 13.713-13.713 13.713c-7.573 0-13.713-6.14-13.713-13.713a13.67 13.67 0 0 1 3.997-9.677 13.617 13.617 0 0 1 9.675-4.037h.001zm.009-2.086C7.276.207.209 7.28.209 16.003c0 8.728 7.075 15.804 15.804 15.804s15.804-7.075 15.804-15.804c0-4.369-1.773-8.324-4.638-11.184A15.708 15.708 0 0 0 16.032.2h-.035.002z"/></symbol><symbol id="collection" viewBox="0 0 32 32"><path d="m30.745 13.522-1.931 14.845a.419.419 0 0 1-.277.328l-.003.001-.04.012H3.534a.42.42 0 0 1-.296-.334v-.002L1.322 13.52a.356.356 0 0 1 .094-.285.52.52 0 0 1 .381-.166h28.47a.53.53 0 0 1 .385.166.364.364 0 0 1 .092.288v-.002zM7.502 8.031a.21.21 0 0 1 .209-.209H21.48v2.266a.82.82 0 0 0 .819.819h2.267v1.042H7.502zm15.103 1.752V8.027l1.581 1.756zm3.028-.133-.023-.024-2.662-2.929H7.71a1.336 1.336 0 0 0-1.334 1.334v3.919H3.359V2.456a.32.32 0 0 1 .317-.319h7.464c.114 0 .214.058.272.147l.001.001 1.695 2.652c.256.401.698.664 1.201.668H28.381c.178 0 .322.143.324.32v6.032h-2.487l-.22-.007h-.309V9.713zm5.865 2.842a1.639 1.639 0 0 0-1.216-.543h-.456V5.933a1.444 1.444 0 0 0-1.437-1.442H14.317a.324.324 0 0 1-.272-.148l-.001-.001-1.696-2.653a1.448 1.448 0 0 0-1.2-.665H3.68a1.442 1.442 0 0 0-1.439 1.429v9.496h-.468a1.64 1.64 0 0 0-1.219.54l-.001.001a1.48 1.48 0 0 0-.346 1.179l-.001-.008L2.14 28.514a1.552 1.552 0 0 0 1.117 1.267l.011.003.028.008h.039a.695.695 0 0 0 .13.026h.003l.011.001h24.899a.456.456 0 0 0 .055.003h.009c.027 0 .054-.001.08-.003l.043.001h.017l.016-.002c.061-.009.114-.021.165-.034l-.01.002.155-.052a1.553 1.553 0 0 0 1.014-1.222l.001-.009 1.935-14.842a1.485 1.485 0 0 0-.364-1.171l.001.002z"/></symbol><symbol id="download" viewBox="0 0 32 32"><path d="M15.992 0a1.143 1.143 0 0 0-1.125 1.142v.017-.001 20.088l-7.189-7.189a1.142 1.142 0 0 0-1.614 1.616l9.139 9.139.013.011.002.002.035.033.001.001.047.041.002.002.03.022.003.002.054.038.005.003.041.025.005.003.047.026.006.003a.33.33 0 0 0 .041.019l.007.003.046.021.007.003c.011.005.031.011.051.018l.008.002.04.014.008.002c.011.003.031.009.051.013l.007.001.047.01.007.001.049.007.006.001a.629.629 0 0 0 .054.005h.003l.059.002h.001l.027.001.029-.001h-.001c.035-.001.069-.003.102-.007l-.005.001.014-.002-.007.001.078-.013-.007.001.062-.013-.008.002a.905.905 0 0 0 .051-.013l-.008.002.076-.023-.008.002c.022-.007.035-.013.049-.018l-.007.003a.664.664 0 0 0 .067-.029l-.007.003c.037-.017.065-.031.093-.046L16.57 25a.03.03 0 0 0 .007-.005l-.004.003c.027-.015.048-.029.069-.043l-.004.003c.019-.013.034-.022.048-.033l-.003.002c.028-.021.052-.04.075-.06l-.001.001.007-.007c.019-.016.037-.031.053-.047l9.138-9.138a1.142 1.142 0 0 0-.796-1.961l-.035.001h.002a1.14 1.14 0 0 0-.785.344l-7.188 7.189V1.146c0-.631-.511-1.142-1.142-1.142h-.018.001zM1.158 29.715h-.016a1.142 1.142 0 1 0 0 2.284H30.873a1.142 1.142 0 1 0 0-2.284h-.017z"/></symbol><symbol id="drag-lines" viewBox="0 0 32 32"><path d="M32 18.16H0v-4.375h32zm0-12.72H0v4.375h32zm0 16.691H0v4.375h32z"/></symbol><symbol id="drag-n-drop" viewBox="0 0 32 32"><path d="m31.812 15.562-5.122-4.17a.638.638 0 0 0-1.09.45v2.569h-8V6.409h2.564a.64.64 0 0 0 .454-1.09L16.46.193a.627.627 0 0 0-.9 0l-4.172 5.12a.638.638 0 0 0 .451 1.09h2.567v8h-8v-2.564a.64.64 0 0 0-1.09-.452L.188 15.545a.627.627 0 0 0 0 .9l5.122 4.17a.638.638 0 0 0 1.09-.45v-2.569h8v8.002h-2.564a.64.64 0 0 0-.454 1.088l4.152 5.122a.627.627 0 0 0 .9 0l4.172-5.122a.637.637 0 0 0-.45-1.088h-2.568v-8.002h8v2.564a.64.64 0 0 0 1.09.454l5.122-4.152a.62.62 0 0 0 .013-.9z"/></symbol><symbol id="drop-down" viewBox="0 0 32 32"><path d="M16.002 25.155a2.321 2.321 0 0 1-1.635-.677L.672 10.792a2.313 2.313 0 1 1 3.274-3.269l12.056 12.056L28.049 7.523a2.313 2.313 0 1 1 3.274 3.269L17.637 24.478a2.305 2.305 0 0 1-1.635.677z"/></symbol><symbol id="duplicate" viewBox="0 0 32 32"><path d="M30.08 7.074a.92.92 0 0 0-.269-.64L23.68.27a.92.92 0 0 0-.64-.269H11.015a2.243 2.243 0 0 0-2.223 2.223v4.547H4.245a2.22 2.22 0 0 0-2.223 2.223v20.817a2.22 2.22 0 0 0 2.223 2.223h16.876a2.22 2.22 0 0 0 2.223-2.223v-4.547h4.547a2.243 2.243 0 0 0 2.223-2.223zm-6.131-3.941 2.998 2.998h-2.998zM21.12 30.147H4.244a.374.374 0 0 1-.371-.371V8.959c0-.202.168-.371.371-.371H15.36v5.221c0 .505.404.909.909.909h5.221v15.057a.374.374 0 0 1-.371.371zm-3.907-17.28V9.869l2.998 2.998zm10.678 10.544h-4.547v-9.6a.92.92 0 0 0-.269-.64l-6.131-6.164a.92.92 0 0 0-.64-.269h-5.659V2.224c0-.202.168-.371.371-.371h11.116v5.221c0 .505.404.909.909.909h5.221V23.04a.374.374 0 0 1-.371.371z"/></symbol><symbol id="edit" viewBox="0 0 32 32"><path d="m4.204 23.634 4.183 4.183-5.404 1.221zm15.757-16.62 5.034 5.045-14.51 14.51-5.034-5.034zm3.949-3.948 5.033 5.045-2.269 2.271-5.035-5.035zM23.773.214c-.277.035-.52.16-.702.345L2.538 21.092a1.185 1.185 0 0 0-.32.558l-.002.008-1.973 8.688a1.206 1.206 0 0 0 .317 1.101 1.201 1.201 0 0 0 1.109.316l-.008.002 8.686-1.975c.228-.053.425-.165.58-.32L31.459 8.938c.201-.218.324-.511.324-.833s-.123-.614-.325-.834l.001.001L24.746.559a1.199 1.199 0 0 0-.98-.345h.005z"/></symbol><symbol id="eye-hide" viewBox="0 0 32 32"><path d="M16 5.157C7.29 5.157.228 10.011.228 16S7.29 26.844 16 26.844 31.772 21.99 31.772 16 24.71 5.156 16 5.156zm0 19.715c-7.622 0-13.801-3.973-13.801-8.872S8.378 7.128 16 7.128 29.801 11.101 29.801 16 23.622 24.872 16 24.872z"/><path d="M16 10.085A5.915 5.915 0 1 0 21.915 16v-.001a5.914 5.914 0 0 0-5.914-5.914H16zm0 9.858A3.943 3.943 0 1 1 19.943 16v.001a3.942 3.942 0 0 1-3.942 3.942H16z"/><path d="m2.488 28.118 25.63-25.63 1.394 1.394-25.63 25.63-1.394-1.394z"/></symbol><symbol id="eye" viewBox="0 0 32 32"><path d="M15.998 4.998C7.162 4.998 0 9.933 0 15.997s7.161 10.999 15.998 10.999S32 22.074 32 15.997 24.834 4.998 15.998 4.998zm0 19.999c-7.735 0-13.997-4.028-13.997-8.999s6.267-8.999 13.997-8.999 13.997 4.028 13.997 8.999-6.263 8.999-13.997 8.999z"/><path d="M15.998 9.997a6.001 6.001 0 1 0 6.001 6.001 6.001 6.001 0 0 0-6.001-6.001zm0 10.001a4.001 4.001 0 1 1 4.001-4.001 4.001 4.001 0 0 1-4.001 4.001z"/></symbol><symbol id="file-object" viewBox="0 0 32 32"><path d="M20.362 8.723V1.454h.728l6.543 7.269zm7.27 20.357c0 .803-.651 1.454-1.454 1.454H5.821a1.454 1.454 0 0 1-1.454-1.454V2.908c0-.803.651-1.454 1.454-1.454h13.086v7.269c0 .803.651 1.454 1.454 1.454h7.271zM21.816 0H5.822a2.908 2.908 0 0 0-2.908 2.908V29.08a2.908 2.908 0 0 0 2.908 2.908h20.357a2.908 2.908 0 0 0 2.907-2.907V7.997z"/></symbol><symbol id="forbidden" viewBox="0 0 32 32"><path d="M24.627 4.173C22.323 1.869 19.251.615 16 .615c-3.277 0-6.323 1.28-8.627 3.558C5.069 6.477 3.815 9.549 3.815 12.8s1.28 6.323 3.558 8.627c2.304 2.304 5.376 3.558 8.627 3.558 3.277 0 6.323-1.28 8.627-3.558 2.304-2.304 3.558-5.376 3.558-8.627.026-3.277-1.254-6.323-3.558-8.627zM16 2.765c2.278 0 4.506.794 6.272 2.227l-14.08 14.08c-3.174-3.942-2.893-9.754.717-13.363A9.953 9.953 0 0 1 16 2.765zm7.091 17.126c-3.61 3.61-9.421 3.891-13.389.717L23.808 6.502c3.2 3.968 2.893 9.779-.717 13.389z"/></symbol><symbol id="home" viewBox="0 0 32 32"><path d="M16.022 3.2a.858.858 0 0 1 .475.163l15.2 12a.826.826 0 0 1 .136 1.14l.002-.002c-.258.333-.807.387-1.138.125l-14.7-11.6-14.7 11.6c-.33.262-.864.206-1.125-.125-.259-.329-.231-.876.125-1.138l5.7-4.5V4a.8.8 0 0 1 .8-.8h3.2a.8.8 0 0 1 .8.8v3.075l4.7-3.712a.912.912 0 0 1 .525-.163zM9.196 4.8h-1.6v4.8l1.6-1.262zm16.8 9.163 1.6 1.262V28a.8.8 0 0 1-.8.8h-6.8a.8.8 0 0 1-.8-.8v-7.2h-6.4V28a.8.8 0 0 1-.8.8h-6.8a.8.8 0 0 1-.8-.8V15.225l1.6-1.262V27.2h5.2V20a.8.8 0 0 1 .8-.8h8a.8.8 0 0 1 .8.8v7.2h5.2z"/></symbol><symbol id="image-object" viewBox="0 0 32 32"><path d="M20.362 8.723V1.454h.728l6.543 7.269zm7.27 20.357c0 .803-.651 1.454-1.454 1.454H5.821a1.454 1.454 0 0 1-1.454-1.454V2.908c0-.803.651-1.454 1.454-1.454h13.086v7.269c0 .803.651 1.454 1.454 1.454h7.271zM21.816 0H5.822a2.908 2.908 0 0 0-2.908 2.908V29.08a2.908 2.908 0 0 0 2.908 2.908h20.357a2.908 2.908 0 0 0 2.907-2.907V7.997z"/><path d="M13.773 14.988a.766.766 0 1 0 .002 0z"/><path d="M21.229 12.022H10.77a.49.49 0 0 0-.49.49v10.463c0 .271.22.49.49.49h10.459a.49.49 0 0 0 .49-.49V12.512a.49.49 0 0 0-.49-.49zm-6.535 10.463h-3.433v-4.549l4.093 4.549zm6.045-2.464v2.464h-4.062l-2.232-2.477 2.778-2.91 3.515 2.781zm0-6.724v5.316l-3.258-2.578a.488.488 0 0 0-.659.046l-3.037 3.18-2.323-2.591a.514.514 0 0 0-.075-.065l-.002-.001-.124-.088v-3.514h9.478z"/></symbol><symbol id="information" viewBox="0 0 32 32"><path d="M16 32C7.177 32 0 24.823 0 16S7.177 0 16 0s16 7.177 16 16-7.177 16-16 16zm0-2.926c7.223 0 13.074-5.851 13.074-13.074S23.223 2.926 16 2.926 2.926 8.777 2.926 16 8.777 29.074 16 29.074zm-1.463-16h2.926v11.657h-2.926V13.074zM16 11.063c-1.051 0-1.874-.869-1.874-1.874S14.995 7.315 16 7.315s1.874.869 1.874 1.874-.823 1.874-1.874 1.874z"/></symbol><symbol id="institution" viewBox="0 0 32 32"><path d="M21.169 29.374h5.908c.328 0 .492-.164.492-.492V16.903c0-.328-.164-.492-.492-.492h-5.908c-.328 0-.492.164-.492.492v11.98c0 .164.328.492.492.492zm3.61-5.907h1.969v1.969h-1.969zm-1.148 1.805h-1.969v-1.969h1.969zm3.118-2.954H24.78v-1.969h1.969zm-3.118 0h-1.969v-1.969h1.969zm-1.805 4.103h1.805v1.969h-1.969v-1.969zm2.953 1.969v-1.969h1.969v1.969zm1.97-9.026H24.78v-1.969h1.969zm-3.118-1.969v1.969h-1.969v-1.969zm-13.128-.985H4.595c-.328 0-.492.164-.492.492v11.98c0 .328.164.492.492.492h5.908c.328 0 .492-.164.492-.492v-11.98c0-.328-.328-.492-.492-.492zm-3.611 5.908H4.923v-1.969h1.969zm1.149-1.969h1.969v1.969H8.041zm-2.954 3.118h1.969v1.969H5.087zm2.954 0h1.969v1.969H8.041zm1.969-4.103H8.041v-1.969h1.969zm-3.118-1.969v1.969H4.923v-1.969zm-1.805 9.026h1.969v1.969H5.087zm2.954 1.969v-1.969h1.969v1.969zm4.431-19.857H9.518c-.328 0-.492.164-.492.492v2.954c0 .328.164.492.492.492h2.954c.328 0 .492-.164.492-.492V9.025c0-.164-.164-.492-.492-.492zm-.493 2.954H10.01V9.518h1.969zm5.58-2.954h-2.954c-.328 0-.492.164-.492.492v2.954c0 .328.164.492.492.492h2.954c.328 0 .492-.164.492-.492V9.025c0-.164-.328-.492-.492-.492zm-.656 2.954h-1.969V9.518h1.969zm5.579-2.954h-2.954c-.328 0-.492.164-.492.492v2.954c0 .328.164.492.492.492h2.954c.328 0 .492-.164.492-.492V9.025c0-.164-.164-.492-.492-.492zm-.492 2.954h-1.969V9.518h1.969zm9.354 19.693h-.985V14.113c0-.328-.164-.492-.492-.492h-4.759v-6.4c0-.328-.164-.492-.492-.492h-8.041V4.596h4.431c.164 0 .328-.164.492-.328s.164-.328 0-.492l-1.149-1.477.82-1.477c.164-.164.164-.328 0-.492s-.328-.328-.492-.328h-4.923c-.328 0-.492.164-.492.492v6.072H7.221c-.328 0-.492.164-.492.492v6.4H1.97c-.328 0-.492.164-.492.492v17.067H.493c-.328 0-.492.164-.492.492s.164.492.492.492H31.18c.328 0 .492-.164.492-.492.164-.164 0-.328-.328-.328zM19.364 2.626l.656.985h-3.446V.985h3.446l-.656.985a.499.499 0 0 0 0 .656zM8.041 7.549h16.082v5.908H8.205zm-5.415 7.056h10.338v5.087c0 .328.164.492.492.492s.492-.164.492-.492v-5.087h1.477v6.236c0 .328.164.492.492.492s.492-.164.492-.492v-6.236h1.313v5.087c0 .328.164.492.492.492s.492-.164.492-.492v-5.087h10.338v16.574h-9.682v-7.056c0-.328-.164-.492-.492-.492h-6.236c-.328 0-.492.164-.492.492v7.056H2.46zm13.948 10.01h2.133v6.564h-2.133zm-1.148 6.565h-2.133v-6.564h2.133z"/></symbol><symbol id="licence" viewBox="0 0 32 32"><path d="M11.487 21.366h.009a5.339 5.339 0 0 0 3.643-1.43l-.003.003a.764.764 0 0 0-1.04-1.12 3.843 3.843 0 1 1 .002-5.643l-.002-.002a.764.764 0 0 0 1.033-1.12 5.364 5.364 0 1 0-3.644 9.306zM21.773 21.366h.009a5.339 5.339 0 0 0 3.643-1.43l-.003.003a.764.764 0 1 0-1.04-1.12 3.843 3.843 0 1 1 .002-5.643l-.003-.002a.764.764 0 0 0 1.033-1.12 5.364 5.364 0 1 0-3.644 9.306z"/><path d="M15.998 1.522c7.953.108 14.371 6.527 14.476 14.471v.01c-.11 7.949-6.526 14.364-14.466 14.471h-.01C8.05 30.364 1.637 23.95 1.527 16.013v-.01c.105-7.952 6.521-14.37 14.461-14.48h.01zm0 30.473c8.674 0 15.998-7.328 15.998-15.998S24.672-.001 15.998-.001 0 7.327 0 16.001s7.328 15.998 15.998 15.998z"/></symbol><symbol id="logo" viewBox="0 0 32 32"><path d="M5.896 15.246h.38v-1.321h-.38v1.321zm23.031-.41v-.759h-.455c-.01.253.02.547-.015.774h-.41v.364h.425c.029.44-.038 1.254 0 1.716.042.505.401.471.956.456v-.349c-.172-.005-.357.003-.471-.061-.069-.528-.012-1.183-.031-1.761h.501v-.364c-.162-.01-.364.02-.501-.015zm-18.613-.045c-.32.027-.523.204-.683.364v-.304h-.44v2.551h.456c.092-.583-.168-1.487.121-1.928.142-.216.537-.382.85-.213.278.15.197.78.197 1.215v.926h.455c-.075-1.191.369-2.722-.957-2.611zm14.484.243c-.23-.262-.846-.312-1.169-.121-.116.068-.176.192-.288.243v-.304h-.425v2.551h.456c.068-.724-.188-1.733.258-2.065.319-.237.855-.157.911.243.069.493-.052 1.29 0 1.822h.456c-.099-.82.212-1.903-.198-2.368zm-17.414-.183c-.366.823-.691 1.687-1.032 2.535h.486c.184-.478.384-.971.562-1.442.06-.161.105-.337.213-.471.233.642.475 1.276.714 1.913.167-.01.374.02.516-.015-.338-.831-.658-1.68-.987-2.52h-.471zm12.403 0c-.187.643-.334 1.326-.546 1.943-.165-.645-.332-1.287-.486-1.943h-.501a53.042 53.042 0 0 1-.471 1.943c-.204-.625-.359-1.301-.546-1.943-.162.01-.364-.02-.501.015.275.838.542 1.685.805 2.535h.486c.154-.64.296-1.293.486-1.898.161.629.325 1.254.471 1.898h.471c.272-.846.539-1.698.805-2.551h-.471zm1.352 0c-.363.826-.688 1.69-1.032 2.535h.486c.271-.625.475-1.317.774-1.913.235.64.479 1.272.714 1.913h.516c-.327-.847-.657-1.691-.987-2.535h-.471zm-7.181 0h-.44v.273c-.19-.212-.389-.355-.744-.349-1.132.018-1.505 1.688-.759 2.383.246.229.75.396 1.184.182.125-.062.231-.198.319-.273-.004.291-.016.509-.137.698-.217.34-.913.382-1.154.03a.28.28 0 0 1-.03-.167h-.455c.009.536.422.756.896.789 1.86.133 1.198-1.962 1.321-3.568zm-1.427 2.126c-.571-.2-.58-1.636.152-1.761.339-.058.573.066.698.288.365.645-.021 1.763-.85 1.473zm4.129-.698c-.017-.846-.33-1.524-1.169-1.503-.75.019-1.169.622-1.169 1.321 0 .853.544 1.426 1.321 1.366.558-.043.881-.374.971-.911h-.44c-.101.774-1.505.582-1.366-.273h1.852zm-1.7-.835c.341-.46 1.21-.211 1.215.41h-1.366c.039-.167.07-.299.152-.41zm12.358-.335c-.389-.471-1.288-.359-1.625.03-.22.254-.319.638-.319.987.001.764.48 1.413 1.306 1.336.284-.026.437-.153.638-.288v.228h.456V13.88h-.456v1.23zm-.106 1.595c-.167.309-.701.499-1.063.197-.462-.386-.388-1.588.319-1.685.783-.108 1.085.858.744 1.488zm3.476-1.928c-.606.018-.936.366-1.047.911h.456c.108-.798 1.469-.556 1.366.288h-1.852c-.033.901.425 1.533 1.215 1.488.627-.035 1.061-.566 1.108-1.184.061-.81-.356-1.529-1.245-1.503zm-.592 1.654c-.002-.022-.002-.043.015-.046h1.336c-.024.875-1.291.841-1.351.046zM3.224 17.022c.082-.446.224-1.026.334-1.503.05-.217.209-.621-.015-.668-.169-.035-.57.294-.698.38-.078.052-.173.101-.106.182.144-.013.278-.167.44-.213.121.135.011.322-.03.486-.087.344-.16.686-.243 1.032-.045.187-.144.378-.106.546.083.372.728-.145.835-.228.07-.054.156-.118.076-.197-.134.015-.305.307-.486.182zm1.564-2.049c-.235.02-.421.43-.197.577.399.261.659-.616.197-.577zm-2.384-1.382c-.041.011-.031-.03-.061-.03-.101.024-.269.124-.44.167-.138.035-.364-.006-.395.152.1.047.317-.023.395.046.016.336-.086.683-.137 1.002-.554-.184-.984.088-1.275.395-.348.366-.525 1.172-.486 1.685.012.151.039.303.167.395.358-.012.579-.227.774-.41.207-.194.367-.434.546-.653-.026.177-.055.32-.091.531-.024.142-.121.443 0 .516.181.109.629-.29.744-.38.074-.057.175-.119.091-.197-.141.031-.238.237-.456.243-.095-.127-.025-.294 0-.425.198-1.022.425-2.04.622-3.037zM.992 16.779c-.095.085-.394.337-.546.258-.176-.091.01-.887.046-1.032.071-.289.2-.72.38-.835.232-.15.605-.043.85.046-.081.648-.338 1.215-.729 1.564zm3.462-.015c-.209.037-.385.438-.167.577.401.255.669-.666.167-.577z"/></symbol><symbol id="magnifier" viewBox="0 0 32 32"><path d="m31.684 30.167-8.859-8.859a1.075 1.075 0 0 0-1.517 1.519l-.001-.001 8.859 8.859a1.073 1.073 0 0 0 1.518-1.518z"/><path d="M13 23.99C6.93 23.99 2.01 19.069 2.01 13S6.93 2.01 13 2.01 23.99 6.93 23.99 13c-.003 6.069-4.922 10.988-10.99 10.99zM13 0h-.005c-7.179 0-13 5.82-13 13s5.82 13 13 13c7.179 0 13-5.82 13-13C25.995 5.822 20.177.003 13 0z"/></symbol><symbol id="next" viewBox="0 0 32 32"><path d="M25.157 15.996a2.313 2.313 0 0 1-.677 1.636L10.79 31.324a2.312 2.312 0 1 1-3.268-3.272l12.056-12.056L7.522 3.947A2.312 2.312 0 0 1 10.791.676l13.69 13.685c.418.418.677.996.677 1.635v.001z"/></symbol><symbol id="options-menu" viewBox="0 0 32 32"><path d="M15.948 7.123c1.961 0 3.561-1.6 3.561-3.561S17.909.001 15.948.001c-1.961 0-3.561 1.6-3.561 3.561s1.6 3.561 3.561 3.561zM15.948 19.665c1.961 0 3.561-1.6 3.561-3.561s-1.6-3.561-3.561-3.561c-1.961 0-3.561 1.6-3.561 3.561s1.6 3.561 3.561 3.561zM15.948 32.155c1.961 0 3.561-1.6 3.561-3.561s-1.6-3.561-3.561-3.561c-1.961 0-3.561 1.6-3.561 3.561s1.6 3.561 3.561 3.561z"/></symbol><symbol id="people-filled" viewBox="0 0 32 32"><path d="M19 23.5s-3-.7-3-3.7c0-2.7 1.2-3.6 1.7-4.2 0 0 1-.8.3-3.5 1.1-1.5 1.3-4.1.1-6.8-.7-1.7-1.4-2.7-2.4-3.2-.6-.3-1.4-.6-2.2-.6h-.1c-1.3 0-2.5.3-3.5.9-1.5.8-2.6 1.4-3.7 4-.8 2.1.2 4.5.7 5.6-.6 2.7.2 3.6.2 3.6.5.6 1.7 1.6 1.7 4.2 0 3-3 3.7-3 3.7-1.9.7-5.8 2-5.8 6.4 0 .4.3.7.7.7h23.4c.4 0 .7-.3.7-.7 0-4.5-3.9-5.8-5.8-6.4zm7.8-.7s-2.7-.6-2.7-3.3c0-2.4 1.3-3.2 1.7-3.8 0 0 .9-.7.3-3.2 1-1.3 1.2-3.6.1-6.1-.7-1.5-1.5-2.4-2.4-2.9-.6-.3-1.3-.5-2-.5h-.1c-1 0-1.9.2-2.8.6.2.4.4.7.5 1.1 0 .1 0 .1.1.2.6-.3 1.4-.4 2.2-.5h.1c.5 0 .9.1 1.4.3s1.1.7 1.7 2.2c.9 2 .6 3.8 0 4.7-.2.2-.3.5-.3.9v.4c.3 1.2.1 1.7.1 1.8l-.1.1-.2.2c-1.1 1.1-1.8 2.6-1.8 4.3v.2c0 3 2.4 4.4 3.7 4.7 1.9.7 3.8 1.5 4.2 3.5h-4.6c.1.4.2.9.3 1.4h5.2c.3 0 .6-.3.6-.6.1-4-3.5-5.2-5.2-5.7z"/></symbol><symbol id="people" viewBox="0 0 32 32"><path d="M1.504 29.092c.361-2.483 2.56-3.499 4.705-4.258 2.305-.599 3.98-2.659 3.987-5.111v-.001a6.747 6.747 0 0 0-1.762-4.828l.005.005c-.077-.09-.149-.172-.203-.248l-.054-.068c-.05-.099-.339-.754.041-2.325a1.446 1.446 0 0 0-.099-.979l.004.009c-.361-.795-1.318-2.912-.677-4.479.867-2.122 1.635-2.547 3.034-3.161.077-.035.142-.071.204-.112l-.006.003a5.858 5.858 0 0 1 2.676-.65h.001l.103-.002c.561 0 1.09.138 1.555.381l-.019-.009c.524.289 1.02.826 1.734 2.506 1.011 2.371.759 4.398.059 5.351a1.447 1.447 0 0 0-.237 1.211l-.002-.01c.352 1.463.095 2.054.041 2.154a1.598 1.598 0 0 0-.119.14l-.003.004c-.054.077-.126.158-.203.248a6.745 6.745 0 0 0-1.756 4.864l-.001-.014a5.29 5.29 0 0 0 3.964 5.112l.037.008c2.113.745 4.344 1.756 4.705 4.253zm17.429-5.648s-2.953-.691-2.953-3.716c0-2.66 1.215-3.612 1.68-4.24 0 0 .962-.826.321-3.495 1.075-1.463 1.278-4.064.108-6.773-.731-1.729-1.382-2.673-2.366-3.219a4.753 4.753 0 0 0-2.239-.552l-.114.001h.006-.007a7.197 7.197 0 0 0-3.494.899l.037-.019c-1.648.722-2.759 1.395-3.797 3.942-.844 2.068.172 4.461.7 5.631-.646 2.669.248 3.585.248 3.585.452.646 1.684 1.58 1.684 4.24 0 3.025-2.953 3.716-2.953 3.716-1.878.659-5.793 2.014-5.793 6.358v.014c0 .394.319.713.713.713h23.299a.713.713 0 0 0 .713-.713v-.014.001c0-4.362-3.915-5.716-5.793-6.376zm7.784-.764s-2.709-.623-2.709-3.346c0-2.393 1.287-3.233 1.716-3.815 0 0 .881-.745.289-3.161.98-1.314 1.206-3.639.145-6.105-.668-1.544-1.486-2.393-2.384-2.885a4.371 4.371 0 0 0-2.041-.498l-.104.001h.005a7.059 7.059 0 0 0-2.804.6l.045-.018c.185.361.361.74.537 1.147.023.059.041.117.063.176a5.539 5.539 0 0 1 2.151-.452h.003l.102-.002c.488 0 .948.117 1.355.326l-.017-.008c.452.248 1.124.745 1.747 2.185.903 2.05.65 3.82.023 4.66a1.442 1.442 0 0 0-.241 1.224l-.002-.01c.294 1.201.104 1.711.059 1.806-.037.04-.072.082-.105.127l-.003.004c-.027.041-.131.149-.203.226a5.958 5.958 0 0 0-1.806 4.461v-.009c0 3.003 2.393 4.398 3.734 4.741 1.915.668 3.784 1.504 4.168 3.545h-4.565c.128.422.224.916.269 1.426l.002.028h5.212a.64.64 0 0 0 .64-.608v-.002c0-3.928-3.567-5.143-5.278-5.739z"/></symbol><symbol id="play" viewBox="0 0 32 32"><path d="M16 0C7.163 0 0 7.163 0 16s7.163 16 16 16 16-7.163 16-16C31.991 7.167 24.833.009 16.001 0H16zm0 2.182c7.632 0 13.818 6.187 13.818 13.818S23.631 29.818 16 29.818C8.368 29.818 2.182 23.631 2.182 16v-.017c0-7.622 6.179-13.802 13.802-13.802h.017H16zm-3.33 6.909a1.091 1.091 0 0 0-1.034 1.09V21.818a1.09 1.09 0 0 0 1.664.918l-.005.003 9.455-5.807a1.093 1.093 0 0 0 .005-1.861l-.005-.003-9.455-5.818a1.078 1.078 0 0 0-.628-.159h.003zm1.148 3.034L20.102 16l-6.284 3.864z"/></symbol><symbol id="plus" viewBox="0 0 32 32"><path d="M18.129 0v32h-4.005V0h4.005z"/><path d="M32 17.804H0v-4.005h32v4.005z"/></symbol><symbol id="prev" viewBox="0 0 32 32"><path d="M6.843 16.004a2.313 2.313 0 0 1 .677-1.636L21.21.676a2.312 2.312 0 0 1 3.269 3.271L12.423 16.003l12.056 12.049a2.312 2.312 0 0 1-3.269 3.271L7.52 17.638a2.305 2.305 0 0 1-.677-1.635v-.001z"/></symbol><symbol id="print" viewBox="0 0 32 32"><path d="M30.933 8.533h-3.2V1.066c0-.589-.478-1.067-1.067-1.067H5.333c-.589 0-1.067.478-1.067 1.067v7.467h-3.2c-.589 0-1.067.478-1.067 1.067v17.067c0 .589.478 1.067 1.067 1.067h3.2v3.2c0 .589.478 1.067 1.067 1.067h21.333c.589 0 1.067-.478 1.067-1.067v-3.2h3.2c.589 0 1.067-.478 1.067-1.067V9.6c0-.589-.478-1.067-1.067-1.067zM6.4 2.133h19.2v6.4H6.4zm19.2 27.734H6.4v-9.6h19.2v9.6zm4.267-4.267h-2.133v-6.4c0-.589-.478-1.067-1.067-1.067H5.334c-.589 0-1.067.478-1.067 1.067v6.4H2.134V10.667h27.733z"/><path d="M25.6 13.867a1.067 1.067 0 1 0 1.067-1.067c-.589 0-1.067.478-1.067 1.067zM22.703 22.578H9.297a.904.904 0 0 0-.002 1.806H22.703a.904.904 0 0 0 .002-1.806h-.002zM22.703 26.215H9.297a.904.904 0 0 0-.002 1.806H22.703a.904.904 0 0 0 .002-1.806h-.002z"/></symbol><symbol id="refresh" viewBox="0 0 32 32"><path d="m28.396 15.961 2.961-6.2-3.361 1.191c-2.041-4.979-6.907-8.285-12.317-8.285-5.631 0-10.677 3.573-12.559 8.888l2.513.891a10.68 10.68 0 0 1 10.045-7.112c4.283 0 8.117 2.601 9.781 6.515l-3.265 1.155zM0 22.24l3.36-1.191c2.043 4.979 6.907 8.284 12.319 8.284 5.631 0 10.677-3.573 12.559-8.888l-2.513-.891c-1.507 4.253-5.543 7.112-10.045 7.112-4.283 0-8.117-2.601-9.779-6.515l3.263-1.155-6.201-2.959z"/></symbol><symbol id="remove" viewBox="0 0 32 32"><path d="M4.515 2.5 29.5 27.485 27.485 29.5 2.5 4.515Z" style="stroke-width:.88099271"/><path d="M29.5 4.515 4.515 29.5 2.5 27.485 27.485 2.5Z" style="stroke-width:.88099271"/></symbol><symbol id="save-file" viewBox="0 0 32 32"><path d="m21.335 26.071.002.07a1.12 1.12 0 0 1-1.193 1.118h.003-8.295a1.185 1.185 0 1 1 0-2.37h8.295l.07-.002c.618 0 1.12.501 1.12 1.12l-.002.069v-.003zm0-4.736.002.065a1.12 1.12 0 0 1-1.193 1.118h.003-8.295a1.185 1.185 0 1 1 0-2.37h8.295l.07-.002a1.12 1.12 0 0 1 1.118 1.193v-.003zm4.736 8.294V18.341a2.935 2.935 0 0 0-2.935-2.935H8.863a2.935 2.935 0 0 0-2.935 2.935v.029-.001V29.63H2.37V2.371h7.112v5.567a2.755 2.755 0 0 0 2.707 2.709H19.908a2.755 2.755 0 0 0 2.709-2.707V2.371h1.54l5.59 5.567-.117 21.674zm-17.776 0V18.368l-.001-.033a.56.56 0 0 1 .594-.559h-.002 14.106l.033-.001a.56.56 0 0 1 .56.56l-.001.034v-.002 11.261zM20.147 2.371v5.567a.38.38 0 0 1-.356.357H12.087a.38.38 0 0 1-.357-.356V2.371zm11.14 3.91L25.738.709A2.334 2.334 0 0 0 24.061 0H2.377A2.375 2.375 0 0 0 .002 2.37v27.259A2.376 2.376 0 0 0 2.368 32h27.264a2.38 2.38 0 0 0 2.371-2.37V7.956a1.984 1.984 0 0 0-.71-1.655l-.003-.003z"/></symbol><symbol id="share" viewBox="0 0 32 32"><path d="M25.34 26.868a1.634 1.634 0 0 1-1.632 1.632H4.123a1.634 1.634 0 0 1-1.632-1.632V9.507a1.634 1.634 0 0 1 1.632-1.632h15.029V5.427H4.123a4.086 4.086 0 0 0-4.08 4.08v17.361a4.085 4.085 0 0 0 4.08 4.08h19.585a4.085 4.085 0 0 0 4.08-4.08V14.159H25.34z"/><path d="M31.955 2.339a1.277 1.277 0 0 0-.022-.217l.001.008c-.007-.037-.021-.072-.032-.108a1.112 1.112 0 0 0-.038-.122l.003.008a1.143 1.143 0 0 0-.064-.122l.003.005c-.016-.029-.029-.06-.047-.088a1.211 1.211 0 0 0-.324-.326l-.004-.003c-.029-.019-.06-.032-.09-.049a1.054 1.054 0 0 0-.107-.057l-.007-.003a.936.936 0 0 0-.112-.035l-.008-.002c-.034-.01-.066-.023-.102-.03a1.126 1.126 0 0 0-.232-.023h-7.695a1.185 1.185 0 1 0 0 2.37h4.833L12.822 18.634a1.185 1.185 0 0 0 1.676 1.676L29.586 5.222v4.972a1.185 1.185 0 1 0 2.37 0V2.36l-.002-.022z"/></symbol><symbol id="sort" viewBox="0 0 32 32"><path d="m20.227 28.015 5.473-5.53c.127-.128.241-.089.241.101V24.9a.997.997 0 0 1-.249.596l-6.507 6.575a.349.349 0 0 1-.499 0l-6.507-6.575a.973.973 0 0 1-.249-.596v-2.314c0-.183.108-.236.241-.101l5.473 5.53c.127.128.241.089.241-.1V15.239c0-.194.155-.344.347-.344h1.408c.196 0 .347.154.347.344v12.676c0 .194.108.235.241.1zm-8.6-23.854-5.473 5.53c-.127.129-.241.089-.241-.101V7.276c0-.183.112-.457.249-.596L12.669.105a.349.349 0 0 1 .499 0l6.507 6.575a.973.973 0 0 1 .249.596V9.59c0 .183-.108.236-.241.101l-5.473-5.53c-.127-.128-.241-.089-.241.1v12.676a.343.343 0 0 1-.347.344h-1.408a.343.343 0 0 1-.347-.344V4.261c0-.194-.108-.235-.241-.1z"/></symbol><symbol id="subscribe" viewBox="0 0 32 32"><path d="m30.979 11.409-9.35-1.781-4.55-8.475a1.242 1.242 0 0 0-.49-.5L16.583.65a1.199 1.199 0 0 0-.948-.101l.009-.002a1.24 1.24 0 0 0-.739.599l-.003.007-4.55 8.476-9.332 1.782a1.23 1.23 0 0 0-.604.312l.001-.001a1.266 1.266 0 0 0-.065 1.772l-.001-.001 6.518 7.028-1.215 9.573c-.003.025-.006.05-.007.073a1.25 1.25 0 0 0 1.15 1.334h.007a1.213 1.213 0 0 0 .606-.124l-.007.003 8.598-4.148 8.576 4.148a1.232 1.232 0 0 0 .702.115l-.006.001a1.254 1.254 0 0 0 1.075-1.406l.001.006-1.215-9.574 6.519-7.03a1.26 1.26 0 0 0-.663-2.079l-.008-.002zm-8.382 8.845 1 7.858-7.07-3.382a1.219 1.219 0 0 0-1.062.003l.007-.003-7.069 3.382 1-7.856a1.251 1.251 0 0 0-.333-1.038l.001.001-5.373-5.774 7.685-1.466c.375-.072.685-.306.858-.625l.003-.007 3.738-6.969 3.757 6.97c.176.325.486.558.853.629l.008.001 7.704 1.467-5.371 5.773a1.252 1.252 0 0 0-.333 1.044l-.001-.007z"/></symbol><symbol id="success" viewBox="0 0 32 32"><path d="M16 0C7.176 0 0 7.176 0 16s7.176 16 16 16 16-7.176 16-16S24.824 0 16 0zm0 30.061C8.242 30.061 1.939 23.758 1.939 16S8.242 1.939 16 1.939 30.061 8.242 30.061 16 23.758 30.061 16 30.061z"/><path d="m22.448 11.782-8.97 8.921a.146.146 0 0 1-.194 0L9.551 16.97c-.388-.388-.97-.388-1.358 0s-.388.97 0 1.358l3.733 3.733c.388.388.921.63 1.455.63.582 0 1.067-.194 1.455-.63l8.97-8.97c.388-.388.388-.97 0-1.358s-.97-.339-1.358.049z"/></symbol><symbol id="text" viewBox="0 0 32 32"><path d="M30.769 2.462H1.231a1.23 1.23 0 1 1 0-2.462h29.538a1.23 1.23 0 1 1 0 2.462zM11.077 32H1.231a1.23 1.23 0 1 1 0-2.462h9.846a1.23 1.23 0 1 1 0 2.462zM30.769 22.154H1.231a1.23 1.23 0 1 1 0-2.462h29.538a1.23 1.23 0 1 1 0 2.462zM20.923 12.308H1.231a1.23 1.23 0 1 1 0-2.462h19.692a1.23 1.23 0 1 1 0 2.462z"/></symbol><symbol id="unsubscribe" viewBox="0 0 32 32"><path d="m30.979 11.409-9.35-1.781-4.55-8.475a1.242 1.242 0 0 0-.49-.5L16.583.65a1.199 1.199 0 0 0-.948-.101l.009-.002a1.24 1.24 0 0 0-.739.599l-.003.007-4.55 8.476-9.332 1.782a1.23 1.23 0 0 0-.604.312l.001-.001a1.266 1.266 0 0 0-.065 1.772l-.001-.001 6.518 7.028-1.215 9.573c-.003.025-.006.05-.007.073a1.25 1.25 0 0 0 1.15 1.334h.007a1.213 1.213 0 0 0 .606-.124l-.007.003 8.598-4.148 8.576 4.148a1.232 1.232 0 0 0 .702.115l-.006.001a1.254 1.254 0 0 0 1.075-1.406l.001.006-1.215-9.574 6.519-7.03a1.26 1.26 0 0 0-.663-2.079l-.008-.002zm-8.382 8.845 1 7.858-7.07-3.382a1.219 1.219 0 0 0-1.062.003l.007-.003-7.069 3.382 1-7.856a1.251 1.251 0 0 0-.333-1.038l.001.001-5.373-5.774 7.685-1.466c.375-.072.685-.306.858-.625l.003-.007 3.738-6.969 3.757 6.97c.176.325.486.558.853.629l.008.001 7.704 1.467-5.371 5.773a1.252 1.252 0 0 0-.333 1.044l-.001-.007z"/><path d="M18.96 18.379h-5.92a1.355 1.355 0 0 1 0-2.71h5.92a1.355 1.355 0 1 1 0 2.71z"/></symbol><symbol id="video-object" viewBox="0 0 32 32"><path d="M20.362 8.723V1.454h.728l6.543 7.269zm7.27 20.357c0 .803-.651 1.454-1.454 1.454H5.821a1.454 1.454 0 0 1-1.454-1.454V2.908c0-.803.651-1.454 1.454-1.454h13.086v7.269c0 .803.651 1.454 1.454 1.454h7.271zM21.816 0H5.822a2.908 2.908 0 0 0-2.908 2.908V29.08a2.908 2.908 0 0 0 2.908 2.908h20.357a2.908 2.908 0 0 0 2.907-2.907V7.997z"/><path d="M23.241 15.206a.652.652 0 0 0-.652-.652h-.001a.644.644 0 0 0-.294.071l.004-.002-2.675 1.338v-1.66a.653.653 0 0 0-.652-.652H9.923a.653.653 0 0 0-.652.652v7.238c0 .36.292.651.652.652h9.048c.36 0 .651-.292.652-.652v-1.66l2.675 1.338a.652.652 0 0 0 .944-.583zm-4.922 0v5.682h-7.744v-5.935h7.744zm3.619 1.465v2.908l-2.316-1.158v-1.002l2.316-1.158z"/></symbol><symbol id="waste-bin" viewBox="0 0 32 32"><path d="M11.74 27.634a.723.723 0 0 0 .687-.722l-.001-.034v.002l-1.03-17.434a.713.713 0 0 0-1.422.055V9.5l1.048 17.434c.01.389.328.7.718.7zm12.06 1.454a1.537 1.537 0 0 1-1.417 1.454H9.6a1.536 1.536 0 0 1-1.422-1.45v-.004L6.774 5.816h18.472zM12.444 1.454h7.112v2.908h-7.112zM28.09 4.362h-7.112V1.44A1.44 1.44 0 0 0 19.557 0h-7.113a1.44 1.44 0 0 0-1.422 1.44v.014-.001 2.908H3.91a.727.727 0 0 0 0 1.454h1.422l1.44 23.276c.23 1.594 1.273 2.908 2.845 2.908H22.4c1.571 0 2.578-1.355 2.845-2.908l1.422-23.272h1.422a.727.727 0 0 0 0-1.454zM15.998 27.634a.718.718 0 0 0 .709-.718V9.454a.713.713 0 1 0-1.422.002v-.003V26.914c0 .393.316.713.708.718zm4.24 0h.018c.39 0 .708-.311.718-.699v-.001l1.034-17.452.001-.027a.712.712 0 0 0-1.423-.029v.001l-1.029 17.456-.001.032c0 .387.304.702.685.721h.002z"/></symbol></svg>