<svg style="width:100px;height:100px;" viewBox="0 0 428.52 92.29" xmlns="http://www.w3.org/2000/svg" xmlns:xlink="http://www.w3.org/1999/xlink">
  <radialGradient id="a" cx="82.63" cy="73.6" gradientUnits="userSpaceOnUse" r="16.24">
    <stop offset="0" stop-color="#797979"/>
    <stop offset="1" stop-color="#4c4c4c"/>
  </radialGradient>
  <circle cx="82.05" cy="82.17" fill="#f4b960" r="46.15" transform="matrix(.32193523 -.94676169 .94676169 .32193523 -58.06 97.37)"/>
  <circle cx="77.4" cy="77.52" fill="#e66f32" r="41.5" transform="matrix(.42830438 -.90363453 .90363453 .42830438 -61.7 78.25)"/><g transform="translate(-35.9 -36.02)"><path d="m118.9 72a36 36 0 1 1 -36-36 36 36 0 0 1 36 36z" fill="#e43c41"/><path d="m118.9 74.86a33.09 33.09 0 1 1 -33.09-33.08 33.08 33.08 0 0 1 33.09 33.08z" fill="#bdd041"/><path d="m114 77.3a30.66 30.66 0 1 1 -30.62-30.66 30.65 30.65 0 0 1 30.62 30.66z" fill="#6db54c"/>
  <path d="m104.33 72.45a25.81 25.81 0 1 1 -25.8-25.81 25.8 25.8 0 0 1 25.8 25.81z" fill="#aedae6"/><path d="m104.33 68.24a21.6 21.6 0 1 1 -21.6-21.6 21.59 21.59 0 0 1 21.6 21.6z" fill="#56b8de"/><path d="m104.33 70.87a19 19 0 1 1 -19-19 19 19 0 0 1 19 19z" fill="#00b1d5"/><path d="m98.87 73.6a16.24 16.24 0 1 1 -16.24-16.24 16.24 16.24 0 0 1 16.24 16.24z" fill="url(#a)"/><path d="m98.87 73.6a16.24 16.24 0 1 1 -16.24-16.24 16.24 16.24 0 0 1 16.24 16.24z" fill="#221f1f"/>
  <path d="m92 69c-1.13 2.52-3.36 4-5 3.26s-2-3.36-.88-5.89 3.37-4 5-3.27 2.06 3.38.88 5.9z" fill="#fff"/><path d="m143 64.49a.52.52 0 0 1 .57-.53h14.53c8.27 0 12.17 3.82 12.17 9.61a8 8 0 0 1 -4.53 7.65v.11a8.49 8.49 0 0 1 5.26 8.12c0 7.17-4.88 10.63-13.43 10.63h-14a.53.53 0 0 1 -.57-.54zm15 14.51c3.44 0 5.57-1.91 5.57-4.73s-2.13-4.78-5.57-4.78h-7.81c-.23 0-.35.11-.35.32v8.87c0 .21.12.32.35.32zm-7.81 15.56h8.15c3.79 0 5.92-2 5.92-5s-2.13-5-5.92-5h-8.15c-.23 0-.35.11-.35.32v9.4c-.05.17.07.27.3.27z" fill="#372e27"/><path d="m175.75 100.08a.53.53 0 0 1 -.58-.54v-24.54a.52.52 0 0 1 .58-.53h5.25a.52.52 0 0 1 .57.53v2.17h.06c1.32-2 3.68-3.29 7.18-3.29a8.74 8.74 0 0 1 5.8 2.13c.29.26.34.47.11.74l-3 3.56a.54.54 0 0 1 -.8.1 8 8 0 0 0 -4.08-1.22c-3.62 0-5.23 2.39-5.23 6.48v13.87a.53.53 0 0 1 -.57.54z" fill="#372e27"/><path d="m195.81 93.6a17.69 17.69 0 0 1 -.91-6.32 17.71 17.71 0 0 1 .91-6.33c1.55-4.46 5.8-7.06 11.43-7.06s9.82 2.6 11.37 7.06a17.69 17.69 0 0 1 .92 6.33 17.67 17.67 0 0 1 -.92 6.32c-1.55 4.46-5.8 7.06-11.37 7.06s-9.88-2.6-11.43-7.06zm16.6-1.6a13.42 13.42 0 0 0 .57-4.72 13.62 13.62 0 0 0 -.57-4.73 5.09 5.09 0 0 0 -5.17-3.35 5.17 5.17 0 0 0 -5.24 3.35 13.59 13.59 0 0 0 -.58 4.73 13.39 13.39 0 0 0 .58 4.72 5.17 5.17 0 0 0 5.22 3.35 5.09 5.09 0 0 0 5.19-3.35z" fill="#372e27"/><path d="m247.38 100.08a.71.71 0 0 1 -.68-.54l-5.34-16.35h-.12l-5.4 16.35a.71.71 0 0 1 -.69.54h-4.71a.71.71 0 0 1 -.68-.54l-8.76-24.54c-.12-.32.05-.53.4-.53h5.51a.68.68 0 0 1 .75.53l5.34 16.9h.11l5.32-16.9a.77.77 0 0 1 .74-.53h4.14a.77.77 0 0 1 .74.53l5.63 16.89h.12l5-16.89a.67.67 0 0 1 .75-.53h5.51c.34 0 .52.21.4.53l-8.73 24.53a.71.71 0 0 1 -.69.54z" fill="#372e27"/><path d="m262.64 96.62a.48.48 0 0 1 0-.74l3.28-3.19a.59.59 0 0 1 .8 0 13.42 13.42 0 0 0 8.1 2.92c3.39 0 5.11-1.27 5.11-3 0-1.54-1-2.5-4.6-2.82l-3-.26c-5.63-.54-8.5-3.19-8.5-7.55 0-4.94 3.85-8.07 10.74-8.07a17.74 17.74 0 0 1 10.43 3.09.51.51 0 0 1 .12.75l-2.82 3.13a.58.58 0 0 1 -.8.11 14.07 14.07 0 0 0 -7.24-2.13c-2.75 0-4.19 1.12-4.19 2.66s1 2.39 4.54 2.71l3 .26c5.8.53 8.56 3.3 8.56 7.49 0 5.1-4 8.66-11.6 8.66a18 18 0 0 1 -11.93-4.02z" fill="#372e27"/><path d="m290.53 93.54a18.55 18.55 0 0 1 -1-6.26 18.88 18.88 0 0 1 .92-6.33c1.55-4.46 5.8-7.06 11.31-7.06 5.68 0 9.82 2.71 11.37 7.06.63 1.81.92 3.56.92 7.71 0 .31-.23.53-.63.53h-17.03c-.23 0-.34.1-.34.32a5.22 5.22 0 0 0 .4 2c.92 2.5 3.1 3.88 6.2 3.88a8.69 8.69 0 0 0 6.49-2.44.61.61 0 0 1 .86-.11l3.39 2.76a.45.45 0 0 1 .06.74c-2.36 2.55-6.26 4.36-11.37 4.36-5.86-.04-10-2.7-11.55-7.16zm16.71-11.31c-.74-2.07-2.81-3.29-5.39-3.29s-4.71 1.22-5.46 3.29a6 6 0 0 0 -.34 2.18c0 .21.11.32.34.32h10.85c.23 0 .35-.11.35-.32a6 6 0 0 0 -.35-2.18z" fill="#372e27"/>
  <path d="m318.84 100.08a.53.53 0 0 1 -.57-.54v-24.54a.52.52 0 0 1 .57-.53h5.28a.52.52 0 0 1 .58.53v2.17h.06c1.32-2 3.67-3.29 7.17-3.29a8.7 8.7 0 0 1 5.8 2.13c.29.26.35.47.12.74l-3.05 3.56a.54.54 0 0 1 -.8.1 7.92 7.92 0 0 0 -4.08-1.22c-3.61 0-5.22 2.39-5.22 6.48v13.87a.53.53 0 0 1 -.58.54z" fill="#372e27"/><path d="m338.84 95.88a.56.56 0 0 1 -.12-.8l3.56-3.82a.54.54 0 0 1 .81-.05 18.31 18.31 0 0 0 10.62 3.79c4.65 0 7.35-2.18 7.35-5.21 0-2.6-1.72-4.3-7.12-5l-2.07-.26c-7.52-1-11.77-4.31-11.77-10.31 0-6.53 5.17-10.89 13.21-10.89a22.65 22.65 0 0 1 12.63 3.67.45.45 0 0 1 .12.74l-2.76 3.93a.59.59 0 0 1 -.8.16 17.45 17.45 0 0 0 -9.36-2.83c-4 0-6.15 2-6.15 4.84 0 2.49 1.9 4.19 7.18 4.88l2.07.27c7.52 1 11.65 4.25 11.65 10.46 0 6.43-5 11.21-14.7 11.21-5.74 0-11.31-2.13-14.35-4.78z" fill="#372e27"/><path d="m379.79 100.53c-5.57 0-7.69-2.5-7.69-7.49v-13.49c0-.21-.12-.32-.35-.32h-1.83a.52.52 0 0 1 -.58-.53v-3.56a.52.52 0 0 1 .58-.53h1.83c.23 0 .35-.11.35-.32v-7a.52.52 0 0 1 .57-.53h5.33a.52.52 0 0 1 .57.53v7c0 .21.11.32.34.32h3.68a.52.52 0 0 1 .57.53v3.56a.52.52 0 0 1 -.57.53h-3.68c-.23 0-.34.11-.34.32v13.28c0 1.8.8 2.39 2.58 2.39h1.44a.52.52 0 0 1 .57.53v4.25a.53.53 0 0 1 -.57.53z" fill="#372e27"/><path d="m404.15 100.08a.53.53 0 0 1 -.58-.54v-1.85h-.05c-1.32 1.75-3.91 3-7.81 3-5.06 0-9.31-2.44-9.31-7.81 0-5.57 4.25-8.12 11.09-8.12h5.62c.23 0 .35-.11.35-.32v-1.25c0-2.93-1.49-4.25-6.15-4.25a10.2 10.2 0 0 0 -6.31 1.75.55.55 0 0 1 -.81-.11l-2.12-3.5a.47.47 0 0 1 .11-.69c2.24-1.49 5.29-2.5 9.82-2.5 8.44 0 11.55 2.66 11.55 8.92v16.73a.53.53 0 0 1 -.58.54zm-.69-8.61v-2c0-.22-.12-.32-.35-.32h-4.59c-4.13 0-6 1.06-6 3.45 0 2.12 1.66 3.19 4.76 3.19 4 .04 6.18-1.4 6.18-4.32z" fill="#372e27"/><path d="m414.6 93.6a18.6 18.6 0 0 1 -.87-6.32 18.62 18.62 0 0 1 .87-6.28c1.6-4.56 5.85-7.06 11.42-7.06a12.48 12.48 0 0 1 9.59 4 .5.5 0 0 1 -.06.75l-3.61 2.92a.55.55 0 0 1 -.81-.11 6.47 6.47 0 0 0 -5.13-2.3 5.08 5.08 0 0 0 -5.17 3.35 14 14 0 0 0 -.57 4.73 14.35 14.35 0 0 0 .57 4.78 5.11 5.11 0 0 0 5.17 3.29 6.47 6.47 0 0 0 5.11-2.23.55.55 0 0 1 .81-.06l3.63 2.94c.29.21.23.47.06.74a12.62 12.62 0 0 1 -9.59 3.93c-5.57-.01-9.82-2.51-11.42-7.07z" fill="#372e27"/><path d="m458 100.08a1 1 0 0 1 -.92-.54l-7-10.72-3.73 4v6.74a.53.53 0 0 1 -.58.54h-5.28a.53.53 0 0 1 -.58-.54v-35.07a.52.52 0 0 1 .58-.53h5.28a.52.52 0 0 1 .58.53v20.82l9.5-10.31a1.33 1.33 0 0 1 1.09-.53h5.86c.34 0 .46.31.23.53l-8.79 9.34 10.11 15.19a.33.33 0 0 1 -.29.54z" fill="#372e27"/></g>
</svg>
