<svg id="Layer_1" data-name="Layer 1" xmlns="http://www.w3.org/2000/svg" xmlns:xlink="http://www.w3.org/1999/xlink" viewBox="0 0 70.87 70.87"><defs><style>.cls-1{fill:none;}.cls-2{clip-path:url(#clip-path);}.cls-3{}</style><clipPath id="clip-path"><rect class="cls-1" x="0.43" y="0.44" width="70" height="69.99"/></clipPath></defs><title>icons-collected</title><g class="cls-2"><path class="cls-3" d="M35.41,9.7a2.34,2.34,0,0,0-2.31,2.36V35.14a2.28,2.28,0,0,0,0,.54v0a1.78,1.78,0,0,0,0,.2l0,.1s0,.08,0,.12l0,0a1.38,1.38,0,0,0,0,.17l0,0a2.32,2.32,0,0,0,.85,1l15.2,15.2a2.33,2.33,0,0,0,3.52-3.07l-.21-.21L37.77,34.46V12.08A2.33,2.33,0,0,0,35.48,9.7h-.07m0-4.64A30.37,30.37,0,1,1,14,14,30.25,30.25,0,0,1,35.43,5.06m0-4.62A35,35,0,1,0,60.19,10.67,34.9,34.9,0,0,0,35.43.44"/></g></svg>