<svg xmlns="http://www.w3.org/2000/svg" xmlns:xlink="http://www.w3.org/1999/xlink" version="1.1" x="0px" y="0px" viewBox="0 0 100 125" style="enable-background:new 0 0 100 100;" xml:space="preserve"><path d="M83.7,16.3c-9-9-21-13.9-33.7-13.9c-12.8,0-24.7,5-33.7,13.9c-9,9-13.9,21-13.9,33.7s5,24.7,13.9,33.7  c9,9,21,13.9,33.7,13.9c12.8,0,24.7-5,33.7-13.9c9-9,13.9-21,13.9-33.7C97.7,37.2,92.7,25.3,83.7,16.3z M50,10.8  c8.9,0,17.6,3.1,24.5,8.7L19.5,74.5C7.1,59.1,8.2,36.4,22.3,22.3C29.7,14.9,39.5,10.8,50,10.8z M77.7,77.7  c-14.1,14.1-36.8,15.2-52.3,2.8l55.1-55.1C93,40.9,91.8,63.6,77.7,77.7z"/></svg>
