<svg xmlns="http://www.w3.org/2000/svg" xmlns:xlink="http://www.w3.org/1999/xlink" version="1.1" x="0px" y="0px" viewBox="0 0 100 100" style="enable-background:new 0 0 100 100;" xml:space="preserve"><g><path d="M49.1,6.1C24.8,6.6,5.6,26.6,6.1,50.9c0.5,24.3,20.6,43.5,44.8,43c24.3-0.5,43.5-20.6,43-44.8   C93.4,24.8,73.4,5.6,49.1,6.1z M50.7,86.1c-19.9,0.4-36.4-15.4-36.8-35.3c-0.4-19.9,15.4-36.4,35.3-36.8   c19.9-0.4,36.4,15.4,36.8,35.3C86.5,69.2,70.7,85.7,50.7,86.1z"/><g><path d="M55.8,47.1c0,1.8-0.5,4.6-1.4,8.4c-0.9,3.8-1.4,6.2-1.4,7.3c0,1.1,0.2,1.7,0.6,1.7c0.4,0,1.2-0.2,2.3-0.6    l0.5-0.2l1,3c-1.3,1.1-2.9,2-4.8,2.8c-1.9,0.8-3.6,1.2-5.2,1.2c-1.5,0-2.8-0.5-3.7-1.4c-0.9-0.9-1.3-2.3-1.3-4.1    c0-1.8,0.5-4.5,1.4-8.1c0.9-3.6,1.4-5.9,1.4-6.9c0-1.5-0.5-2.9-1.5-4.3l-0.5-0.7l0.2-1c2-0.6,5.8-1,11.4-1    C55.5,44,55.8,45.3,55.8,47.1z M51.6,38.5c-1.7,0-3.1-0.5-4-1.5c-1-1-1.4-2.2-1.4-3.7c0-1.5,0.6-2.8,1.8-3.8    c1.2-1,2.6-1.6,4.3-1.6c1.7,0,3,0.4,4,1.3c0.9,0.9,1.4,2.1,1.4,3.6c0,1.5-0.6,2.9-1.7,4C54.7,38,53.3,38.5,51.6,38.5z"/></g></g></svg>