<svg data-name="Layer 1" xmlns="http://www.w3.org/2000/svg" viewBox="0 0 70.87 70.87"><defs><clipPath id="a"><path fill="none" d="M0 0h70.87v70.87H0z"/></clipPath></defs><g clip-path="url(#a)"><path class="cls-3" d="M25.44 47.32a11.86 11.86 0 008.08-3.16 1.69 1.69 0 10-2.3-2.48 8.51 8.51 0 110-12.5 1.69 1.69 0 002.29-2.48 11.88 11.88 0 10-8.07 20.61m22.78.01a11.86 11.86 0 008.08-3.16 1.69 1.69 0 10-2.3-2.48 8.51 8.51 0 110-12.5 1.69 1.69 0 002.29-2.48 11.88 11.88 0 10-8.07 20.61"/><path class="cls-3" d="M35.43 3.37a32.49 32.49 0 0132.06 32.07 32.49 32.49 0 01-32.06 32.05A32.49 32.49 0 013.38 35.44 32.49 32.49 0 0135.43 3.37m0 67.49c19.21 0 35.43-16.23 35.43-35.43S54.64 0 35.43 0 0 16.23 0 35.44s16.23 35.43 35.43 35.43"/></g></svg>